<?xml version="1.0" encoding="UTF-8" standalone="no"?>
<svg
   viewBox="-12.475818954976539 -12.475818954976539 29.89255630796359 24.951637909953078"
   height="24.951637909953078mm"
   width="29.89255630796359mm"
   version="1.1"
   id="SvgjsSvg1187"
   sodipodi:docname="involute_gear_34_to_8.svg"
   inkscape:version="1.2.1 (9c6d41e410, 2022-07-14)"
   xmlns:inkscape="http://www.inkscape.org/namespaces/inkscape"
   xmlns:sodipodi="http://sodipodi.sourceforge.net/DTD/sodipodi-0.dtd"
   xmlns="http://www.w3.org/2000/svg"
   xmlns:svg="http://www.w3.org/2000/svg">
  <sodipodi:namedview
     id="namedview18"
     pagecolor="#ffffff"
     bordercolor="#000000"
     borderopacity="0.25"
     inkscape:showpageshadow="2"
     inkscape:pageopacity="0.0"
     inkscape:pagecheckerboard="0"
     inkscape:deskcolor="#d1d1d1"
     inkscape:document-units="mm"
     showgrid="false"
     inkscape:zoom="8.3770388"
     inkscape:cx="29.66442"
     inkscape:cy="47.212387"
     inkscape:window-width="1920"
     inkscape:window-height="1001"
     inkscape:window-x="-9"
     inkscape:window-y="-9"
     inkscape:window-maximized="1"
     inkscape:current-layer="SvgjsSvg1187" />
  <desc
     id="desc2">Created with svg.js [http://svgjs.com]</desc>
  <defs
     id="SvgjsDefs1188" />
  <defs
     id="defs5" />
  <path
     id="SvgjsPath1198"
     style="fill:#800000;stroke:none;stroke-width:0.1"
     d="M -0.8093476 -11.08779 A 11.117066 11.117066 0 0 0 -1.2413626 -11.047482 L -1.3054414 -10.871782 L -1.3359304 -10.779798 L -1.3870901 -10.606166 L -1.4273977 -10.445969 L -1.4568533 -10.302308 L -1.4780406 -10.173634 L -1.4914765 -10.063046 L -1.499228 -9.9679617 L -1.5038789 -9.8429047 L -1.5085297 -9.809315 L -1.5147309 -9.7803762 L -1.5224824 -9.7560883 L -1.5323009 -9.7364513 L -1.5431529 -9.7214651 L -1.5555553 -9.7111298 L -1.5720917 -9.7054454 L -1.8067027 -9.664621 L -2.0397635 -9.6181122 L -2.0578502 -9.6175955 L -2.0728364 -9.6227631 L -2.0883393 -9.6325817 L -2.104359 -9.6475678 L -2.1208955 -9.6672049 L -2.1369151 -9.6920095 L -2.1529348 -9.7214651 L -2.203061 -9.8361868 L -2.2444021 -9.9224864 L -2.2965953 -10.020672 L -2.3632579 -10.133326 L -2.4428396 -10.256316 L -2.5379243 -10.391192 L -2.6485118 -10.534335 L -2.7100068 -10.609266 L -2.8329967 -10.749826 A 11.117066 11.117066 0 0 0 -3.2505423 -10.631487 L -3.2810314 -10.447002 L -3.2939505 -10.350367 L -3.312554 -10.170533 L -3.3223725 -10.006202 L -3.3254731 -9.8594412 L -3.3223725 -9.7286998 L -3.3151378 -9.6175955 L -3.3048025 -9.5225108 L -3.2872325 -9.3990042 L -3.2851655 -9.3654145 L -3.286199 -9.3354422 L -3.2892996 -9.3101207 L -3.2955008 -9.2889334 L -3.3032522 -9.2723969 L -3.3135875 -9.2599946 L -3.3285737 -9.2512096 L -3.5518159 -9.1680105 L -3.7724742 -9.0791271 L -3.7900442 -9.0755097 L -3.8055471 -9.0780935 L -3.8226004 -9.0848115 L -3.8412039 -9.096697 L -3.8608409 -9.1127167 L -3.8815115 -9.1344208 L -3.9026988 -9.1602591 L -3.9729788 -9.2641287 L -4.0293061 -9.3411266 L -4.0990693 -9.427943 L -4.1848522 -9.5261282 L -4.2856212 -9.6330984 L -4.4039602 -9.7478201 L -4.5388357 -9.8682262 L -4.6132498 -9.9307547 L -4.7600108 -10.04651 A 11.117066 11.117066 0 0 0 -5.1486176 -9.85324 L -5.1444835 -9.6661713 L -5.1398326 -9.5690196 L -5.1248465 -9.3886689 L -5.1046927 -9.2253714 L -5.0804047 -9.0806774 L -5.053533 -8.9525198 L -5.0261445 -8.8445161 L -4.998756 -8.7530488 L -4.9584483 -8.6347097 L -4.9501801 -8.6021536 L -4.9455292 -8.572698 L -4.9439789 -8.5473766 L -4.946046 -8.5256725 L -4.9512136 -8.5075857 L -4.9584483 -8.4936331 L -4.9718842 -8.4817475 L -5.1760061 -8.3592744 L -5.3765107 -8.2316336 L -5.3930471 -8.2249156 L -5.4090668 -8.2238821 L -5.4271536 -8.2274995 L -5.4473074 -8.2357677 L -5.4695283 -8.24817 L -5.4938162 -8.2652233 L -5.5196544 -8.2874441 L -5.6075043 -8.3763276 L -5.6772675 -8.4414399 L -5.7615001 -8.5143037 L -5.8638194 -8.5954357 L -5.9826752 -8.6812185 L -6.1201345 -8.7726858 L -6.2751638 -8.8662202 L -6.3593964 -8.9137625 L -6.5252778 -9.0005789 A 11.117066 11.117066 0 0 0 -6.8715099 -8.7390961 L -6.8332693 -8.5561616 L -6.8105317 -8.4615937 L -6.7629894 -8.2874441 L -6.7128632 -8.1303478 L -6.6622203 -7.9923717 L -6.6126109 -7.8714488 L -6.5655854 -7.7706798 L -6.5216604 -7.6854137 L -6.4606822 -7.5768932 L -6.4467296 -7.5458873 L -6.4363943 -7.517982 L -6.4307099 -7.4931774 L -6.4286428 -7.4714733 L -6.4296764 -7.4528697 L -6.434844 -7.4378836 L -6.4456961 -7.4239309 L -6.623463 -7.2658011 L -6.7976126 -7.1035371 L -6.8125987 -7.0937185 L -6.8281017 -7.0901012 L -6.8467052 -7.0906179 L -6.8678925 -7.0947521 L -6.8921804 -7.1030203 L -6.9190522 -7.1154226 L -6.9485078 -7.1319591 L -7.0513439 -7.2032726 L -7.1319591 -7.2544322 L -7.2280773 -7.3102428 L -7.3433157 -7.371221 L -7.4761241 -7.4342662 L -7.6280528 -7.498345 L -7.7970348 -7.561907 L -7.8890188 -7.5934296 L -8.0678193 -7.6482067 A 11.117066 11.117066 0 0 0 -8.3603079 -7.3278128 L -8.2889944 -7.1546967 L -8.2492036 -7.06633 L -8.1706554 -6.9035493 L -8.0921072 -6.7583385 L -8.0176931 -6.632248 L -7.9463797 -6.522694 L -7.8817841 -6.4317434 L -7.822873 -6.3562958 L -7.7427745 -6.2606944 L -7.7231375 -6.2327892 L -7.7086681 -6.2074677 L -7.697816 -6.1842133 L -7.6916149 -6.163026 L -7.6900646 -6.1444225 L -7.6921316 -6.1289195 L -7.7003998 -6.1128998 L -7.8461274 -5.9247976 L -7.987204 -5.7335948 L -8.0001232 -5.7211925 L -8.0145926 -5.7149913 L -8.0326793 -5.711374 L -8.0549002 -5.7118907 L -8.0802216 -5.7155081 L -8.1086437 -5.7227428 L -8.1406831 -5.7335948 L -8.254888 -5.7847545 L -8.3432547 -5.8204112 L -8.4481578 -5.8576183 L -8.5732148 -5.8963756 L -8.7148082 -5.9340994 L -8.8760387 -5.9692394 L -9.0538056 -6.000762 L -9.1504405 -6.0147146 L -9.3359589 -6.035902 A 11.117066 11.117066 0 0 0 -9.5643688 -5.6669322 L -9.4625662 -5.5098359 L -9.4072724 -5.4302542 L -9.2997854 -5.2845266 L -9.1964326 -5.1563691 L -9.0997976 -5.0457815 L -9.0093639 -4.9512136 L -8.9292654 -4.8742158 L -8.8579519 -4.8106538 L -8.761317 -4.7315888 L -8.7370291 -4.7078177 L -8.7179088 -4.6855968 L -8.7034394 -4.6644094 L -8.6931041 -4.6447724 L -8.6879365 -4.6266857 L -8.6874197 -4.6111827 L -8.6925873 -4.5941295 L -8.8011079 -4.3822561 L -8.9044607 -4.1683157 L -8.914796 -4.1538463 L -8.9282319 -4.1450613 L -8.9452851 -4.1383434 L -8.9669892 -4.1342093 L -8.9928274 -4.1331757 L -9.022283 -4.1352428 L -9.0553559 -4.1404104 L -9.1773123 -4.1693492 L -9.2708466 -4.1884695 L -9.3804007 -4.2060395 L -9.5106253 -4.2210257 L -9.6568696 -4.2313609 L -9.8217174 -4.2365286 L -10.002585 -4.2349783 L -10.099737 -4.2308442 L -10.285772 -4.2174083 A 11.117066 11.117066 0 0 0 -10.442868 -3.8127818 L -10.313677 -3.6773896 L -10.244947 -3.6091767 L -10.112656 -3.48567 L -9.987082 -3.3786998 L -9.8718435 -3.2877493 L -9.7659068 -3.2117849 L -9.6728893 -3.15029 L -9.5907237 -3.1011974 L -9.4816865 -3.0407359 L -9.4532644 -3.0221324 L -9.4305268 -3.0035289 L -9.4119233 -2.9854422 L -9.3990042 -2.9683889 L -9.3902192 -2.9518525 L -9.3866018 -2.9363496 L -9.3886689 -2.9187796 L -9.456365 -2.6903697 L -9.5188935 -2.4609264 L -9.526645 -2.4449067 L -9.537497 -2.4335379 L -9.5535167 -2.4242361 L -9.5741873 -2.4164846 L -9.598992 -2.4108002 L -9.6284475 -2.4071829 L -9.6620372 -2.4056326 L -9.7870942 -2.4123505 L -9.8826956 -2.4133841 L -9.9937999 -2.4102835 L -10.124025 -2.4014985 L -10.269752 -2.384962 L -10.43305 -2.3596406 L -10.6103 -2.3245006 L -10.704868 -2.3027965 L -10.885735 -2.2557709 A 11.117066 11.117066 0 0 0 -10.965317 -1.8289236 L -10.813905 -1.7198863 L -10.733806 -1.6651093 L -10.580844 -1.5684744 L -10.438217 -1.4857921 L -10.307993 -1.418096 L -10.189654 -1.3622854 L -10.087334 -1.319394 L -9.9974173 -1.2858043 L -9.8785615 -1.247047 L -9.8475556 -1.2336111 L -9.8217174 -1.2196585 L -9.8005301 -1.2051891 L -9.7839936 -1.1907197 L -9.7726248 -1.1762503 L -9.7664236 -1.1612641 L -9.7648733 -1.1436941 L -9.789678 -0.90701606 L -9.8087983 -0.66982123 L -9.8134492 -0.65276801 L -9.8227509 -0.6398489 L -9.8361868 -0.62744656 L -9.8553071 -0.61607774 L -9.8785615 -0.60574246 L -9.9069835 -0.59695746 L -9.9395397 -0.58972276 L -10.063563 -0.57266954 L -10.157614 -0.55664985 L -10.266651 -0.53287869 L -10.392742 -0.50032254 L -10.533302 -0.4574311 L -10.688848 -0.40265408 L -10.856796 -0.33547472 L -10.94568 -0.29671739 L -11.115178 -0.21713569 A 11.117066 11.117066 0 0 0 -11.115178 0.21694634 L -10.94568 0.29652805 L -10.856796 0.33528537 L -10.688848 0.40246474 L -10.533302 0.45724175 L -10.392742 0.50013319 L -10.266651 0.53320611 L -10.157614 0.5564605 L -10.063563 0.57299696 L -9.9395397 0.58953342 L -9.9069835 0.59676812 L -9.8785615 0.60555312 L -9.8553071 0.6158884 L -9.8361868 0.62725722 L -9.8227509 0.63965956 L -9.8134492 0.65309543 L -9.8087983 0.67014866 L -9.789678 0.90734348 L -9.7648733 1.1440215 L -9.7664236 1.1615915 L -9.7726248 1.1760609 L -9.7839936 1.1905303 L -9.8005301 1.2055165 L -9.8217174 1.2199859 L -9.8475556 1.2334218 L -9.8785615 1.2468576 L -9.9974173 1.2861317 L -10.087334 1.3192046 L -10.189654 1.3626128 L -10.307993 1.4179066 L -10.438217 1.4861195 L -10.580844 1.568285 L -10.733806 1.66492 L -10.813905 1.719697 L -10.965317 1.829251 A 11.117066 11.117066 0 0 0 -10.885735 2.2555816 L -10.704868 2.3031239 L -10.6103 2.324828 L -10.43305 2.359968 L -10.269752 2.3852894 L -10.124025 2.4013091 L -9.9937999 2.4106109 L -9.8826956 2.4137115 L -9.7870942 2.4121612 L -9.6620372 2.40596 L -9.6284475 2.4069935 L -9.598992 2.4106109 L -9.5741873 2.4162953 L -9.5535167 2.4240468 L -9.537497 2.4338653 L -9.526645 2.4452341 L -9.5188935 2.4612538 L -9.456365 2.6906972 L -9.3886689 2.9185902 L -9.3866018 2.9361602 L -9.3902192 2.9516631 L -9.3990042 2.9681996 L -9.4119233 2.9857696 L -9.4305268 3.0038563 L -9.4532644 3.0219431 L -9.4816865 3.0410634 L -9.5907237 3.101008 L -9.6728893 3.1506174 L -9.7659068 3.2115956 L -9.8718435 3.2880767 L -9.987082 3.3785105 L -10.112656 3.4859975 L -10.244947 3.6089874 L -10.313677 3.6772003 L -10.442868 3.8131093 A 11.117066 11.117066 0 0 0 -10.285772 4.217219 L -10.099737 4.2306548 L -10.002585 4.234789 L -9.8217174 4.236856 L -9.6568696 4.2316884 L -9.5106253 4.2208363 L -9.3804007 4.2058502 L -9.2708466 4.1882802 L -9.1767955 4.1696767 L -9.0553559 4.1402211 L -9.022283 4.1355702 L -8.9928274 4.1335031 L -8.9669892 4.1345367 L -8.9452851 4.138154 L -8.9282319 4.144872 L -8.914796 4.153657 L -8.9044607 4.1681264 L -8.8011079 4.3825836 L -8.6925873 4.5939402 L -8.6874197 4.6109934 L -8.6879365 4.6270131 L -8.6931041 4.6445831 L -8.7034394 4.6642201 L -8.7179088 4.6854074 L -8.7370291 4.7076283 L -8.761317 4.7313995 L -8.8579519 4.8104644 L -8.9292654 4.8740264 L -9.0093639 4.9515411 L -9.0997976 5.0461089 L -9.1964326 5.1561797 L -9.2997854 5.2848541 L -9.4072724 5.4300648 L -9.4625662 5.5101633 L -9.5643688 5.6667429 A 11.117066 11.117066 0 0 0 -9.3359589 6.0357126 L -9.1504405 6.0145253 L -9.0538056 6.0005726 L -8.8760387 5.96905 L -8.7148082 5.93391 L -8.5732148 5.896703 L -8.4481578 5.8579457 L -8.3432547 5.8207387 L -8.254888 5.7850819 L -8.1406831 5.7339223 L -8.1086437 5.7225534 L -8.0802216 5.7153187 L -8.0549002 5.7117014 L -8.0326793 5.7117014 L -8.0145926 5.714802 L -8.0001232 5.7210031 L -7.987204 5.7334055 L -7.8461274 5.9251251 L -7.7003998 6.1132273 L -7.6921316 6.1287302 L -7.6900646 6.1447499 L -7.6916149 6.1628366 L -7.697816 6.184024 L -7.7086681 6.2072784 L -7.7231375 6.2331166 L -7.7427745 6.2605051 L -7.822873 6.3566233 L -7.8817841 6.4320709 L -7.9463797 6.5225046 L -8.0176931 6.6320586 L -8.0921072 6.7581491 L -8.1706554 6.9033599 L -8.2492036 7.0661407 L -8.2889944 7.1550241 L -8.3603079 7.3276234 A 11.117066 11.117066 0 0 0 -8.0678193 7.6485341 L -7.8890188 7.5932403 L -7.7970348 7.5622344 L -7.6280528 7.4986724 L -7.4761241 7.4340769 L -7.3433157 7.3715484 L -7.2280773 7.3105702 L -7.1314423 7.2547597 L -7.0513439 7.2030832 L -6.9485078 7.1317697 L -6.9190522 7.1152333 L -6.8921804 7.1028309 L -6.8678925 7.0945627 L -6.8467052 7.0904286 L -6.8281017 7.0899118 L -6.8125987 7.0935292 L -6.7976126 7.1033477 L -6.623463 7.2656117 L -6.4456961 7.4237416 L -6.434844 7.4376942 L -6.4296764 7.4531972 L -6.4286428 7.4712839 L -6.4307099 7.4935048 L -6.4363943 7.5183095 L -6.4467296 7.5462147 L -6.4606822 7.5767038 L -6.5216604 7.6857411 L -6.5655854 7.7704905 L -6.6126109 7.8717763 L -6.6622203 7.9921823 L -6.7128632 8.1301584 L -6.7629894 8.2872548 L -6.8105317 8.4619211 L -6.8332693 8.5559722 L -6.8715099 8.7394236 A 11.117066 11.117066 0 0 0 -6.5252778 9.0003895 L -6.3593964 8.9135731 L -6.2751638 8.8660308 L -6.1201345 8.7724965 L -5.9826752 8.681546 L -5.8638194 8.5952463 L -5.7615001 8.5141143 L -5.6772675 8.4412505 L -5.6075043 8.3761382 L -5.5196544 8.2872548 L -5.4938162 8.2655507 L -5.4695283 8.2484975 L -5.4473074 8.2355783 L -5.4271536 8.2278269 L -5.4090668 8.2242095 L -5.3930471 8.2247263 L -5.3765107 8.2314442 L -5.1760061 8.359085 L -4.9718842 8.4820749 L -4.9584483 8.4934437 L -4.9506969 8.5073964 L -4.946046 8.5254831 L -4.9439789 8.5471872 L -4.9455292 8.5730254 L -4.9501801 8.6019642 L -4.9584483 8.6350372 L -4.998756 8.7533762 L -5.0261445 8.8448435 L -5.053533 8.9523305 L -5.0804047 9.080488 L -5.1046927 9.225182 L -5.1248465 9.3889963 L -5.1398326 9.5693471 L -5.1444835 9.665982 L -5.1486176 9.8530507 A 11.117066 11.117066 0 0 0 -4.7600108 10.046321 L -4.6132498 9.9305653 L -4.5388357 9.8680368 L -4.4039602 9.7476308 L -4.2856212 9.6329091 L -4.1848522 9.5264556 L -4.0990693 9.4277536 L -4.0293061 9.3409372 L -3.9729788 9.2639393 L -3.9026988 9.1605865 L -3.8815115 9.1342315 L -3.8608409 9.1130442 L -3.8412039 9.0965077 L -3.8226004 9.0846221 L -3.8055471 9.0779042 L -3.7900442 9.0758371 L -3.7724742 9.0794545 L -3.5518159 9.1678212 L -3.3285737 9.2510202 L -3.3135875 9.260322 L -3.3032522 9.2722076 L -3.2955008 9.2892608 L -3.2892996 9.3104481 L -3.286199 9.3357696 L -3.2851655 9.3652252 L -3.2872325 9.3988148 L -3.3048025 9.5228383 L -3.3151378 9.6179229 L -3.3223725 9.7285105 L -3.3254731 9.8592518 L -3.3223725 10.006013 L -3.312554 10.170861 L -3.2939505 10.350695 L -3.2810314 10.446813 L -3.2505423 10.631298 A 11.117066 11.117066 0 0 0 -2.8329967 10.750154 L -2.7100068 10.609077 L -2.6485118 10.534146 L -2.5379243 10.391002 L -2.4428396 10.256127 L -2.3632579 10.133137 L -2.2965953 10.020482 L -2.2444021 9.9222971 L -2.203061 9.8359975 L -2.1529348 9.7217925 L -2.1369151 9.6918202 L -2.1208955 9.6670155 L -2.104359 9.6473785 L -2.0883393 9.6323923 L -2.0728364 9.6225738 L -2.0578502 9.6174061 L -2.0397635 9.6179229 L -1.8067027 9.6644317 L -1.5720917 9.7052561 L -1.5555553 9.7114572 L -1.5431529 9.7217925 L -1.5323009 9.7367787 L -1.5224824 9.7564157 L -1.5147309 9.7807037 L -1.5085297 9.8096425 L -1.5038789 9.8427154 L -1.499228 9.9677724 L -1.4914765 10.062857 L -1.4780406 10.173445 L -1.4568533 10.302636 L -1.4273977 10.446296 L -1.3870901 10.605976 L -1.3359304 10.779609 L -1.3054414 10.871593 L -1.2413626 11.047293 A 11.117066 11.117066 0 0 0 -0.8093476 11.087601 L -0.71477973 10.92637 L -0.66775418 10.841621 L -0.58507188 10.68039 L -0.51634223 10.530529 L -0.46104845 10.39462 L -0.41660672 10.27163 L -0.38301703 10.165693 L -0.35821235 10.073709 L -0.33030707 9.9517527 L -0.31997179 9.9197133 L -0.30808621 9.8923248 L -0.29568386 9.8701039 L -0.28276476 9.8525339 L -0.26932888 9.8396148 L -0.25537625 9.8318633 L -0.23780626 9.8287628 L -9.4671122e-05 9.8318633 L 0.23813368 9.8287628 L 0.2551869 9.8318633 L 0.26913954 9.8396148 L 0.28309218 9.8525339 L 0.29601129 9.8701039 L 0.30841363 9.8923248 L 0.31978244 9.9197133 L 0.33011773 9.9517527 L 0.358023 10.073709 L 0.38282769 10.165693 L 0.41641737 10.27163 L 0.4608591 10.39462 L 0.51666965 10.530529 L 0.58539931 10.68039 L 0.66756483 10.841621 L 0.71459039 10.92637 L 0.80967502 11.087601 A 11.117066 11.117066 0 0 0 1.24169 11.047293 L 1.305252 10.871593 L 1.3357411 10.779609 L 1.3869008 10.605976 L 1.4272084 10.446296 L 1.4571807 10.302636 L 1.4778513 10.173445 L 1.4912872 10.062857 L 1.4990386 9.9677724 L 1.5042063 9.8427154 L 1.5083404 9.8096425 L 1.5145416 9.7807037 L 1.5228098 9.7564157 L 1.5321115 9.7367787 L 1.5434804 9.7217925 L 1.5553659 9.7114572 L 1.5724192 9.7052561 L 1.8065134 9.6644317 L 2.0400909 9.6179229 L 2.0576609 9.6174061 L 2.072647 9.6225738 L 2.08815 9.6323923 L 2.1046864 9.6473785 L 2.1207061 9.6670155 L 2.1372426 9.6918202 L 2.1532623 9.7217925 L 2.2028716 9.8359975 L 2.2442128 9.9222971 L 2.2969227 10.020482 L 2.3630686 10.133137 L 2.4426503 10.256127 L 2.5377349 10.391002 L 2.6483225 10.534146 L 2.7103342 10.609077 L 2.8333241 10.750154 A 11.117066 11.117066 0 0 0 3.2503529 10.631298 L 3.280842 10.446813 L 3.2937611 10.350695 L 3.3123646 10.170861 L 3.3226999 10.006013 L 3.3252837 9.8592518 L 3.3221832 9.7285105 L 3.3149485 9.6179229 L 3.3051299 9.5228383 L 3.2870432 9.3988148 L 3.2849761 9.3652252 L 3.2860097 9.3357696 L 3.289627 9.3104481 L 3.2953114 9.2892608 L 3.3035796 9.2722076 L 3.3133982 9.260322 L 3.3289011 9.2510202 L 3.5516265 9.1678212 L 3.7722849 9.0794545 L 3.7898549 9.0758371 L 3.8053578 9.0779042 L 3.8229278 9.0846221 L 3.8415313 9.0965077 L 3.8611683 9.1130442 L 3.8813222 9.1342315 L 3.9030263 9.1605865 L 3.9727894 9.2639393 L 4.0296335 9.3409372 L 4.0988799 9.4277536 L 4.1846628 9.5264556 L 4.2859486 9.6329091 L 4.4037709 9.7476308 L 4.5391631 9.8680368 L 4.6135772 9.9305653 L 4.7603383 10.046321 A 11.117066 11.117066 0 0 0 5.1484283 9.8530507 L 5.1448109 9.665982 L 5.1396433 9.5693471 L 5.1246571 9.3889963 L 5.1045033 9.225182 L 5.0802154 9.080488 L 5.0533436 8.9523305 L 5.0259551 8.8448435 L 4.9985666 8.7533762 L 4.958259 8.6350372 L 4.9499908 8.6019642 L 4.9453399 8.5730254 L 4.9443064 8.5471872 L 4.9458567 8.5254831 L 4.9510243 8.5073964 L 4.9587758 8.4934437 L 4.9722116 8.4820749 L 5.1758168 8.359085 L 5.3763213 8.2314442 L 5.3928578 8.2247263 L 5.4088775 8.2242095 L 5.4269642 8.2278269 L 5.4476348 8.2355783 L 5.4698557 8.2484975 L 5.4936268 8.2655507 L 5.5194651 8.2872548 L 5.607315 8.3761382 L 5.6770782 8.4412505 L 5.7613108 8.5141143 L 5.8641469 8.5952463 L 5.9830027 8.681546 L 6.1199452 8.7724965 L 6.2749745 8.8660308 L 6.3597239 8.9135731 L 6.5250884 9.0003895 A 11.117066 11.117066 0 0 0 6.8713205 8.7394236 L 6.83308 8.5559722 L 6.8103423 8.4619211 L 6.7628 8.2872548 L 6.7126739 8.1301584 L 6.6625477 7.9921823 L 6.6124216 7.8717763 L 6.5653961 7.7704905 L 6.5219878 7.6857411 L 6.4604929 7.5767038 L 6.4465403 7.5462147 L 6.4367217 7.5183095 L 6.4305206 7.4935048 L 6.4284535 7.4712839 L 6.4300038 7.4531972 L 6.4351714 7.4376942 L 6.4460235 7.4237416 L 6.6237904 7.2656117 L 6.7974232 7.1033477 L 6.8124094 7.0935292 L 6.8279123 7.0899118 L 6.8465158 7.0904286 L 6.8682199 7.0945627 L 6.8925079 7.1028309 L 6.9188628 7.1152333 L 6.9483184 7.1317697 L 7.0511545 7.2030832 L 7.1317697 7.2547597 L 7.2278879 7.3105702 L 7.3436431 7.3715484 L 7.4759348 7.4340769 L 7.6278635 7.4986724 L 7.7973622 7.5622344 L 7.8893462 7.5932403 L 8.0681467 7.6485341 A 11.117066 11.117066 0 0 0 8.3601185 7.3276234 L 8.2888051 7.1550241 L 8.249531 7.0661407 L 8.170466 6.9033599 L 8.0924346 6.7581491 L 8.0175038 6.6320586 L 7.9461903 6.5225046 L 7.8815948 6.4320709 L 7.8232004 6.3566233 L 7.7425852 6.2605051 L 7.7234649 6.2331166 L 7.7084787 6.2072784 L 7.6981434 6.184024 L 7.6919423 6.1628366 L 7.6898752 6.1447499 L 7.6919423 6.1287302 L 7.7002105 6.1132273 L 7.845938 5.9251251 L 7.9870147 5.7334055 L 7.9999338 5.7210031 L 8.0144032 5.714802 L 8.0330067 5.7117014 L 8.0547108 5.7117014 L 8.0800323 5.7153187 L 8.1084543 5.7225534 L 8.1404937 5.7339223 L 8.2546986 5.7850819 L 8.3430653 5.8207387 L 8.4479685 5.8579457 L 8.5730254 5.896703 L 8.7146189 5.93391 L 8.8758493 5.96905 L 9.054133 6.0005726 L 9.1502512 6.0145253 L 9.3357696 6.0357126 A 11.117066 11.117066 0 0 0 9.5641794 5.6667429 L 9.4623768 5.5101633 L 9.4070831 5.4300648 L 9.2995961 5.2848541 L 9.1962432 5.1561797 L 9.0996083 5.0461089 L 9.0091745 4.9515411 L 8.9290761 4.8740264 L 8.8577626 4.8104644 L 8.7611277 4.7313995 L 8.7373565 4.7076283 L 8.7177195 4.6854074 L 8.7032501 4.6642201 L 8.6934315 4.6445831 L 8.6882639 4.6270131 L 8.6872304 4.6109934 L 8.692398 4.5939402 L 8.8009185 4.3825836 L 8.9047881 4.1681264 L 8.9151234 4.153657 L 8.9280425 4.144872 L 8.9456125 4.138154 L 8.9673166 4.1345367 L 8.9926381 4.1335031 L 9.0220936 4.1350534 L 9.0556833 4.1402211 L 9.1771229 4.1696767 L 9.2706573 4.1882802 L 9.3807281 4.2058502 L 9.5104359 4.2208363 L 9.6566802 4.2316884 L 9.8215281 4.236856 L 10.002396 4.234789 L 10.099547 4.2306548 L 10.286099 4.217219 A 11.117066 11.117066 0 0 0 10.442679 3.8131093 L 10.314004 3.6772003 L 10.244758 3.6089874 L 10.112466 3.4859975 L 9.9874094 3.3785105 L 9.8716542 3.2880767 L 9.7657175 3.2115956 L 9.6726999 3.1506174 L 9.5910512 3.101008 L 9.4814971 3.0410634 L 9.4535919 3.0219431 L 9.4303375 3.0038563 L 9.4122507 2.9857696 L 9.3988148 2.9681996 L 9.3905466 2.9516631 L 9.3864125 2.9361602 L 9.3884795 2.9185902 L 9.4566924 2.6906972 L 9.5187042 2.4612538 L 9.5264556 2.4447173 L 9.5378244 2.4338653 L 9.5538441 2.4240468 L 9.5739979 2.4162953 L 9.5993194 2.4106109 L 9.6282582 2.4069935 L 9.6623646 2.40596 L 9.7869048 2.4121612 L 9.8825062 2.4137115 L 9.9936106 2.4106109 L 10.124352 2.4013091 L 10.270079 2.3852894 L 10.43286 2.359968 L 10.61011 2.324828 L 10.705195 2.3031239 L 10.886063 2.2555816 A 11.117066 11.117066 0 0 0 10.965644 1.829251 L 10.814232 1.719697 L 10.733617 1.66492 L 10.580655 1.568285 L 10.438028 1.4861195 L 10.307803 1.4179066 L 10.189464 1.3626128 L 10.087145 1.3192046 L 9.9977447 1.2861317 L 9.8788889 1.2468576 L 9.847883 1.2334218 L 9.8215281 1.2199859 L 9.8003407 1.2055165 L 9.784321 1.1905303 L 9.7729522 1.1760609 L 9.7662343 1.1615915 L 9.7652007 1.1440215 L 9.7900054 0.90734348 L 9.8091257 0.67014866 L 9.8132598 0.65309543 L 9.8225616 0.63965956 L 9.8365142 0.62725722 L 9.8551177 0.6158884 L 9.8783721 0.60555312 L 9.9067942 0.59676812 L 9.9398671 0.58953342 L 10.063374 0.57299696 L 10.157942 0.5564605 L 10.266462 0.53320611 L 10.393069 0.50013319 L 10.533113 0.45724175 L 10.688659 0.40246474 L 10.856607 0.33528537 L 10.946007 0.29652805 L 11.114989 0.21694634 A 11.117066 11.117066 0 0 0 11.114989 -0.21713569 L 10.946007 -0.29671739 L 10.856607 -0.33547472 L 10.688659 -0.40265408 L 10.533113 -0.4574311 L 10.393069 -0.50032254 L 10.266462 -0.53287869 L 10.157942 -0.55664985 L 10.063374 -0.57266954 L 9.9398671 -0.58972276 L 9.9067942 -0.59695746 L 9.8783721 -0.60574246 L 9.8551177 -0.61607774 L 9.8365142 -0.62744656 L 9.8225616 -0.6398489 L 9.8132598 -0.65276801 L 9.8091257 -0.66982123 L 9.7900054 -0.90701606 L 9.7652007 -1.1436941 L 9.7662343 -1.1612641 L 9.7729522 -1.1762503 L 9.784321 -1.1907197 L 9.8003407 -1.2051891 L 9.8215281 -1.2196585 L 9.847883 -1.2336111 L 9.8788889 -1.247047 L 9.9977447 -1.2858043 L 10.087145 -1.319394 L 10.189464 -1.3622854 L 10.307803 -1.418096 L 10.438028 -1.4857921 L 10.580655 -1.5684744 L 10.733617 -1.6651093 L 10.814232 -1.7198863 L 10.965644 -1.8289236 A 11.117066 11.117066 0 0 0 10.886063 -2.2557709 L 10.705195 -2.3027965 L 10.61011 -2.3245006 L 10.43286 -2.3596406 L 10.270079 -2.384962 L 10.124352 -2.4014985 L 9.9936106 -2.4102835 L 9.8825062 -2.4133841 L 9.7869048 -2.4123505 L 9.6623646 -2.4061494 L 9.6282582 -2.4071829 L 9.5988026 -2.4108002 L 9.5739979 -2.4164846 L 9.5538441 -2.4242361 L 9.5378244 -2.4335379 L 9.5264556 -2.4449067 L 9.5187042 -2.4609264 L 9.4566924 -2.6903697 L 9.3884795 -2.9187796 L 9.3864125 -2.9363496 L 9.3905466 -2.9518525 L 9.3988148 -2.9683889 L 9.4122507 -2.9854422 L 9.4303375 -3.0035289 L 9.4535919 -3.0221324 L 9.4814971 -3.0407359 L 9.5910512 -3.1011974 L 9.6726999 -3.15029 L 9.7657175 -3.2117849 L 9.8716542 -3.2877493 L 9.9874094 -3.3786998 L 10.112466 -3.48567 L 10.244758 -3.6091767 L 10.314004 -3.6773896 L 10.442679 -3.8127818 A 11.117066 11.117066 0 0 0 10.286099 -4.2174083 L 10.099547 -4.2308442 L 10.002396 -4.2349783 L 9.8215281 -4.2365286 L 9.6566802 -4.2313609 L 9.5104359 -4.2210257 L 9.3807281 -4.2060395 L 9.2706573 -4.1884695 L 9.1771229 -4.1693492 L 9.0556833 -4.1404104 L 9.0220936 -4.1352428 L 8.9926381 -4.1331757 L 8.9673166 -4.134726 L 8.9456125 -4.1383434 L 8.9280425 -4.1450613 L 8.9151234 -4.1538463 L 8.9047881 -4.1683157 L 8.8009185 -4.3822561 L 8.692398 -4.5941295 L 8.6872304 -4.6111827 L 8.6882639 -4.6272024 L 8.6934315 -4.6447724 L 8.7032501 -4.6644094 L 8.7177195 -4.6855968 L 8.7373565 -4.7078177 L 8.7611277 -4.7315888 L 8.8577626 -4.8106538 L 8.9290761 -4.8742158 L 9.0091745 -4.9512136 L 9.0996083 -5.0457815 L 9.1962432 -5.1563691 L 9.2995961 -5.2845266 L 9.4070831 -5.4302542 L 9.4623768 -5.5098359 L 9.5641794 -5.6669322 A 11.117066 11.117066 0 0 0 9.3357696 -6.035902 L 9.1502512 -6.0147146 L 9.054133 -6.000762 L 8.8758493 -5.9692394 L 8.7146189 -5.9340994 L 8.5730254 -5.8963756 L 8.4479685 -5.8576183 L 8.3430653 -5.8204112 L 8.2546986 -5.7847545 L 8.1404937 -5.7335948 L 8.1084543 -5.7227428 L 8.0800323 -5.7155081 L 8.0547108 -5.7118907 L 8.0330067 -5.711374 L 8.0144032 -5.7149913 L 7.9999338 -5.7211925 L 7.9870147 -5.7335948 L 7.845938 -5.9247976 L 7.7002105 -6.1128998 L 7.6919423 -6.1289195 L 7.6898752 -6.1444225 L 7.6919423 -6.163026 L 7.6981434 -6.1842133 L 7.7084787 -6.2074677 L 7.7234649 -6.2333059 L 7.7425852 -6.2606944 L 7.8232004 -6.3562958 L 7.8815948 -6.4317434 L 7.9461903 -6.522694 L 8.0175038 -6.632248 L 8.0924346 -6.7583385 L 8.170466 -6.9035493 L 8.249531 -7.06633 L 8.2888051 -7.1546967 L 8.3601185 -7.3278128 A 11.117066 11.117066 0 0 0 8.0681467 -7.6482067 L 7.8893462 -7.5934296 L 7.7973622 -7.561907 L 7.6278635 -7.498345 L 7.4759348 -7.4342662 L 7.3436431 -7.371221 L 7.2278879 -7.3102428 L 7.1317697 -7.2544322 L 7.0511545 -7.2032726 L 6.9483184 -7.1319591 L 6.9188628 -7.1154226 L 6.8919911 -7.1030203 L 6.8682199 -7.0947521 L 6.8465158 -7.0906179 L 6.8279123 -7.0901012 L 6.8124094 -7.0937185 L 6.7974232 -7.1035371 L 6.6237904 -7.2658011 L 6.4460235 -7.4239309 L 6.4351714 -7.4378836 L 6.4300038 -7.4528697 L 6.4284535 -7.4714733 L 6.4305206 -7.4931774 L 6.4367217 -7.517982 L 6.4465403 -7.5458873 L 6.4604929 -7.5768932 L 6.5219878 -7.6859304 L 6.5653961 -7.7706798 L 6.6124216 -7.8714488 L 6.6625477 -7.9923717 L 6.7126739 -8.1303478 L 6.7628 -8.2874441 L 6.8103423 -8.4615937 L 6.83308 -8.5561616 L 6.8713205 -8.7390961 A 11.117066 11.117066 0 0 0 6.5250884 -9.0005789 L 6.3597239 -8.9137625 L 6.2749745 -8.8662202 L 6.1199452 -8.7726858 L 5.9830027 -8.6812185 L 5.8641469 -8.5954357 L 5.7613108 -8.5143037 L 5.6770782 -8.4414399 L 5.607315 -8.3763276 L 5.5194651 -8.2874441 L 5.4936268 -8.26574 L 5.4698557 -8.24817 L 5.4476348 -8.2357677 L 5.4269642 -8.2274995 L 5.4088775 -8.2238821 L 5.3928578 -8.2249156 L 5.3763213 -8.2316336 L 5.1758168 -8.3592744 L 4.9722116 -8.4817475 L 4.9587758 -8.4936331 L 4.9510243 -8.5075857 L 4.9458567 -8.5256725 L 4.9443064 -8.5473766 L 4.9453399 -8.572698 L 4.9499908 -8.6021536 L 4.958259 -8.6347097 L 4.9985666 -8.7530488 L 5.0259551 -8.8445161 L 5.0533436 -8.9525198 L 5.0802154 -9.0806774 L 5.1045033 -9.2253714 L 5.1246571 -9.3886689 L 5.1396433 -9.5690196 L 5.1448109 -9.6661713 L 5.1484283 -9.85324 A 11.117066 11.117066 0 0 0 4.7603383 -10.04651 L 4.6135772 -9.9307547 L 4.5391631 -9.8682262 L 4.4037709 -9.7478201 L 4.2859486 -9.6330984 L 4.1846628 -9.526645 L 4.0988799 -9.427943 L 4.0296335 -9.3411266 L 3.9727894 -9.2641287 L 3.9030263 -9.1602591 L 3.8813222 -9.1344208 L 3.8611683 -9.1127167 L 3.8415313 -9.096697 L 3.8229278 -9.0848115 L 3.8053578 -9.0780935 L 3.7898549 -9.0755097 L 3.7722849 -9.0791271 L 3.5516265 -9.1680105 L 3.3289011 -9.2512096 L 3.3133982 -9.2599946 L 3.3035796 -9.2723969 L 3.2953114 -9.2894501 L 3.289627 -9.3101207 L 3.2860097 -9.3354422 L 3.2849761 -9.3654145 L 3.2870432 -9.3990042 L 3.3051299 -9.5225108 L 3.3149485 -9.6175955 L 3.3221832 -9.7286998 L 3.3252837 -9.8594412 L 3.3226999 -10.006202 L 3.3123646 -10.170533 L 3.2937611 -10.350367 L 3.280842 -10.447002 L 3.2503529 -10.631487 A 11.117066 11.117066 0 0 0 2.8333241 -10.749826 L 2.7103342 -10.609266 L 2.6483225 -10.534335 L 2.5377349 -10.391192 L 2.4426503 -10.256316 L 2.3630686 -10.133326 L 2.2969227 -10.020672 L 2.2442128 -9.9224864 L 2.2028716 -9.8361868 L 2.1532623 -9.7214651 L 2.1372426 -9.6920095 L 2.1207061 -9.6672049 L 2.1046864 -9.6475678 L 2.08815 -9.6325817 L 2.072647 -9.6227631 L 2.0576609 -9.6175955 L 2.0400909 -9.6181122 L 1.8065134 -9.664621 L 1.5724192 -9.7054454 L 1.5553659 -9.7111298 L 1.5434804 -9.7214651 L 1.5321115 -9.7364513 L 1.5228098 -9.7560883 L 1.5145416 -9.7803762 L 1.5083404 -9.809315 L 1.5042063 -9.8429047 L 1.4990386 -9.9679617 L 1.4912872 -10.063046 L 1.4783681 -10.173634 L 1.4571807 -10.302308 L 1.4272084 -10.445969 L 1.3874175 -10.606166 L 1.3357411 -10.779798 L 1.305252 -10.871782 L 1.24169 -11.047482 A 11.117066 11.117066 0 0 0 0.80967502 -11.08779 L 0.71459039 -10.92656 L 0.66756483 -10.841293 L 0.58539931 -10.68058 L 0.51666965 -10.530718 L 0.4608591 -10.394809 L 0.41641737 -10.271819 L 0.38282769 -10.165882 L 0.358023 -10.073382 L 0.33011773 -9.9514252 L 0.31978244 -9.9193858 L 0.30841363 -9.8925141 L 0.29601129 -9.8697765 L 0.28309218 -9.8522065 L 0.26913954 -9.8398041 L 0.2551869 -9.8320527 L 0.23813368 -9.8289521 L -9.4671122e-05 -9.8320527 L -0.23780626 -9.8289521 L -0.25537625 -9.8320527 L -0.26932888 -9.8398041 L -0.28276476 -9.8522065 L -0.29568386 -9.8697765 L -0.30808621 -9.8925141 L -0.31997179 -9.9193858 L -0.33030707 -9.9514252 L -0.35821235 -10.073382 L -0.38301703 -10.165882 L -0.41660672 -10.271819 L -0.46104845 -10.394809 L -0.51634223 -10.530718 L -0.58507188 -10.68058 L -0.66775418 -10.841293 L -0.71477973 -10.92656 L -0.8093476 -11.08779 z M -9.4671122e-05 -2.1002249 A 2.0998778 2.1001301 0 0 1 2.1000355 -9.4671122e-05 A 2.0998778 2.1001301 0 0 1 -9.4671122e-05 2.1000355 A 2.0998778 2.1001301 0 0 1 -2.1002249 -9.4671122e-05 A 2.0998778 2.1001301 0 0 1 -9.4671122e-05 -2.1002249 z " />
</svg>
