<?xml version="1.0" encoding="UTF-8" standalone="no"?>
<svg
   viewBox="-12.475818954976539 -12.475818954976539 29.89255630796359 24.951637909953078"
   height="24.951637909953078mm"
   width="29.89255630796359mm"
   version="1.1"
   id="SvgjsSvg1187"
   sodipodi:docname="ridge.svg"
   inkscape:version="1.2.1 (9c6d41e410, 2022-07-14)"
   xmlns:inkscape="http://www.inkscape.org/namespaces/inkscape"
   xmlns:sodipodi="http://sodipodi.sourceforge.net/DTD/sodipodi-0.dtd"
   xmlns="http://www.w3.org/2000/svg"
   xmlns:svg="http://www.w3.org/2000/svg">
  <sodipodi:namedview
     id="namedview18"
     pagecolor="#ffffff"
     bordercolor="#000000"
     borderopacity="0.25"
     inkscape:showpageshadow="2"
     inkscape:pageopacity="0.0"
     inkscape:pagecheckerboard="0"
     inkscape:deskcolor="#d1d1d1"
     inkscape:document-units="mm"
     showgrid="false"
     inkscape:zoom="8.3770388"
     inkscape:cx="29.66442"
     inkscape:cy="47.212387"
     inkscape:window-width="1920"
     inkscape:window-height="1001"
     inkscape:window-x="-9"
     inkscape:window-y="-9"
     inkscape:window-maximized="1"
     inkscape:current-layer="SvgjsSvg1187" />
  <desc
     id="desc2">Created with svg.js [http://svgjs.com]</desc>
  <defs
     id="SvgjsDefs1188" />
  <defs
     id="defs5" />
  <path
     id="path469"
     style="fill:#000080;stroke:none;stroke-width:0.200013"
     d="M -9.4671122e-05 -3.9998505 A 4.0002441 4.0002441 0 0 0 -3.9998505 -9.4671122e-05 A 4.0002441 4.0002441 0 0 0 -9.4671122e-05 3.9996612 A 4.0002441 4.0002441 0 0 0 3.9996612 -9.4671122e-05 A 4.0002441 4.0002441 0 0 0 -9.4671122e-05 -3.9998505 z M -9.4671122e-05 -2.1002249 A 2.1001281 2.1001281 0 0 1 2.1000355 -9.4671122e-05 A 2.1001281 2.1001281 0 0 1 -9.4671122e-05 2.1000355 A 2.1001281 2.1001281 0 0 1 -2.1002249 -9.4671122e-05 A 2.1001281 2.1001281 0 0 1 -9.4671122e-05 -2.1002249 z " />
</svg>
