<?xml version="1.0" encoding="UTF-8" standalone="no"?>
<svg
   viewBox="-3.8502763832791316 -3.8502763832791316 12.100868633162985 7.700552766558263"
   height="7.700552766558263mm"
   width="12.100868633162985mm"
   version="1.1"
   id="SvgjsSvg1091"
   sodipodi:docname="involute_gear_10_to_8.svg"
   inkscape:version="1.2.2 (732a01da63, 2022-12-09)"
   xmlns:inkscape="http://www.inkscape.org/namespaces/inkscape"
   xmlns:sodipodi="http://sodipodi.sourceforge.net/DTD/sodipodi-0.dtd"
   xmlns="http://www.w3.org/2000/svg"
   xmlns:svg="http://www.w3.org/2000/svg">
  <sodipodi:namedview
     id="namedview18"
     pagecolor="#ffffff"
     bordercolor="#000000"
     borderopacity="0.25"
     inkscape:showpageshadow="2"
     inkscape:pageopacity="0.0"
     inkscape:pagecheckerboard="0"
     inkscape:deskcolor="#d1d1d1"
     inkscape:document-units="mm"
     showgrid="false"
     inkscape:zoom="27.96823"
     inkscape:cx="13.783497"
     inkscape:cy="14.355574"
     inkscape:window-width="1920"
     inkscape:window-height="1001"
     inkscape:window-x="-9"
     inkscape:window-y="-9"
     inkscape:window-maximized="1"
     inkscape:current-layer="SvgjsSvg1091" />
  <desc
     id="desc2">Created with svg.js [http://svgjs.com]</desc>
  <defs
     id="SvgjsDefs1092" />
  <defs
     id="defs5" />
  <path
     id="SvgjsPath1102"
     style="fill:#800000;stroke:none;stroke-width:0.1"
     d="M -0.88043182 -3.1805498 A 3.3002369 3.3002369 0 0 0 -1.1574175 -3.0906328 L -1.1801551 -3.0141517 L -1.2003089 -2.9376706 L -1.2158119 -2.8637733 L -1.2276974 -2.7950436 L -1.2359657 -2.7294146 L -1.2411333 -2.6689531 L -1.2437171 -2.6115923 L -1.2437171 -2.5593991 L -1.2416501 -2.5123736 L -1.2333819 -2.4312416 L -1.2214963 -2.3681963 L -1.204443 -2.3098019 L -1.1724037 -2.2694943 L -1.1382972 -2.2188514 L -1.1098752 -2.1702756 L -1.0881711 -2.12325 L -1.0716346 -2.0777748 L -1.0607826 -2.0354001 L -1.0550982 -1.9956092 L -1.0545814 -1.9594357 L -1.0587155 -1.9263628 L -1.0675005 -1.897424 L -1.0804196 -1.8731361 L -1.0969561 -1.8529823 L -1.1114255 -1.8405799 L -1.1656857 -1.8064735 L -1.2638709 -1.7392941 L -1.3579221 -1.6669471 L -1.4070147 -1.6261227 L -1.4230344 -1.6157875 L -1.4473223 -1.6059689 L -1.4747108 -1.6018348 L -1.5051999 -1.6023516 L -1.537756 -1.6085528 L -1.5718625 -1.6199216 L -1.608036 -1.6374916 L -1.645243 -1.6612627 L -1.6829668 -1.6907183 L -1.7212074 -1.726375 L -1.7589312 -1.7682329 L -1.7956214 -1.816292 L -1.8245602 -1.8591834 L -1.8746864 -1.8932899 L -1.9310137 -1.9242958 L -2.0054278 -1.9573687 L -2.0498695 -1.9739051 L -2.0994789 -1.9899248 L -2.1547726 -2.004911 L -2.2136838 -2.0188636 L -2.2787961 -2.031266 L -2.3480425 -2.0416013 L -2.4229733 -2.0493527 L -2.5020383 -2.0540036 L -2.58162 -2.0555539 A 3.3002369 3.3002369 0 0 0 -2.752669 -1.8204261 L -2.7268307 -1.7449785 L -2.6973752 -1.6710812 L -2.6668861 -1.6023516 L -2.6358802 -1.5398231 L -2.6043576 -1.4814287 L -2.572835 -1.4297523 L -2.5413124 -1.38221 L -2.5108233 -1.3398353 L -2.4813677 -1.3026283 L -2.4265907 -1.2416501 L -2.3800819 -1.1977251 L -2.3320228 -1.1610348 L -2.2824134 -1.1465654 L -2.2250526 -1.1264116 L -2.1738929 -1.1031572 L -2.1279009 -1.0783526 L -2.08811 -1.0514808 L -2.0545204 -1.0230588 L -2.0266151 -0.99463673 L -2.004911 -0.96518117 L -1.9888913 -0.93624237 L -1.9790728 -0.90782033 L -1.9749387 -0.88043182 L -1.9764889 -0.85407684 L -1.9811398 -0.83599009 L -2.004911 -0.77604543 L -2.0447018 -0.66442433 L -2.0782915 -0.55073618 L -2.0943112 -0.4882077 L -2.1010292 -0.47063771 L -2.1149818 -0.44841685 L -2.1346188 -0.4287798 L -2.1594235 -0.41172658 L -2.1893958 -0.39725718 L -2.2240191 -0.38692189 L -2.2632931 -0.37968719 L -2.3072181 -0.37710337 L -2.3552772 -0.37865366 L -2.4069536 -0.3853716 L -2.4622474 -0.39674041 L -2.5206418 -0.41379364 L -2.5692176 -0.43188039 L -2.6296791 -0.42981333 L -2.6932411 -0.4215451 L -2.7728228 -0.40449188 L -2.8188148 -0.39157277 L -2.8684242 -0.37555308 L -2.9216509 -0.35591603 L -2.9779782 -0.33214487 L -3.0374061 -0.30372284 L -3.0994178 -0.27168345 L -3.1645301 -0.23395965 L -3.2317095 -0.19106821 L -3.2968218 -0.14559295 A 3.3002369 3.3002369 0 0 0 -3.2968218 0.14534536 L -3.2317095 0.19133739 L -3.1645301 0.23371206 L -3.0994178 0.27143586 L -3.0374061 0.30399201 L -2.9779782 0.33189728 L -2.9216509 0.35566844 L -2.8684242 0.37582225 L -2.8188148 0.39184194 L -2.7728228 0.40476105 L -2.6932411 0.42181427 L -2.6296791 0.4300825 L -2.5692176 0.4316328 L -2.5206418 0.41406281 L -2.4622474 0.39700959 L -2.4069536 0.38512401 L -2.3552772 0.37840607 L -2.3072181 0.37685578 L -2.2632931 0.37995636 L -2.2240191 0.3866743 L -2.1893958 0.39752635 L -2.1594235 0.41147899 L -2.1346188 0.42904897 L -2.1149818 0.44868602 L -2.1010292 0.47039012 L -2.0943112 0.48847687 L -2.0782915 0.55048859 L -2.0447018 0.66417674 L -2.004911 0.7763146 L -1.9811398 0.8357425 L -1.9764889 0.85434601 L -1.9749387 0.88018423 L -1.9790728 0.90757274 L -1.9888913 0.93599478 L -2.004911 0.96545034 L -2.0266151 0.99438914 L -2.0545204 1.0233279 L -2.08811 1.0512332 L -2.1279009 1.078105 L -2.1738929 1.1034264 L -2.2250526 1.126164 L -2.2824134 1.1468346 L -2.3320228 1.1607873 L -2.3800819 1.1979943 L -2.4265907 1.2419193 L -2.4813677 1.3028974 L -2.5108233 1.3395877 L -2.5413124 1.3819624 L -2.572835 1.4295047 L -2.6043576 1.4816979 L -2.6358802 1.5395755 L -2.6668861 1.602104 L -2.6973752 1.6708336 L -2.7268307 1.7447309 L -2.752669 1.8201785 A 3.3002369 3.3002369 0 0 0 -2.58162 2.0558231 L -2.5020383 2.0542728 L -2.4229733 2.0491051 L -2.3480425 2.0413537 L -2.2787961 2.0310184 L -2.2136838 2.0191328 L -2.1547726 2.0051802 L -2.0994789 1.9896772 L -2.0498695 1.9736575 L -2.0054278 1.9571211 L -1.9310137 1.9240482 L -1.8746864 1.8935591 L -1.8245602 1.8594526 L -1.7956214 1.8165612 L -1.7589312 1.7685021 L -1.7212074 1.7266442 L -1.6829668 1.6909875 L -1.645243 1.6610151 L -1.608036 1.6377607 L -1.5718625 1.6201907 L -1.537756 1.6083052 L -1.5051999 1.602104 L -1.4747108 1.6015872 L -1.4473223 1.6062381 L -1.4230344 1.6155399 L -1.4070147 1.6258751 L -1.3579221 1.6672163 L -1.2638709 1.7395633 L -1.1656857 1.8067427 L -1.1114255 1.8408491 L -1.0969561 1.8527347 L -1.0804196 1.8728885 L -1.0675005 1.8976932 L -1.0587155 1.926632 L -1.0545814 1.9591881 L -1.0550982 1.9958784 L -1.0607826 2.0356693 L -1.0716346 2.0780439 L -1.0881711 2.1230024 L -1.1098752 2.170028 L -1.1382972 2.2191206 L -1.1724037 2.2692467 L -1.204443 2.3100711 L -1.2214963 2.3679487 L -1.2333819 2.430994 L -1.2416501 2.512126 L -1.2437171 2.5596683 L -1.2437171 2.6118615 L -1.2411333 2.6687056 L -1.2359657 2.729167 L -1.2276974 2.794796 L -1.2158119 2.8640425 L -1.2003089 2.937423 L -1.1801551 3.0144209 L -1.1574175 3.090902 A 3.3002369 3.3002369 0 0 0 -0.88043182 3.180819 L -0.81686981 3.1322431 L -0.75537485 3.082117 L -0.69956431 3.0314741 L -0.64943817 2.9828983 L -0.60447967 2.9348392 L -0.56468882 2.8883304 L -0.52903208 2.8438887 L -0.49854298 2.801514 L -0.472188 2.7622399 L -0.43136362 2.6919599 L -0.40345835 2.6335656 L -0.38330454 2.5767215 L -0.3853716 2.5250451 L -0.38330454 2.4645836 L -0.37762013 2.4082563 L -0.36780161 2.3570967 L -0.35436574 2.3111046 L -0.33834604 2.2702803 L -0.31974253 2.2346235 L -0.29855519 2.205168 L -0.27581756 2.18088 L -0.25152964 2.1627933 L -0.22672495 2.1503909 L -0.2014035 2.143673 L -0.18279998 2.1426395 L -0.11872121 2.1467736 L 0.00013458677 2.1503909 L 0.11847362 2.1467736 L 0.18255239 2.1426395 L 0.20167267 2.143673 L 0.22699412 2.1503909 L 0.25179881 2.1627933 L 0.27556997 2.18088 L 0.2983076 2.205168 L 0.31949494 2.2346235 L 0.33809845 2.2702803 L 0.35463491 2.3111046 L 0.36755402 2.3570967 L 0.37737254 2.4082563 L 0.38357371 2.4645836 L 0.38512401 2.5250451 L 0.38357371 2.5767215 L 0.40372752 2.6335656 L 0.43111603 2.6919599 L 0.47194041 2.7622399 L 0.49829539 2.801514 L 0.52930125 2.8438887 L 0.56444123 2.8883304 L 0.60423208 2.9348392 L 0.64970734 2.9828983 L 0.69983348 3.0314741 L 0.75564403 3.082117 L 0.81662222 3.1322431 L 0.88018423 3.180819 A 3.3002369 3.3002369 0 0 0 1.1571699 3.090902 L 1.1804243 3.0144209 L 1.2000613 2.937423 L 1.216081 2.8640425 L 1.2274499 2.794796 L 1.2357181 2.729167 L 1.2408857 2.6687056 L 1.2434695 2.6118615 L 1.2434695 2.5596683 L 1.2419193 2.512126 L 1.2331343 2.430994 L 1.2212487 2.3679487 L 1.2041955 2.3100711 L 1.1726728 2.2692467 L 1.1380496 2.2191206 L 1.1101444 2.170028 L 1.0879235 2.1230024 L 1.071387 2.0780439 L 1.060535 2.0356693 L 1.0548506 1.9958784 L 1.0543338 1.9591881 L 1.0589847 1.926632 L 1.0672529 1.8976932 L 1.080172 1.8728885 L 1.0967085 1.8527347 L 1.1116946 1.8408491 L 1.1659549 1.8067427 L 1.2636234 1.7395633 L 1.3576745 1.6672163 L 1.4072838 1.6258751 L 1.4233035 1.6155399 L 1.4475915 1.6062381 L 1.47498 1.6015872 L 1.5049523 1.602104 L 1.5375084 1.6083052 L 1.5721317 1.6201907 L 1.6077884 1.6377607 L 1.6449954 1.6610151 L 1.6827192 1.6909875 L 1.7209598 1.7266442 L 1.7586836 1.7685021 L 1.7958906 1.8165612 L 1.8248294 1.8594526 L 1.8749556 1.8935591 L 1.9312829 1.9240482 L 2.0056969 1.9571211 L 2.0501387 1.9736575 L 2.099748 1.9896772 L 2.154525 2.0051802 L 2.2139529 2.0191328 L 2.2790653 2.0310184 L 2.3477949 2.0413537 L 2.4227257 2.0491051 L 2.5023074 2.0542728 L 2.5818891 2.0558231 A 3.3002369 3.3002369 0 0 0 2.7529381 1.8201785 L 2.7265832 1.7447309 L 2.6976444 1.6708336 L 2.6671553 1.602104 L 2.6361494 1.5395755 L 2.60411 1.4816979 L 2.5725874 1.4295047 L 2.5410648 1.3819624 L 2.5105757 1.3395877 L 2.4811201 1.3028974 L 2.4268598 1.2419193 L 2.3803511 1.1979943 L 2.332292 1.1607873 L 2.2826826 1.1468346 L 2.2253218 1.126164 L 2.1736453 1.1034264 L 2.1281701 1.078105 L 2.0883792 1.0512332 L 2.0542728 1.0233279 L 2.0268843 0.99438914 L 2.0046634 0.96545034 L 1.9891605 0.93599478 L 1.9788252 0.90757274 L 1.9746911 0.88018423 L 1.9762414 0.85434601 L 1.981409 0.8357425 L 2.0051802 0.7763146 L 2.044971 0.66469351 L 2.0785607 0.55048859 L 2.0940636 0.48847687 L 2.1007816 0.47039012 L 2.115251 0.44868602 L 2.1343712 0.42904897 L 2.1591759 0.41147899 L 2.1891483 0.39752635 L 2.2242882 0.3866743 L 2.2635623 0.37995636 L 2.3074873 0.37685578 L 2.3555464 0.37840607 L 2.4072228 0.38512401 L 2.4619998 0.39700959 L 2.5203942 0.41406281 L 2.56897 0.4316328 L 2.6294315 0.4300825 L 2.6935102 0.42181427 L 2.7730919 0.40476105 L 2.8185672 0.39184194 L 2.8681766 0.37582225 L 2.9214033 0.35566844 L 2.9777306 0.33189728 L 3.0376753 0.30399201 L 3.0991702 0.27143586 L 3.1642825 0.23371206 L 3.2314619 0.19133739 L 3.297091 0.14534536 A 3.3002369 3.3002369 0 0 0 3.297091 -0.14559295 L 3.2314619 -0.19106821 L 3.1642825 -0.23395965 L 3.0991702 -0.27168345 L 3.0376753 -0.30372284 L 2.9777306 -0.33214487 L 2.9214033 -0.35591603 L 2.8681766 -0.37555308 L 2.8185672 -0.39157277 L 2.7730919 -0.40449188 L 2.6935102 -0.4215451 L 2.6294315 -0.42981333 L 2.56897 -0.43188039 L 2.5203942 -0.41379364 L 2.4619998 -0.39674041 L 2.4072228 -0.3853716 L 2.3555464 -0.37865366 L 2.3074873 -0.37710337 L 2.2635623 -0.37968719 L 2.2242882 -0.38692189 L 2.1891483 -0.39725718 L 2.1591759 -0.41172658 L 2.1343712 -0.4287798 L 2.115251 -0.44841685 L 2.1007816 -0.47063771 L 2.0940636 -0.4882077 L 2.0785607 -0.55073618 L 2.044971 -0.66442433 L 2.0051802 -0.77604543 L 1.981409 -0.83599009 L 1.9762414 -0.85407684 L 1.9746911 -0.88043182 L 1.9788252 -0.90782033 L 1.9891605 -0.93624237 L 2.0046634 -0.96518117 L 2.0268843 -0.99463673 L 2.0542728 -1.0230588 L 2.0883792 -1.0514808 L 2.1281701 -1.0783526 L 2.1736453 -1.1031572 L 2.2253218 -1.1264116 L 2.2826826 -1.1465654 L 2.332292 -1.1610348 L 2.3803511 -1.1977251 L 2.4268598 -1.2416501 L 2.4811201 -1.3026283 L 2.5105757 -1.3398353 L 2.5410648 -1.38221 L 2.5725874 -1.4297523 L 2.60411 -1.4814287 L 2.6361494 -1.5398231 L 2.6671553 -1.6023516 L 2.6976444 -1.6710812 L 2.7265832 -1.7449785 L 2.7529381 -1.8204261 A 3.3002369 3.3002369 0 0 0 2.5818891 -2.0555539 L 2.5023074 -2.0540036 L 2.4227257 -2.0493527 L 2.3477949 -2.0416013 L 2.2790653 -2.031266 L 2.2139529 -2.0188636 L 2.154525 -2.004911 L 2.099748 -1.9899248 L 2.0501387 -1.9739051 L 2.0056969 -1.9573687 L 1.9312829 -1.9242958 L 1.8749556 -1.8932899 L 1.8248294 -1.8591834 L 1.7958906 -1.816292 L 1.7586836 -1.7682329 L 1.7209598 -1.726375 L 1.6827192 -1.6907183 L 1.6449954 -1.6612627 L 1.6077884 -1.6374916 L 1.5721317 -1.6199216 L 1.5375084 -1.6085528 L 1.5049523 -1.6023516 L 1.47498 -1.6018348 L 1.4475915 -1.6059689 L 1.4233035 -1.6157875 L 1.4072838 -1.6261227 L 1.3576745 -1.6669471 L 1.2636234 -1.7392941 L 1.1659549 -1.8064735 L 1.1116946 -1.8405799 L 1.0967085 -1.8529823 L 1.080172 -1.8731361 L 1.0672529 -1.897424 L 1.0589847 -1.9263628 L 1.0543338 -1.9594357 L 1.0548506 -1.9956092 L 1.060535 -2.0354001 L 1.071387 -2.0777748 L 1.0879235 -2.12325 L 1.1101444 -2.1702756 L 1.1380496 -2.2188514 L 1.1726728 -2.2694943 L 1.2041955 -2.3098019 L 1.2212487 -2.3681963 L 1.2331343 -2.4312416 L 1.2419193 -2.5123736 L 1.2434695 -2.5593991 L 1.2434695 -2.6115923 L 1.2408857 -2.6689531 L 1.2357181 -2.7294146 L 1.2274499 -2.7950436 L 1.216081 -2.8637733 L 1.2000613 -2.9371538 L 1.1804243 -3.0141517 L 1.1571699 -3.0906328 A 3.3002369 3.3002369 0 0 0 0.88018423 -3.1805498 L 0.81662222 -3.1324907 L 0.75564403 -3.0818478 L 0.69983348 -3.0317217 L 0.64970734 -2.9826291 L 0.60423208 -2.93457 L 0.56444123 -2.888578 L 0.52930125 -2.8441362 L 0.49829539 -2.8017616 L 0.47194041 -2.7624875 L 0.43111603 -2.6916908 L 0.40372752 -2.6338132 L 0.38357371 -2.5764523 L 0.38512401 -2.5252927 L 0.38357371 -2.4643145 L 0.37737254 -2.4085039 L 0.36755402 -2.3568275 L 0.35463491 -2.3108355 L 0.33809845 -2.2700111 L 0.31949494 -2.2348711 L 0.2983076 -2.2048988 L 0.27556997 -2.1811276 L 0.25179881 -2.1625241 L 0.22699412 -2.1501218 L 0.20167267 -2.1434038 L 0.18255239 -2.1423703 L 0.11847362 -2.1470212 L 0.00013458677 -2.1501218 L -0.11872121 -2.1470212 L -0.18279998 -2.1423703 L -0.2014035 -2.1434038 L -0.22672495 -2.1501218 L -0.25152964 -2.1625241 L -0.27581756 -2.1811276 L -0.29855519 -2.2048988 L -0.31974253 -2.2348711 L -0.33834604 -2.2700111 L -0.35436574 -2.3108355 L -0.36780161 -2.3568275 L -0.37762013 -2.4085039 L -0.38330454 -2.4643145 L -0.3853716 -2.5252927 L -0.38330454 -2.5769691 L -0.40345835 -2.6338132 L -0.43136362 -2.6916908 L -0.472188 -2.7624875 L -0.49854298 -2.8017616 L -0.52903208 -2.8441362 L -0.56468882 -2.888578 L -0.60447967 -2.93457 L -0.64943817 -2.9826291 L -0.69956431 -3.0317217 L -0.75537485 -3.0818478 L -0.81686981 -3.1324907 L -0.88043182 -3.1805498 z M 0.00013458677 -0.99980438 A 1 1 0 0 1 1.0000736 0.00013458677 A 1 1 0 0 1 0.00013458677 1.0000736 A 1 1 0 0 1 -0.99980438 0.00013458677 A 1 1 0 0 1 0.00013458677 -0.99980438 z " />
</svg>
