<?xml version="1.0" encoding="UTF-8" standalone="no"?>
<svg
   viewBox="-4.050095414331006 -4.050095414331006 12.100285065038316 8.100190828662011"
   height="8.100190828662011mm"
   width="12.100285065038316mm"
   version="1.1"
   id="SvgjsSvg1161"
   sodipodi:docname="involute_gear_12_to_8.svg"
   inkscape:version="1.2.1 (9c6d41e410, 2022-07-14)"
   xmlns:inkscape="http://www.inkscape.org/namespaces/inkscape"
   xmlns:sodipodi="http://sodipodi.sourceforge.net/DTD/sodipodi-0.dtd"
   xmlns="http://www.w3.org/2000/svg"
   xmlns:svg="http://www.w3.org/2000/svg">
  <sodipodi:namedview
     id="namedview18"
     pagecolor="#ffffff"
     bordercolor="#000000"
     borderopacity="0.25"
     inkscape:showpageshadow="2"
     inkscape:pageopacity="0.0"
     inkscape:pagecheckerboard="0"
     inkscape:deskcolor="#d1d1d1"
     inkscape:document-units="mm"
     showgrid="false"
     inkscape:zoom="25.804432"
     inkscape:cx="8.9519505"
     inkscape:cy="13.892962"
     inkscape:window-width="1920"
     inkscape:window-height="1001"
     inkscape:window-x="-9"
     inkscape:window-y="-9"
     inkscape:window-maximized="1"
     inkscape:current-layer="SvgjsSvg1161" />
  <desc
     id="desc2">Created with svg.js [http://svgjs.com]</desc>
  <defs
     id="SvgjsDefs1162" />
  <defs
     id="defs5" />
  <path
     id="SvgjsPath1172"
     style="fill:#800000;stroke:none;stroke-width:0.1"
     d="M -0.00021341563 -3.5002582 A 3.5000825 3.5000825 0 0 0 -0.13973978 -3.4971576 L -0.18211446 -3.4320453 L -0.22242207 -3.3643492 L -0.25807881 -3.2971698 L -0.28856791 -3.2346413 L -0.31492289 -3.1741799 L -0.33611023 -3.1188861 L -0.35368021 -3.0661761 L -0.36814961 -3.0176003 L -0.3784849 -2.9747089 L -0.38675313 -2.9344012 L -0.39605489 -2.8703225 L -0.39863871 -2.8243304 L -0.39812194 -2.8015928 L -0.38261901 -2.7421649 L -0.37228373 -2.6868711 L -0.36711608 -2.6357115 L -0.36711608 -2.5886859 L -0.3712502 -2.5463112 L -0.37900166 -2.5091042 L -0.39088724 -2.4770648 L -0.40587341 -2.4507098 L -0.4234434 -2.4300393 L -0.44308044 -2.4150531 L -0.46736836 -2.4052346 L -0.55418477 -2.3866311 L -0.63428324 -2.3664773 L -0.71334818 -2.3437396 L -0.79809753 -2.3163511 L -0.82393575 -2.3127338 L -0.84822367 -2.3158343 L -0.87406189 -2.3251361 L -0.8999001 -2.340639 L -0.92625508 -2.3628599 L -0.9520933 -2.3907652 L -0.97638122 -2.4253884 L -0.99963562 -2.4662128 L -1.020823 -2.5132383 L -1.0399432 -2.5659483 L -1.0559629 -2.6248594 L -1.066815 -2.6450132 L -1.0921364 -2.6837705 L -1.1319273 -2.7344134 L -1.1593158 -2.7654193 L -1.1903217 -2.7974587 L -1.2264952 -2.8325987 L -1.2683531 -2.8687722 L -1.3143451 -2.906496 L -1.3675718 -2.9457701 L -1.4249327 -2.9845274 L -1.4895282 -3.0243182 L -1.5582578 -3.0630756 L -1.6275043 -3.0987323 A 3.5000825 3.5000825 0 0 0 -1.86935 -2.9586892 L -1.8734841 -2.8811745 L -1.8745176 -2.8021096 L -1.8724506 -2.726662 L -1.8672829 -2.6574156 L -1.8600482 -2.5917865 L -1.8507465 -2.5328754 L -1.8398944 -2.4786151 L -1.8274921 -2.4295225 L -1.8156065 -2.3871478 L -1.8021706 -2.347357 L -1.7778827 -2.2874123 L -1.7572121 -2.2465879 L -1.7453265 -2.2269509 L -1.7024351 -2.1835427 L -1.6657448 -2.1406512 L -1.6357725 -2.0987933 L -1.6120013 -2.0584857 L -1.5944314 -2.0197284 L -1.5830625 -1.9835549 L -1.5773781 -1.9499652 L -1.5768614 -1.9194761 L -1.5815122 -1.8926044 L -1.590814 -1.8698667 L -1.6073505 -1.8491962 L -1.6734963 -1.7897683 L -1.7324074 -1.7324074 L -1.7897683 -1.6734963 L -1.8491962 -1.6073505 L -1.8698667 -1.590814 L -1.8926044 -1.5815122 L -1.9194761 -1.5768614 L -1.9499652 -1.5773781 L -1.9835549 -1.5830625 L -2.0197284 -1.5944314 L -2.0584857 -1.6120013 L -2.0987933 -1.6357725 L -2.1406512 -1.6657448 L -2.1835427 -1.7024351 L -2.2269509 -1.7453265 L -2.2465879 -1.7572121 L -2.2874123 -1.7778827 L -2.347357 -1.8021706 L -2.3871478 -1.8156065 L -2.4295225 -1.8274921 L -2.4786151 -1.8398944 L -2.5328754 -1.8507465 L -2.5917865 -1.8600482 L -2.6574156 -1.8672829 L -2.726662 -1.8724506 L -2.8021096 -1.8745176 L -2.8811745 -1.8734841 L -2.9586892 -1.86935 A 3.5000825 3.5000825 0 0 0 -3.0987323 -1.6275043 L -3.0630756 -1.5582578 L -3.0243182 -1.4895282 L -2.9845274 -1.4249327 L -2.9457701 -1.3675718 L -2.906496 -1.3143451 L -2.8687722 -1.2683531 L -2.8325987 -1.2264952 L -2.7974587 -1.1903217 L -2.7654193 -1.1593158 L -2.7344134 -1.1319273 L -2.6837705 -1.0921364 L -2.6450132 -1.066815 L -2.6248594 -1.0559629 L -2.5659483 -1.0399432 L -2.5132383 -1.020823 L -2.4662128 -0.99963562 L -2.4253884 -0.97638122 L -2.3907652 -0.9520933 L -2.3628599 -0.92625508 L -2.340639 -0.8999001 L -2.3251361 -0.87406189 L -2.3158343 -0.84822367 L -2.3127338 -0.82393575 L -2.3163511 -0.79809753 L -2.3437396 -0.71334818 L -2.3664773 -0.63428324 L -2.3866311 -0.55418477 L -2.4052346 -0.46736836 L -2.4150531 -0.44308044 L -2.4300393 -0.4234434 L -2.4507098 -0.40587341 L -2.4770648 -0.39088724 L -2.5091042 -0.37900166 L -2.5463112 -0.3712502 L -2.5886859 -0.36711608 L -2.6357115 -0.36711608 L -2.6868711 -0.37228373 L -2.7421649 -0.38261901 L -2.8015928 -0.39812194 L -2.8243304 -0.39863871 L -2.8703225 -0.39605489 L -2.9344012 -0.38675313 L -2.9747089 -0.3784849 L -3.0176003 -0.36814961 L -3.0661761 -0.35368021 L -3.1188861 -0.33611023 L -3.1741799 -0.31492289 L -3.2346413 -0.28856791 L -3.2971698 -0.25807881 L -3.3643492 -0.22242207 L -3.4320453 -0.18211446 L -3.4971576 -0.13973978 A 3.5000825 3.5000825 0 0 0 -3.4971576 0.13982972 L -3.4320453 0.18220439 L -3.3643492 0.22251201 L -3.2971698 0.25816875 L -3.2346413 0.28865784 L -3.1741799 0.31501282 L -3.1188861 0.33620016 L -3.0661761 0.35377015 L -3.0176003 0.36823955 L -2.9747089 0.37857483 L -2.9344012 0.38684306 L -2.8703225 0.39614482 L -2.8243304 0.39872864 L -2.8015928 0.39821188 L -2.7421649 0.38219218 L -2.6868711 0.37237366 L -2.6357115 0.36720602 L -2.5886859 0.36720602 L -2.5463112 0.37134013 L -2.5091042 0.3790916 L -2.4770648 0.39097718 L -2.4507098 0.40544658 L -2.4300393 0.42301656 L -2.4150531 0.44317037 L -2.4052346 0.4674583 L -2.3866311 0.5542747 L -2.3664773 0.63437317 L -2.3437396 0.71292135 L -2.3163511 0.7976707 L -2.3127338 0.82402568 L -2.3158343 0.8483136 L -2.3251361 0.87415182 L -2.340639 0.89999003 L -2.3628599 0.92634502 L -2.3907652 0.95166647 L -2.4253884 0.97647115 L -2.4662128 0.99972555 L -2.5132383 1.0209129 L -2.5659483 1.0400332 L -2.6248594 1.0560529 L -2.6450132 1.0669049 L -2.6837705 1.0922264 L -2.7344134 1.1320172 L -2.7654193 1.1594057 L -2.7974587 1.1898948 L -2.8325987 1.2265851 L -2.8687722 1.2679262 L -2.906496 1.314435 L -2.9457701 1.3676617 L -2.9845274 1.4250226 L -3.0243182 1.4896181 L -3.0630756 1.5583478 L -3.0987323 1.6275942 A 3.5000825 3.5000825 0 0 0 -2.9586892 1.8694399 L -2.8811745 1.873574 L -2.8021096 1.8746075 L -2.726662 1.8725405 L -2.6574156 1.8673728 L -2.5917865 1.8596214 L -2.5328754 1.8503196 L -2.4786151 1.8394676 L -2.4295225 1.827582 L -2.3871478 1.8151797 L -2.347357 1.8022605 L -2.2874123 1.7779726 L -2.2465879 1.757302 L -2.2269509 1.7454165 L -2.1835427 1.7020083 L -2.1406512 1.6658348 L -2.0987933 1.6358624 L -2.0584857 1.6120913 L -2.0197284 1.5945213 L -1.9835549 1.5831525 L -1.9499652 1.5769513 L -1.9194761 1.5769513 L -1.8926044 1.5816022 L -1.8698667 1.5909039 L -1.8491962 1.6074404 L -1.7897683 1.6735862 L -1.7324074 1.7324974 L -1.6734963 1.7893414 L -1.6073505 1.8492861 L -1.590814 1.8699567 L -1.5815122 1.8926943 L -1.5768614 1.919566 L -1.5773781 1.9500551 L -1.5830625 1.9836448 L -1.5944314 2.0198183 L -1.6120013 2.0585756 L -1.6357725 2.0988833 L -1.6657448 2.1407412 L -1.7024351 2.1836326 L -1.7453265 2.2270408 L -1.7572121 2.2466779 L -1.7778827 2.2875022 L -1.8021706 2.3474469 L -1.8156065 2.386721 L -1.8274921 2.4290957 L -1.8398944 2.478705 L -1.8507465 2.5324485 L -1.8600482 2.5918764 L -1.8672829 2.6569887 L -1.8724506 2.7267519 L -1.8745176 2.8021995 L -1.8734841 2.8812644 L -1.86935 2.9587791 A 3.5000825 3.5000825 0 0 0 -1.6275043 3.0983055 L -1.5582578 3.0631655 L -1.4895282 3.0244082 L -1.4249327 2.9846173 L -1.3675718 2.94586 L -1.3143451 2.9065859 L -1.2683531 2.8688621 L -1.2264952 2.8326886 L -1.1903217 2.7975486 L -1.1593158 2.7655092 L -1.1319273 2.7345034 L -1.0921364 2.6833437 L -1.066815 2.6451032 L -1.0559629 2.6249493 L -1.0399432 2.5660382 L -1.020823 2.5128115 L -0.99963562 2.4663027 L -0.97638122 2.4254783 L -0.9520933 2.3908551 L -0.92625508 2.3624331 L -0.8999001 2.340729 L -0.87406189 2.325226 L -0.84822367 2.3159243 L -0.82393575 2.3128237 L -0.79809753 2.316441 L -0.71334818 2.3438296 L -0.63428324 2.3665672 L -0.55418477 2.386721 L -0.46736836 2.4053245 L -0.44308044 2.415143 L -0.4234434 2.4301292 L -0.40587341 2.4507998 L -0.39088724 2.4771547 L -0.37900166 2.5091941 L -0.3712502 2.5464012 L -0.36711608 2.5887758 L -0.36711608 2.6358014 L -0.37228373 2.6869611 L -0.38261901 2.7422548 L -0.39812194 2.801166 L -0.39863871 2.8239036 L -0.39605489 2.8698956 L -0.38675313 2.9339744 L -0.3784849 2.9747988 L -0.36814961 3.0176902 L -0.35368021 3.0662661 L -0.33611023 3.1184593 L -0.31492289 3.1742698 L -0.28856791 3.2347312 L -0.25807881 3.2972597 L -0.22242207 3.3639223 L -0.18211446 3.4321352 L -0.13973978 3.4972475 A 3.5000825 3.5000825 0 0 0 0.13982972 3.4972475 L 0.18220439 3.4321352 L 0.22251201 3.3639223 L 0.25816875 3.2972597 L 0.28865784 3.2347312 L 0.31501282 3.1742698 L 0.33620016 3.1184593 L 0.35377015 3.0662661 L 0.36823955 3.0176902 L 0.37857483 2.9747988 L 0.38684306 2.9339744 L 0.39614482 2.8698956 L 0.39872864 2.8239036 L 0.39821188 2.801166 L 0.38219218 2.7422548 L 0.37237366 2.6869611 L 0.36720602 2.6358014 L 0.36720602 2.5887758 L 0.37134013 2.5464012 L 0.3790916 2.5091941 L 0.39097718 2.4771547 L 0.40544658 2.4507998 L 0.42301656 2.4301292 L 0.44317037 2.415143 L 0.4674583 2.4053245 L 0.5542747 2.386721 L 0.63437317 2.3665672 L 0.71292135 2.3438296 L 0.7976707 2.316441 L 0.82402568 2.3128237 L 0.8483136 2.3159243 L 0.87415182 2.325226 L 0.89999003 2.340729 L 0.92634502 2.3624331 L 0.95166647 2.3908551 L 0.97647115 2.4254783 L 0.99972555 2.4663027 L 1.0209129 2.5128115 L 1.0400332 2.5660382 L 1.0560529 2.6249493 L 1.0669049 2.6451032 L 1.0922264 2.6833437 L 1.1320172 2.7345034 L 1.1594057 2.7655092 L 1.1898948 2.7975486 L 1.2265851 2.8326886 L 1.2679262 2.8688621 L 1.314435 2.9065859 L 1.3676617 2.94586 L 1.4250226 2.9846173 L 1.4896181 3.0244082 L 1.5583478 3.0631655 L 1.6275942 3.0983055 A 3.5000825 3.5000825 0 0 0 1.8694399 2.9587791 L 1.873574 2.8812644 L 1.8746075 2.8021995 L 1.8725405 2.7267519 L 1.8673728 2.6569887 L 1.8596214 2.5918764 L 1.8503196 2.5324485 L 1.8394676 2.478705 L 1.827582 2.4290957 L 1.8151797 2.386721 L 1.8022605 2.3474469 L 1.7779726 2.2875022 L 1.757302 2.2466779 L 1.7454165 2.2270408 L 1.7020083 2.1836326 L 1.6658348 2.1407412 L 1.6358624 2.0988833 L 1.6120913 2.0585756 L 1.5945213 2.0198183 L 1.5831525 1.9836448 L 1.5769513 1.9500551 L 1.5769513 1.919566 L 1.5816022 1.8926943 L 1.5909039 1.8699567 L 1.6074404 1.8492861 L 1.6735862 1.7893414 L 1.7324974 1.7324974 L 1.7893414 1.6735862 L 1.8492861 1.6074404 L 1.8699567 1.5909039 L 1.8926943 1.5816022 L 1.919566 1.5769513 L 1.9500551 1.5769513 L 1.9836448 1.5831525 L 2.0198183 1.5945213 L 2.0585756 1.6120913 L 2.0988833 1.6358624 L 2.1407412 1.6658348 L 2.1836326 1.7020083 L 2.2270408 1.7454165 L 2.2466779 1.757302 L 2.2875022 1.7779726 L 2.3474469 1.8022605 L 2.386721 1.8151797 L 2.4290957 1.827582 L 2.478705 1.8394676 L 2.5324485 1.8503196 L 2.5918764 1.8596214 L 2.6569887 1.8673728 L 2.7267519 1.8725405 L 2.8021995 1.8746075 L 2.8812644 1.873574 L 2.9587791 1.8694399 A 3.5000825 3.5000825 0 0 0 3.0983055 1.6275942 L 3.0631655 1.5583478 L 3.0244082 1.4896181 L 2.9846173 1.4250226 L 2.94586 1.3676617 L 2.9065859 1.314435 L 2.8688621 1.2679262 L 2.8326886 1.2265851 L 2.7975486 1.1898948 L 2.7655092 1.1594057 L 2.7345034 1.1320172 L 2.6833437 1.0922264 L 2.6451032 1.0669049 L 2.6249493 1.0560529 L 2.5660382 1.0400332 L 2.5128115 1.0209129 L 2.4663027 0.99972555 L 2.4254783 0.97647115 L 2.3908551 0.95166647 L 2.3629498 0.92634502 L 2.340729 0.89999003 L 2.325226 0.87415182 L 2.3159243 0.8483136 L 2.3128237 0.82402568 L 2.316441 0.7976707 L 2.3438296 0.71292135 L 2.3665672 0.63437317 L 2.386721 0.5542747 L 2.4053245 0.4674583 L 2.415143 0.44317037 L 2.4301292 0.42301656 L 2.4507998 0.40544658 L 2.4771547 0.39097718 L 2.5091941 0.3790916 L 2.5464012 0.37134013 L 2.5887758 0.36720602 L 2.6358014 0.36720602 L 2.6869611 0.37237366 L 2.7422548 0.38219218 L 2.801166 0.39821188 L 2.8239036 0.39872864 L 2.8698956 0.39614482 L 2.9339744 0.38684306 L 2.9747988 0.37857483 L 3.0176902 0.36823955 L 3.0662661 0.35377015 L 3.1184593 0.33620016 L 3.1742698 0.31501282 L 3.2347312 0.28865784 L 3.2972597 0.25816875 L 3.3639223 0.22251201 L 3.4321352 0.18220439 L 3.4972475 0.13982972 A 3.5000825 3.5000825 0 0 0 3.4972475 -0.13973978 L 3.4321352 -0.18211446 L 3.3639223 -0.22242207 L 3.2972597 -0.25807881 L 3.2347312 -0.28856791 L 3.1742698 -0.31492289 L 3.1184593 -0.33611023 L 3.0662661 -0.35368021 L 3.0176902 -0.36814961 L 2.9747988 -0.3784849 L 2.9339744 -0.38675313 L 2.8698956 -0.39605489 L 2.8239036 -0.39863871 L 2.801166 -0.39812194 L 2.7422548 -0.38261901 L 2.6869611 -0.37228373 L 2.6358014 -0.36711608 L 2.5887758 -0.36711608 L 2.5464012 -0.3712502 L 2.5091941 -0.37900166 L 2.4771547 -0.39088724 L 2.4507998 -0.40587341 L 2.4301292 -0.4234434 L 2.415143 -0.44308044 L 2.4053245 -0.46736836 L 2.386721 -0.55418477 L 2.3665672 -0.63428324 L 2.3438296 -0.71334818 L 2.316441 -0.79809753 L 2.3128237 -0.82393575 L 2.3159243 -0.84822367 L 2.325226 -0.87406189 L 2.340729 -0.8999001 L 2.3629498 -0.92625508 L 2.3908551 -0.9520933 L 2.4254783 -0.97638122 L 2.4663027 -0.99963562 L 2.5128115 -1.020823 L 2.5660382 -1.0399432 L 2.6249493 -1.0559629 L 2.6451032 -1.066815 L 2.6833437 -1.0921364 L 2.7345034 -1.1319273 L 2.7655092 -1.1593158 L 2.7975486 -1.1903217 L 2.8326886 -1.2264952 L 2.8688621 -1.2683531 L 2.9065859 -1.3143451 L 2.94586 -1.3675718 L 2.9846173 -1.4249327 L 3.0244082 -1.4895282 L 3.0631655 -1.5582578 L 3.0983055 -1.6275043 A 3.5000825 3.5000825 0 0 0 2.9587791 -1.86935 L 2.8812644 -1.8734841 L 2.8021995 -1.8745176 L 2.7267519 -1.8724506 L 2.6569887 -1.8672829 L 2.5918764 -1.8600482 L 2.5324485 -1.8507465 L 2.478705 -1.8398944 L 2.4290957 -1.8274921 L 2.386721 -1.8156065 L 2.3474469 -1.8021706 L 2.2875022 -1.7778827 L 2.2466779 -1.7572121 L 2.2270408 -1.7453265 L 2.1836326 -1.7024351 L 2.1407412 -1.6657448 L 2.0988833 -1.6357725 L 2.0585756 -1.6120013 L 2.0198183 -1.5944314 L 1.9836448 -1.5830625 L 1.9500551 -1.5773781 L 1.919566 -1.5768614 L 1.8926943 -1.5815122 L 1.8699567 -1.590814 L 1.8492861 -1.6073505 L 1.7893414 -1.6734963 L 1.7324974 -1.7324074 L 1.6735862 -1.7897683 L 1.6074404 -1.8491962 L 1.5909039 -1.8698667 L 1.5816022 -1.8926044 L 1.5769513 -1.9194761 L 1.5769513 -1.9499652 L 1.5831525 -1.9835549 L 1.5945213 -2.0197284 L 1.6120913 -2.0584857 L 1.6358624 -2.0987933 L 1.6658348 -2.1406512 L 1.7020083 -2.1835427 L 1.7454165 -2.2269509 L 1.757302 -2.2465879 L 1.7779726 -2.2874123 L 1.8022605 -2.347357 L 1.8151797 -2.3871478 L 1.827582 -2.4295225 L 1.8394676 -2.4786151 L 1.8503196 -2.5328754 L 1.8596214 -2.5917865 L 1.8673728 -2.6574156 L 1.8725405 -2.726662 L 1.8746075 -2.8021096 L 1.873574 -2.8811745 L 1.8694399 -2.9586892 A 3.5000825 3.5000825 0 0 0 1.6275942 -3.0987323 L 1.5583478 -3.0630756 L 1.4896181 -3.0243182 L 1.4250226 -2.9845274 L 1.3676617 -2.9457701 L 1.314435 -2.906496 L 1.2679262 -2.8687722 L 1.2265851 -2.8325987 L 1.1898948 -2.7974587 L 1.1594057 -2.7654193 L 1.1320172 -2.7344134 L 1.0922264 -2.6837705 L 1.0669049 -2.6450132 L 1.0560529 -2.6248594 L 1.0400332 -2.5659483 L 1.0209129 -2.5132383 L 0.99972555 -2.4662128 L 0.97647115 -2.4253884 L 0.95166647 -2.3907652 L 0.92634502 -2.3628599 L 0.89999003 -2.340639 L 0.87415182 -2.3251361 L 0.8483136 -2.3158343 L 0.82402568 -2.3127338 L 0.7976707 -2.3163511 L 0.71292135 -2.3437396 L 0.63437317 -2.3664773 L 0.5542747 -2.3866311 L 0.4674583 -2.4052346 L 0.44317037 -2.4150531 L 0.42301656 -2.4300393 L 0.40544658 -2.4507098 L 0.39097718 -2.4770648 L 0.3790916 -2.5091042 L 0.37134013 -2.5463112 L 0.36720602 -2.5886859 L 0.36720602 -2.6357115 L 0.37237366 -2.6868711 L 0.38219218 -2.7421649 L 0.39821188 -2.8015928 L 0.39872864 -2.8243304 L 0.39614482 -2.8703225 L 0.38684306 -2.9344012 L 0.37857483 -2.9747089 L 0.36823955 -3.0176003 L 0.35377015 -3.0661761 L 0.33620016 -3.1188861 L 0.31501282 -3.1741799 L 0.28865784 -3.2346413 L 0.25816875 -3.2971698 L 0.22251201 -3.3643492 L 0.18220439 -3.4320453 L 0.13982972 -3.4971576 A 3.5000825 3.5000825 0 0 0 -0.00021341563 -3.5002582 z M -0.00021341563 -1.3500018 A 1.35 1.35 0 0 1 1.3500918 -0.00021341563 A 1.35 1.35 0 0 1 -0.00021341563 1.3500918 A 1.35 1.35 0 0 1 -1.3500018 -0.00021341563 A 1.35 1.35 0 0 1 -0.00021341563 -1.3500018 z " />
</svg>
