<?xml version="1.0" encoding="UTF-8" standalone="no"?>
<svg
   viewBox="-8.999257102188132 -8.999257102188132 21.998184027570986 17.998514204376264"
   height="17.998514204376264mm"
   width="21.998184027570986mm"
   version="1.1"
   id="SvgjsSvg1135"
   sodipodi:docname="involute_gear_30_to_8.svg"
   inkscape:version="1.2.1 (9c6d41e410, 2022-07-14)"
   xmlns:inkscape="http://www.inkscape.org/namespaces/inkscape"
   xmlns:sodipodi="http://sodipodi.sourceforge.net/DTD/sodipodi-0.dtd"
   xmlns="http://www.w3.org/2000/svg"
   xmlns:svg="http://www.w3.org/2000/svg">
  <sodipodi:namedview
     id="namedview18"
     pagecolor="#ffffff"
     bordercolor="#000000"
     borderopacity="0.25"
     inkscape:showpageshadow="2"
     inkscape:pageopacity="0.0"
     inkscape:pagecheckerboard="0"
     inkscape:deskcolor="#d1d1d1"
     inkscape:document-units="mm"
     showgrid="false"
     inkscape:zoom="11.613227"
     inkscape:cx="32.893527"
     inkscape:cy="34.055995"
     inkscape:window-width="1920"
     inkscape:window-height="1001"
     inkscape:window-x="-9"
     inkscape:window-y="-9"
     inkscape:window-maximized="1"
     inkscape:current-layer="SvgjsSvg1135" />
  <desc
     id="desc2">Created with svg.js [http://svgjs.com]</desc>
  <defs
     id="SvgjsDefs1136" />
  <defs
     id="defs5" />
  <path
     id="SvgjsPath1146"
     style="fill:#800000;stroke:none;stroke-width:0.1"
     d="M -0.66694916 -7.9714129 A 7.9993396 7.9993396 0 0 0 -1.0054298 -7.9357561 L -1.0323015 -7.8634091 L -1.0788103 -7.7259498 L -1.1160174 -7.5977923 L -1.1449562 -7.4794532 L -1.167177 -7.3719662 L -1.1821632 -7.2768816 L -1.1919817 -7.192649 L -1.1976661 -7.120302 L -1.1992164 -7.0624244 L -1.1986996 -6.9838762 L -1.1997332 -6.9539039 L -1.2028338 -6.9275489 L -1.2074846 -6.9042945 L -1.213169 -6.8841407 L -1.2204037 -6.8676043 L -1.2291887 -6.8541684 L -1.2384905 -6.8438331 L -1.2488258 -6.8376319 L -1.2545102 -6.8355649 L -1.2855161 -6.8293637 L -1.4446795 -6.7973243 L -1.6038429 -6.7616676 L -1.634332 -6.7544329 L -1.6400164 -6.7544329 L -1.6524187 -6.7559832 L -1.6648211 -6.7611508 L -1.6782569 -6.7704526 L -1.6916928 -6.7823382 L -1.7051287 -6.7983579 L -1.7190813 -6.8179949 L -1.7325172 -6.8407325 L -1.7454363 -6.8676043 L -1.7769589 -6.9394345 L -1.8022804 -6.9916277 L -1.8369036 -7.0557065 L -1.879795 -7.1285703 L -1.932505 -7.2091855 L -1.996067 -7.2985857 L -2.0709978 -7.3947039 L -2.1567807 -7.4965065 L -2.2554827 -7.6034767 L -2.3097429 -7.6587704 A 7.9993396 7.9993396 0 0 0 -2.6332374 -7.5533505 L -2.6446062 -7.4768694 L -2.6611427 -7.3326922 L -2.671478 -7.1998837 L -2.6750953 -7.0779273 L -2.6740618 -6.9683733 L -2.6694109 -6.8722551 L -2.6616594 -6.7880226 L -2.6518409 -6.7156756 L -2.6415056 -6.6583147 L -2.6244524 -6.5818336 L -2.6192848 -6.5528948 L -2.6167009 -6.5260231 L -2.6161842 -6.5022519 L -2.6182512 -6.4815813 L -2.6218686 -6.4634946 L -2.6270362 -6.4490252 L -2.6342709 -6.4371396 L -2.6430559 -6.4283546 L -2.6482236 -6.425254 L -2.6771624 -6.4128517 L -2.8265073 -6.3487729 L -2.9743019 -6.28056 L -3.0032407 -6.2671241 L -3.0084083 -6.2655738 L -3.0208107 -6.2650571 L -3.0342465 -6.2676409 L -3.0492327 -6.2733253 L -3.0647356 -6.2826271 L -3.0812721 -6.2955462 L -3.0988421 -6.3115659 L -3.1169288 -6.3312029 L -3.1355323 -6.3544573 L -3.1810076 -6.4185361 L -3.2166643 -6.4645281 L -3.2636899 -6.5198219 L -3.3210507 -6.5823504 L -3.3887468 -6.6500465 L -3.4698788 -6.7244606 L -3.5628964 -6.802492 L -3.6683163 -6.8841407 L -3.7866554 -6.9683733 L -3.8512509 -7.0112648 A 7.9993396 7.9993396 0 0 0 -4.1463233 -6.8407325 L -4.1411557 -6.7637346 L -4.1277198 -6.6190406 L -4.1096331 -6.486749 L -4.0884457 -6.3673764 L -4.0646746 -6.2598894 L -4.0398699 -6.1673886 L -4.0145484 -6.0862566 L -3.9902605 -6.017527 L -3.9680397 -5.9637835 L -3.9354835 -5.89247 L -3.9246315 -5.8650815 L -3.9163632 -5.8392433 L -3.9111956 -5.8165056 L -3.9086118 -5.7953183 L -3.908095 -5.7772315 L -3.9106788 -5.7617286 L -3.9153297 -5.7488095 L -3.9220476 -5.7384742 L -3.9261817 -5.7343401 L -3.95202 -5.7162534 L -4.0848284 -5.6222023 L -4.2155698 -5.5250506 L -4.2403745 -5.5059303 L -4.2455421 -5.5033465 L -4.2574277 -5.4997291 L -4.2713803 -5.4997291 L -4.2868832 -5.5023129 L -4.3039365 -5.5079973 L -4.3230567 -5.5172991 L -4.3432106 -5.5291847 L -4.3649147 -5.5446876 L -4.388169 -5.5638079 L -4.4455299 -5.6170346 L -4.4904884 -5.6542416 L -4.5478492 -5.6986834 L -4.6170956 -5.747776 L -4.6977109 -5.7999692 L -4.7922787 -5.8557797 L -4.8997657 -5.9131406 L -5.0196551 -5.9710182 L -5.1529802 -6.0288958 L -5.2248105 -6.0573178 A 7.9993396 7.9993396 0 0 0 -5.478025 -5.8294247 L -5.4568377 -5.7550107 L -5.4139462 -5.6165178 L -5.3689877 -5.4909441 L -5.3229957 -5.3777727 L -5.2775204 -5.2780372 L -5.2335955 -5.1922543 L -5.1922543 -5.118357 L -5.1540138 -5.0568621 L -5.1214576 -5.0082862 L -5.0744321 -4.945241 L -5.0584124 -4.9209531 L -5.0449765 -4.8976987 L -5.035158 -4.8759946 L -5.0279233 -4.8563575 L -5.0243059 -4.8382708 L -5.0232724 -4.8227678 L -5.0248227 -4.8088152 L -5.0294736 -4.7974464 L -5.0325742 -4.7927955 L -5.0542783 -4.7695411 L -5.1643491 -4.6501686 L -5.271836 -4.5276954 L -5.2925066 -4.5039243 L -5.2971575 -4.5003069 L -5.3080095 -4.4946225 L -5.3214454 -4.4915219 L -5.3369483 -4.4910051 L -5.3555519 -4.4930722 L -5.3757057 -4.4977231 L -5.3979265 -4.5054746 L -5.4227312 -4.5163266 L -5.4485694 -4.5297625 L -5.5162656 -4.5695533 L -5.567942 -4.5974586 L -5.6330543 -4.6289812 L -5.7110857 -4.6625709 L -5.8010027 -4.6966773 L -5.9048723 -4.7313006 L -6.0216611 -4.765407 L -6.1513689 -4.7969296 L -6.2939959 -4.8253517 L -6.3699602 -4.8382708 A 7.9993396 7.9993396 0 0 0 -6.569948 -4.5633522 L -6.5342913 -4.4946225 L -6.4629778 -4.3680152 L -6.3932146 -4.2543271 L -6.324485 -4.153558 L -6.2593727 -4.0657081 L -6.1989112 -3.9907773 L -6.1431007 -3.9272153 L -6.0929746 -3.8745053 L -6.0505999 -3.8341977 L -5.9916887 -3.7825213 L -5.9705014 -3.7613339 L -5.9529314 -3.7416969 L -5.9389788 -3.7225766 L -5.92761 -3.7050066 L -5.9203753 -3.6879534 L -5.9157244 -3.6729672 L -5.9146909 -3.6590146 L -5.9167579 -3.647129 L -5.918825 -3.6414446 L -5.9353614 -3.6145729 L -6.0185605 -3.4745297 L -6.0981422 -3.3329363 L -6.1131284 -3.305031 L -6.1167457 -3.3003801 L -6.1265642 -3.2926287 L -6.1389666 -3.2869443 L -6.1544695 -3.2828102 L -6.1725563 -3.2812599 L -6.1932268 -3.2817766 L -6.216998 -3.2848772 L -6.2428362 -3.2900449 L -6.271775 -3.2977963 L -6.3461891 -3.3231178 L -6.4019996 -3.3391375 L -6.4722796 -3.3561907 L -6.5554786 -3.3732439 L -6.6505633 -3.3877133 L -6.7596005 -3.4006324 L -6.8810401 -3.4094174 L -7.0143653 -3.4130348 L -7.1595761 -3.4114845 L -7.2370908 -3.4083839 A 7.9993396 7.9993396 0 0 0 -7.3750668 -3.0972918 L -7.3259742 -3.0378639 L -7.2298561 -2.9288266 L -7.137872 -2.8321917 L -7.0500221 -2.7479591 L -6.9678565 -2.6750953 L -6.8934425 -2.6146339 L -6.8252296 -2.563991 L -6.7652849 -2.5231666 L -6.7156756 -2.4921607 L -6.6474627 -2.4539202 L -6.6221412 -2.4379005 L -6.6009539 -2.4223976 L -6.5828671 -2.4063779 L -6.5683977 -2.3913917 L -6.5575457 -2.3769223 L -6.550311 -2.3624529 L -6.5461769 -2.3495338 L -6.5456601 -2.3371315 L -6.5466936 -2.331447 L -6.5570289 -2.3014747 L -6.6092221 -2.1474789 L -6.657798 -1.9919329 L -6.6670997 -1.9619606 L -6.6696835 -1.9567929 L -6.6769182 -1.9469744 L -6.6882871 -1.9387062 L -6.7022397 -1.9319882 L -6.7198097 -1.9263038 L -6.7404802 -1.9221697 L -6.7637346 -1.9201026 L -6.7906064 -1.9201026 L -6.820062 -1.9221697 L -6.8980934 -1.9309547 L -6.9564877 -1.9350888 L -7.0288347 -1.9371559 L -7.1135841 -1.9361223 L -7.2097023 -1.9314715 L -7.3187395 -1.9206194 L -7.4396624 -1.9040829 L -7.5709205 -1.8803118 L -7.7125139 -1.8482724 L -7.7874448 -1.8291521 A 7.9993396 7.9993396 0 0 0 -7.8582415 -1.4963559 L -7.7972633 -1.4482968 L -7.6809913 -1.3614804 L -7.5709205 -1.2865496 L -7.4675676 -1.221954 L -7.3719662 -1.1682106 L -7.2861834 -1.1242856 L -7.2091855 -1.0891456 L -7.1420061 -1.0612403 L -7.0872291 -1.0416033 L -7.0122983 -1.0183489 L -6.984393 -1.0080136 L -6.9601051 -0.9966448 L -6.9394345 -0.98527598 L -6.9223813 -0.9733904 L -6.9084287 -0.96150482 L -6.8986101 -0.94910248 L -6.8918922 -0.9372169 L -6.8887916 -0.92533132 L -6.8882748 -0.91913015 L -6.892409 -0.88812429 L -6.9115292 -0.72637706 L -6.9265154 -0.56411306 L -6.9290992 -0.5331072 L -6.9306495 -0.52742279 L -6.9358172 -0.51605398 L -6.9451189 -0.50571869 L -6.9575213 -0.49590017 L -6.973541 -0.48711518 L -6.9926612 -0.47884695 L -7.0153989 -0.47212901 L -7.0412371 -0.4664446 L -7.0706926 -0.46179372 L -7.1487241 -0.45455902 L -7.2066017 -0.44680756 L -7.2779151 -0.43388845 L -7.3611142 -0.41528493 L -7.453615 -0.38996348 L -7.5585182 -0.35689057 L -7.6727231 -0.31554942 L -7.7962298 -0.26490652 L -7.9280047 -0.20444509 L -7.9977678 -0.17033865 A 7.9993396 7.9993396 0 0 0 -7.9977678 0.17020904 L -7.9280047 0.20483225 L -7.7962298 0.26529368 L -7.6727231 0.31593658 L -7.5585182 0.35727773 L -7.453615 0.38983388 L -7.3611142 0.41515533 L -7.2779151 0.43375885 L -7.2066017 0.44667796 L -7.1487241 0.45442942 L -7.0706926 0.46218089 L -7.0412371 0.466315 L -7.0153989 0.47199941 L -6.9926612 0.47923411 L -6.973541 0.48698557 L -6.9575213 0.49628733 L -6.9451189 0.50558909 L -6.9358172 0.51644114 L -6.9306495 0.52729319 L -6.9290992 0.5329776 L -6.9265154 0.56450022 L -6.9115292 0.72624746 L -6.892409 0.88799469 L -6.8882748 0.91951731 L -6.8887916 0.92520172 L -6.8918922 0.9370873 L -6.8986101 0.94897288 L -6.9084287 0.96137522 L -6.9223813 0.9732608 L -6.9394345 0.98514638 L -6.9601051 0.99703196 L -6.984393 1.007884 L -7.0122983 1.0182193 L -7.0872291 1.0414737 L -7.1420061 1.0616275 L -7.2091855 1.089016 L -7.2861834 1.1246727 L -7.3719662 1.168081 L -7.4675676 1.2223412 L -7.5709205 1.28642 L -7.6809913 1.3613508 L -7.7972633 1.4481672 L -7.8582415 1.4962263 A 7.9993396 7.9993396 0 0 0 -7.7874448 1.8290225 L -7.7125139 1.8486596 L -7.5709205 1.8801822 L -7.4396624 1.9039533 L -7.3187395 1.9210066 L -7.2097023 1.9313419 L -7.1135841 1.9365095 L -7.0288347 1.937543 L -6.9564877 1.9349592 L -6.8980934 1.9308251 L -6.820062 1.9220401 L -6.7906064 1.919973 L -6.7637346 1.9204898 L -6.7404802 1.9225569 L -6.7198097 1.9261742 L -6.7022397 1.9318586 L -6.6882871 1.9385766 L -6.6769182 1.9473616 L -6.6696835 1.9566633 L -6.6670997 1.961831 L -6.657798 1.99232 L -6.6092221 2.1473493 L -6.5570289 2.3018619 L -6.5466936 2.3313174 L -6.5456601 2.3370018 L -6.5461769 2.3494042 L -6.550311 2.3628401 L -6.5575457 2.3767927 L -6.5683977 2.3912621 L -6.5828671 2.406765 L -6.6009539 2.422268 L -6.6221412 2.4377709 L -6.6474627 2.4537906 L -6.7156756 2.4925479 L -6.7652849 2.523037 L -6.8252296 2.5643782 L -6.8934425 2.6150211 L -6.9678565 2.6754825 L -7.0500221 2.7478295 L -7.137872 2.8325788 L -7.2298561 2.928697 L -7.3259742 3.0377343 L -7.3750668 3.0976789 A 7.9993396 7.9993396 0 0 0 -7.2370908 3.4082543 L -7.1595761 3.4118716 L -7.0143653 3.4134219 L -6.8810401 3.4092878 L -6.7596005 3.4005028 L -6.6505633 3.3881005 L -6.5554786 3.3731143 L -6.4722796 3.3565779 L -6.4019996 3.3390079 L -6.3461891 3.3229882 L -6.271775 3.2981835 L -6.2428362 3.2899153 L -6.216998 3.2847476 L -6.1932268 3.281647 L -6.1725563 3.2811303 L -6.1544695 3.2831973 L -6.1389666 3.2868147 L -6.1265642 3.2930158 L -6.1167457 3.3007673 L -6.1131284 3.3054182 L -6.0981422 3.3328067 L -6.0185605 3.4749169 L -5.9353614 3.61496 L -5.918825 3.6418318 L -5.9167579 3.6469994 L -5.9146909 3.6594018 L -5.9157244 3.6728376 L -5.9203753 3.6883406 L -5.92761 3.704877 L -5.9389788 3.722447 L -5.9529314 3.7415673 L -5.9705014 3.7617211 L -5.9916887 3.7823917 L -6.0505999 3.8340681 L -6.0929746 3.8743757 L -6.1431007 3.9270857 L -6.1989112 3.9906477 L -6.2593727 4.0655785 L -6.324485 4.1539452 L -6.3932146 4.2547143 L -6.4629778 4.3678856 L -6.5342913 4.4944929 L -6.569948 4.5632226 A 7.9993396 7.9993396 0 0 0 -6.3699602 4.8386579 L -6.2939959 4.8257388 L -6.1513689 4.7968 L -6.0216611 4.7652774 L -5.9048723 4.7316877 L -5.8010027 4.6965477 L -5.7110857 4.6624413 L -5.6330543 4.6288516 L -5.567942 4.597329 L -5.5162656 4.5699405 L -5.4485694 4.5296329 L -5.4227312 4.516197 L -5.3979265 4.5053449 L -5.3757057 4.4975935 L -5.3555519 4.4929426 L -5.3369483 4.4908755 L -5.3214454 4.4913923 L -5.3080095 4.4944929 L -5.2971575 4.5001773 L -5.2925066 4.5037947 L -5.271836 4.5280826 L -5.1643491 4.650039 L -5.0542783 4.7699283 L -5.0325742 4.7926659 L -5.0294736 4.7973168 L -5.0248227 4.8092024 L -5.0232724 4.8226382 L -5.0243059 4.8386579 L -5.0279233 4.8562279 L -5.035158 4.875865 L -5.0449765 4.8975691 L -5.0584124 4.9208235 L -5.0744321 4.9456282 L -5.1214576 5.0086734 L -5.1540138 5.0567325 L -5.1922543 5.1187442 L -5.2335955 5.1926415 L -5.2775204 5.2779076 L -5.3229957 5.3781599 L -5.3689877 5.4908145 L -5.4139462 5.6163882 L -5.4568377 5.7548811 L -5.478025 5.8292951 A 7.9993396 7.9993396 0 0 0 -5.2248105 6.0571882 L -5.1529802 6.0287662 L -5.0196551 5.9714053 L -4.8997657 5.9135277 L -4.7922787 5.8556501 L -4.6977109 5.7998396 L -4.6170956 5.7476464 L -4.5478492 5.6990705 L -4.4904884 5.6546288 L -4.4455299 5.616905 L -4.388169 5.5636783 L -4.3649147 5.5450748 L -4.3432106 5.5295718 L -4.3230567 5.5171695 L -4.3039365 5.5083845 L -4.2868832 5.5021833 L -4.2713803 5.4995995 L -4.2574277 5.5001163 L -4.2455421 5.5032169 L -4.2403745 5.5058007 L -4.2155698 5.524921 L -4.0848284 5.6220727 L -3.95202 5.7161238 L -3.9261817 5.7342105 L -3.9220476 5.7383446 L -3.9153297 5.7486799 L -3.9106788 5.761599 L -3.908095 5.7771019 L -3.9086118 5.7957055 L -3.9111956 5.816376 L -3.9163632 5.8396304 L -3.9246315 5.8649519 L -3.9354835 5.8923404 L -3.9680397 5.9636539 L -3.9902605 6.0179141 L -4.0145484 6.086127 L -4.0398699 6.167259 L -4.0646746 6.2597598 L -4.0884457 6.3672468 L -4.1096331 6.4871361 L -4.1277198 6.6194278 L -4.1411557 6.763605 L -4.1463233 6.8411197 A 7.9993396 7.9993396 0 0 0 -3.8512509 7.0111352 L -3.7866554 6.9682437 L -3.6683163 6.8845279 L -3.5628964 6.8028791 L -3.4698788 6.724331 L -3.3887468 6.6499169 L -3.3210507 6.5822208 L -3.2636899 6.5196923 L -3.2166643 6.4643985 L -3.1810076 6.4184065 L -3.1355323 6.3543277 L -3.1169288 6.3310733 L -3.0988421 6.3114363 L -3.0812721 6.2954166 L -3.0647356 6.2824975 L -3.0492327 6.2731957 L -3.0342465 6.2675113 L -3.0208107 6.2649275 L -3.0084083 6.2654442 L -3.0032407 6.2675113 L -2.9743019 6.2809472 L -2.8265073 6.3486433 L -2.6771624 6.4132388 L -2.6482236 6.4251244 L -2.6430559 6.428225 L -2.6342709 6.43701 L -2.6270362 6.4488956 L -2.6218686 6.4638817 L -2.6182512 6.4814517 L -2.6161842 6.5026391 L -2.6167009 6.5264102 L -2.6192848 6.5527652 L -2.6244524 6.581704 L -2.6415056 6.6587019 L -2.6518409 6.7160627 L -2.6616594 6.787893 L -2.6694109 6.8721255 L -2.6740618 6.9682437 L -2.6750953 7.0777977 L -2.671478 7.1997541 L -2.6611427 7.3325626 L -2.6446062 7.4767398 L -2.6332374 7.5537377 A 7.9993396 7.9993396 0 0 0 -2.3097429 7.6586408 L -2.2554827 7.6033471 L -2.1567807 7.4968936 L -2.0709978 7.395091 L -1.996067 7.2989729 L -1.932505 7.2095727 L -1.879795 7.1289574 L -1.8363868 7.0560936 L -1.8022804 6.9920149 L -1.7769589 6.9393049 L -1.7454363 6.8674747 L -1.7325172 6.8411197 L -1.7190813 6.8178653 L -1.7051287 6.7982282 L -1.6916928 6.7827253 L -1.6782569 6.770323 L -1.6648211 6.761538 L -1.6524187 6.7563703 L -1.6400164 6.7543033 L -1.634332 6.75482 L -1.6038429 6.7620547 L -1.4446795 6.7977115 L -1.2855161 6.8297509 L -1.2545102 6.8354353 L -1.2488258 6.8375023 L -1.2384905 6.8442203 L -1.2291887 6.8540388 L -1.2204037 6.8674747 L -1.213169 6.8845279 L -1.2074846 6.9041649 L -1.2028338 6.9274193 L -1.1997332 6.9542911 L -1.1986996 6.9837466 L -1.1992164 7.0622948 L -1.1976661 7.1201724 L -1.1919817 7.1930362 L -1.1821632 7.2772688 L -1.167177 7.3718366 L -1.1449562 7.4798404 L -1.1160174 7.5976627 L -1.0788103 7.7258202 L -1.0323015 7.8632795 L -1.004913 7.9361433 A 7.9993396 7.9993396 0 0 0 -0.66694916 7.9712833 L -0.62509125 7.906171 L -0.55119395 7.781114 L -0.4881487 7.6638085 L -0.43492198 7.5542545 L -0.39099701 7.4534854 L -0.35689057 7.3640852 L -0.32950206 7.2834699 L -0.30934825 7.2137068 L -0.29539561 7.1573795 L -0.27937592 7.0803816 L -0.27214122 7.0514428 L -0.26387299 7.0261213 L -0.25457123 7.0044172 L -0.24475271 6.9863305 L -0.23390066 6.9713443 L -0.22304861 6.9599755 L -0.21167979 6.952224 L -0.19979421 6.9475731 L -0.1941098 6.9470564 L -0.16258718 6.9475731 L 0.00019358141 6.9496402 L 0.16297434 6.9475731 L 0.19449697 6.9470564 L 0.20018137 6.9475731 L 0.21155019 6.952224 L 0.222919 6.9599755 L 0.23377106 6.9713443 L 0.24462311 6.9863305 L 0.25444163 7.0044172 L 0.26374339 7.0261213 L 0.27201162 7.0514428 L 0.27976308 7.0803816 L 0.29526601 7.1573795 L 0.30921865 7.2137068 L 0.32937246 7.2834699 L 0.35676096 7.3640852 L 0.39138417 7.4534854 L 0.43479238 7.5542545 L 0.4880191 7.6638085 L 0.55106435 7.781114 L 0.62496165 7.906171 L 0.66681956 7.9712833 A 7.9993396 7.9993396 0 0 0 1.0053002 7.9361433 L 1.0321719 7.8632795 L 1.0786807 7.7258202 L 1.1158878 7.5976627 L 1.1453433 7.4798404 L 1.1670474 7.3718366 L 1.1820336 7.2772688 L 1.1918521 7.1930362 L 1.1975365 7.1201724 L 1.1996036 7.0622948 L 1.19857 6.9837466 L 1.1996036 6.9542911 L 1.2027042 6.9274193 L 1.207355 6.9041649 L 1.2130394 6.8840111 L 1.2207909 6.8674747 L 1.2290591 6.8540388 L 1.2383609 6.8442203 L 1.2486962 6.8375023 L 1.2543806 6.8354353 L 1.2853865 6.8297509 L 1.4450666 6.7977115 L 1.6037133 6.7620547 L 1.6342024 6.75482 L 1.6404035 6.7543033 L 1.6522891 6.7558536 L 1.6652082 6.761538 L 1.6781273 6.770323 L 1.6915632 6.7827253 L 1.7055158 6.7982282 L 1.7189517 6.8178653 L 1.7323876 6.8411197 L 1.7458235 6.8674747 L 1.7768293 6.9393049 L 1.8021508 6.9920149 L 1.836774 7.0560936 L 1.8796654 7.1289574 L 1.9323754 7.2090559 L 1.9959374 7.2989729 L 2.0708682 7.395091 L 2.1571679 7.4963768 L 2.2553531 7.6033471 L 2.3096133 7.6586408 A 7.9993396 7.9993396 0 0 0 2.6331078 7.5537377 L 2.6444766 7.4767398 L 2.6615298 7.3325626 L 2.6713484 7.1997541 L 2.6754825 7.0777977 L 2.674449 6.9682437 L 2.6692813 6.8721255 L 2.6615298 6.787893 L 2.6517113 6.7160627 L 2.641376 6.6587019 L 2.6243228 6.581704 L 2.6196719 6.5527652 L 2.6170881 6.5264102 L 2.6165713 6.5026391 L 2.6181216 6.4814517 L 2.621739 6.4638817 L 2.6274234 6.4488956 L 2.6341413 6.43701 L 2.6429263 6.428225 L 2.648094 6.4251244 L 2.6770328 6.4132388 L 2.8263777 6.3486433 L 2.974689 6.2809472 L 3.0031111 6.2675113 L 3.0087955 6.2654442 L 3.020681 6.2649275 L 3.0346337 6.2675113 L 3.0491031 6.2731957 L 3.0651228 6.2824975 L 3.0816592 6.2954166 L 3.0987125 6.3114363 L 3.1167992 6.3310733 L 3.1354027 6.3543277 L 3.180878 6.4184065 L 3.2165347 6.4643985 L 3.2635603 6.5196923 L 3.3209211 6.5822208 L 3.389134 6.6499169 L 3.4697492 6.724331 L 3.5627668 6.8028791 L 3.6687035 6.8845279 L 3.7870425 6.9682437 L 3.8516381 7.0111352 A 7.9993396 7.9993396 0 0 0 4.1461937 6.8411197 L 4.1415429 6.763605 L 4.1275902 6.6194278 L 4.1100202 6.4871361 L 4.0883161 6.3672468 L 4.064545 6.2597598 L 4.0397403 6.167259 L 4.0144188 6.086127 L 3.9901309 6.0179141 L 3.9684268 5.9636539 L 3.9353539 5.8923404 L 3.9245018 5.8649519 L 3.9167504 5.8396304 L 3.911066 5.816376 L 3.9084822 5.7957055 L 3.9084822 5.7771019 L 3.9105492 5.761599 L 3.9152001 5.7486799 L 3.921918 5.7383446 L 3.9260521 5.7342105 L 3.9518904 5.7161238 L 4.0846988 5.6220727 L 4.2154402 5.524921 L 4.2402449 5.5058007 L 4.2454125 5.5032169 L 4.2572981 5.5001163 L 4.2712507 5.4995995 L 4.2867536 5.5021833 L 4.3043236 5.5083845 L 4.3229271 5.5171695 L 4.3435977 5.5295718 L 4.3653018 5.5450748 L 4.3880394 5.5636783 L 4.4459171 5.616905 L 4.4903588 5.6546288 L 4.5477196 5.6990705 L 4.616966 5.7476464 L 4.6975813 5.7998396 L 4.7921491 5.8556501 L 4.8996361 5.9135277 L 5.0195254 5.9714053 L 5.1528506 6.0287662 L 5.2251977 6.0571882 A 7.9993396 7.9993396 0 0 0 5.4778954 5.8292951 L 5.4572248 5.7548811 L 5.4138166 5.6163882 L 5.3688581 5.4908145 L 5.3228661 5.3781599 L 5.2773908 5.2779076 L 5.2339826 5.1926415 L 5.1921247 5.1187442 L 5.1538842 5.0567325 L 5.121328 5.0086734 L 5.0748192 4.9456282 L 5.0582828 4.9208235 L 5.0448469 4.8975691 L 5.0350284 4.875865 L 5.0283104 4.8562279 L 5.0241763 4.8386579 L 5.0231428 4.8226382 L 5.0246931 4.8092024 L 5.029344 4.7978336 L 5.0324446 4.7926659 L 5.0541487 4.7699283 L 5.1642195 4.650039 L 5.2717064 4.5280826 L 5.292377 4.5037947 L 5.2970279 4.5001773 L 5.3078799 4.4944929 L 5.3213158 4.4913923 L 5.3373355 4.4908755 L 5.3554223 4.4929426 L 5.3755761 4.4975935 L 5.3983137 4.5053449 L 5.4226016 4.516197 L 5.4489566 4.5296329 L 5.5166527 4.5699405 L 5.5678124 4.597329 L 5.6334415 4.6288516 L 5.7109561 4.6624413 L 5.8008731 4.6965477 L 5.9047427 4.7316877 L 6.0220482 4.7652774 L 6.1512393 4.7968 L 6.2938663 4.8257388 L 6.3703474 4.8386579 A 7.9993396 7.9993396 0 0 0 6.5703352 4.5632226 L 6.5341617 4.4944929 L 6.463365 4.3678856 L 6.393085 4.2547143 L 6.3248721 4.1539452 L 6.2592431 4.0655785 L 6.1987816 3.9906477 L 6.1429711 3.9270857 L 6.0928449 3.8743757 L 6.050987 3.8340681 L 5.9920759 3.7823917 L 5.9708886 3.7617211 L 5.9528018 3.7415673 L 5.9388492 3.722447 L 5.9279971 3.704877 L 5.9202457 3.6883406 L 5.9161116 3.6728376 L 5.915078 3.6594018 L 5.9166283 3.6469994 L 5.9192121 3.6418318 L 5.9352318 3.6144433 L 6.0184309 3.4749169 L 6.0980126 3.3328067 L 6.1135155 3.3054182 L 6.1171329 3.3007673 L 6.1264346 3.2930158 L 6.138837 3.2868147 L 6.1543399 3.2831973 L 6.1724267 3.2811303 L 6.1930972 3.281647 L 6.2168684 3.2847476 L 6.2432234 3.2899153 L 6.2716454 3.2981835 L 6.3460595 3.3229882 L 6.40187 3.3390079 L 6.4726667 3.3565779 L 6.5558658 3.3731143 L 6.6504337 3.3881005 L 6.7594709 3.4005028 L 6.8809105 3.4092878 L 7.0142357 3.4134219 L 7.1594465 3.4113549 L 7.2369612 3.4082543 A 7.9993396 7.9993396 0 0 0 7.375454 3.0976789 L 7.3258446 3.0377343 L 7.2302432 2.928697 L 7.1377424 2.8325788 L 7.0498925 2.7478295 L 6.9677269 2.6754825 L 6.8933129 2.6150211 L 6.8251 2.5638614 L 6.7651553 2.523037 L 6.715546 2.4925479 L 6.6473331 2.4537906 L 6.6225284 2.4377709 L 6.6008243 2.422268 L 6.5827375 2.406765 L 6.5687849 2.3912621 L 6.5579328 2.3767927 L 6.5501814 2.3628401 L 6.546564 2.3494042 L 6.5460473 2.3370018 L 6.5470808 2.3313174 L 6.5574161 2.3018619 L 6.6090925 2.1473493 L 6.6576684 1.99232 L 6.6669701 1.961831 L 6.6695539 1.9566633 L 6.6773054 1.9468448 L 6.6881574 1.9385766 L 6.7021101 1.9318586 L 6.7196801 1.9261742 L 6.7403506 1.9225569 L 6.7641218 1.9204898 L 6.7904768 1.919973 L 6.8204491 1.9220401 L 6.8979638 1.9308251 L 6.9563581 1.9349592 L 7.0287051 1.937543 L 7.1134545 1.9365095 L 7.2095727 1.9313419 L 7.3191267 1.9210066 L 7.4395328 1.9039533 L 7.5707909 1.8801822 L 7.7123843 1.8486596 L 7.7873152 1.8290225 A 7.9993396 7.9993396 0 0 0 7.8581119 1.4962263 L 7.7976504 1.4481672 L 7.6808617 1.3613508 L 7.5707909 1.28642 L 7.467438 1.2223412 L 7.3718366 1.168081 L 7.2860538 1.1246727 L 7.2090559 1.089016 L 7.1418765 1.0616275 L 7.0870995 1.0414737 L 7.0121687 1.0182193 L 6.9847802 1.007884 L 6.9604922 0.99703196 L 6.9393049 0.98514638 L 6.9222517 0.9732608 L 6.9088158 0.96137522 L 6.8984805 0.94897288 L 6.8917626 0.9370873 L 6.888662 0.92520172 L 6.888662 0.91951731 L 6.8922794 0.88799469 L 6.9113996 0.72624746 L 6.9263858 0.56450022 L 6.9289696 0.5329776 L 6.9305199 0.52729319 L 6.9362043 0.51644114 L 6.9449893 0.50558909 L 6.9573917 0.49628733 L 6.9734114 0.48698557 L 6.9925316 0.47923411 L 7.0152693 0.47199941 L 7.0416242 0.466315 L 7.070563 0.46218089 L 7.1491112 0.45442942 L 7.2064721 0.44667796 L 7.2783023 0.43375885 L 7.3609846 0.41515533 L 7.4534854 0.38983388 L 7.5583886 0.35727773 L 7.6725935 0.31593658 L 7.7961002 0.26529368 L 7.9283918 0.20483225 L 7.9976382 0.17020904 A 7.9993396 7.9993396 0 0 0 7.9976382 -0.17033865 L 7.9283918 -0.20444509 L 7.7961002 -0.26490652 L 7.6725935 -0.31554942 L 7.5583886 -0.35689057 L 7.4534854 -0.38996348 L 7.3609846 -0.41528493 L 7.2783023 -0.43388845 L 7.2064721 -0.44680756 L 7.1491112 -0.45455902 L 7.070563 -0.46179372 L 7.0416242 -0.4664446 L 7.0152693 -0.47212901 L 6.9925316 -0.47884695 L 6.9734114 -0.48711518 L 6.9573917 -0.49590017 L 6.9449893 -0.50571869 L 6.9362043 -0.51605398 L 6.9305199 -0.52742279 L 6.9289696 -0.5331072 L 6.9263858 -0.56411306 L 6.9113996 -0.72637706 L 6.8922794 -0.88812429 L 6.888662 -0.91913015 L 6.888662 -0.92533132 L 6.8917626 -0.9372169 L 6.8984805 -0.94910248 L 6.9088158 -0.96150482 L 6.9222517 -0.9733904 L 6.9393049 -0.98527598 L 6.9604922 -0.9966448 L 6.9847802 -1.0080136 L 7.0121687 -1.0183489 L 7.0870995 -1.0416033 L 7.1418765 -1.0612403 L 7.2090559 -1.0891456 L 7.2860538 -1.1242856 L 7.3718366 -1.1682106 L 7.467438 -1.221954 L 7.5707909 -1.2865496 L 7.6808617 -1.3614804 L 7.7976504 -1.4482968 L 7.8581119 -1.4963559 A 7.9993396 7.9993396 0 0 0 7.7873152 -1.8291521 L 7.7123843 -1.8487892 L 7.5707909 -1.8803118 L 7.4395328 -1.9040829 L 7.3191267 -1.9206194 L 7.2095727 -1.9314715 L 7.1134545 -1.9366391 L 7.0287051 -1.9376726 L 6.9563581 -1.9350888 L 6.8979638 -1.9309547 L 6.8204491 -1.9221697 L 6.7904768 -1.9201026 L 6.7641218 -1.9206194 L 6.7403506 -1.9226865 L 6.7196801 -1.9263038 L 6.7021101 -1.9319882 L 6.6881574 -1.9387062 L 6.6773054 -1.9469744 L 6.6695539 -1.9567929 L 6.6669701 -1.9619606 L 6.6576684 -1.9919329 L 6.6090925 -2.1474789 L 6.5574161 -2.3019915 L 6.5470808 -2.331447 L 6.5460473 -2.3371315 L 6.546564 -2.3495338 L 6.5501814 -2.3629697 L 6.5579328 -2.3769223 L 6.5687849 -2.3913917 L 6.5827375 -2.4063779 L 6.6008243 -2.4223976 L 6.6225284 -2.4379005 L 6.6473331 -2.4539202 L 6.715546 -2.4926775 L 6.7651553 -2.5231666 L 6.8251 -2.563991 L 6.8933129 -2.6146339 L 6.9677269 -2.6750953 L 7.0498925 -2.7479591 L 7.1377424 -2.8327084 L 7.2302432 -2.9288266 L 7.3258446 -3.0378639 L 7.375454 -3.0972918 A 7.9993396 7.9993396 0 0 0 7.2369612 -3.4083839 L 7.1594465 -3.4114845 L 7.0142357 -3.4135515 L 6.8809105 -3.4094174 L 6.7594709 -3.4006324 L 6.6504337 -3.3882301 L 6.5558658 -3.3732439 L 6.4726667 -3.3567075 L 6.40187 -3.3391375 L 6.3460595 -3.3231178 L 6.2716454 -3.2977963 L 6.2432234 -3.2900449 L 6.2168684 -3.2848772 L 6.1930972 -3.2817766 L 6.1724267 -3.2812599 L 6.1543399 -3.2828102 L 6.138837 -3.2869443 L 6.1264346 -3.2926287 L 6.1171329 -3.3008969 L 6.1135155 -3.305031 L 6.0980126 -3.3329363 L 6.0184309 -3.4745297 L 5.9352318 -3.6145729 L 5.9192121 -3.6414446 L 5.9166283 -3.647129 L 5.915078 -3.6590146 L 5.9161116 -3.6729672 L 5.9202457 -3.6884702 L 5.9279971 -3.7050066 L 5.9388492 -3.7225766 L 5.9528018 -3.7416969 L 5.9708886 -3.7613339 L 5.9920759 -3.7825213 L 6.050987 -3.8341977 L 6.0928449 -3.8745053 L 6.1429711 -3.9272153 L 6.1987816 -3.9907773 L 6.2592431 -4.0657081 L 6.3248721 -4.153558 L 6.393085 -4.2548439 L 6.463365 -4.3680152 L 6.5341617 -4.4946225 L 6.5703352 -4.5633522 A 7.9993396 7.9993396 0 0 0 6.3703474 -4.8382708 L 6.2938663 -4.8258684 L 6.1512393 -4.7969296 L 6.0220482 -4.765407 L 5.9047427 -4.7318173 L 5.8008731 -4.6966773 L 5.7109561 -4.6625709 L 5.6334415 -4.6289812 L 5.5678124 -4.5974586 L 5.516136 -4.5700701 L 5.4489566 -4.5297625 L 5.4226016 -4.5163266 L 5.3983137 -4.5054746 L 5.3755761 -4.4977231 L 5.3554223 -4.4930722 L 5.3373355 -4.4910051 L 5.3213158 -4.4915219 L 5.3078799 -4.4946225 L 5.2970279 -4.5003069 L 5.292377 -4.5039243 L 5.2717064 -4.5276954 L 5.1642195 -4.6501686 L 5.0541487 -4.7695411 L 5.0324446 -4.7927955 L 5.029344 -4.7974464 L 5.0246931 -4.8088152 L 5.0231428 -4.8227678 L 5.0241763 -4.8387875 L 5.0277937 -4.8563575 L 5.0350284 -4.8759946 L 5.0448469 -4.8976987 L 5.0582828 -4.9209531 L 5.0748192 -4.9457578 L 5.121328 -5.0082862 L 5.1538842 -5.0568621 L 5.1921247 -5.118357 L 5.2339826 -5.1922543 L 5.2773908 -5.2780372 L 5.3228661 -5.3777727 L 5.3688581 -5.4909441 L 5.4138166 -5.6165178 L 5.4572248 -5.7550107 L 5.4778954 -5.8294247 A 7.9993396 7.9993396 0 0 0 5.2251977 -6.0573178 L 5.1528506 -6.0288958 L 5.0195254 -5.9710182 L 4.8996361 -5.9131406 L 4.7921491 -5.8557797 L 4.6975813 -5.7999692 L 4.616966 -5.747776 L 4.5477196 -5.6986834 L 4.4903588 -5.6542416 L 4.4459171 -5.6170346 L 4.3880394 -5.5638079 L 4.3653018 -5.5446876 L 4.3435977 -5.5291847 L 4.3229271 -5.5172991 L 4.3043236 -5.5079973 L 4.2867536 -5.5023129 L 4.2712507 -5.4997291 L 4.2572981 -5.4997291 L 4.2454125 -5.5033465 L 4.2402449 -5.5059303 L 4.2154402 -5.5250506 L 4.0846988 -5.6222023 L 3.9518904 -5.7162534 L 3.9260521 -5.7343401 L 3.921918 -5.7384742 L 3.9152001 -5.7488095 L 3.9105492 -5.7617286 L 3.9084822 -5.7772315 L 3.9084822 -5.7958351 L 3.911066 -5.8165056 L 3.9167504 -5.8392433 L 3.9245018 -5.8650815 L 3.9353539 -5.89247 L 3.9684268 -5.9637835 L 3.9901309 -6.0180437 L 4.0144188 -6.0862566 L 4.0397403 -6.1673886 L 4.064545 -6.2598894 L 4.0883161 -6.3673764 L 4.1100202 -6.4872657 L 4.1275902 -6.6190406 L 4.1410261 -6.7637346 L 4.1461937 -6.8412493 A 7.9993396 7.9993396 0 0 0 3.8516381 -7.0112648 L 3.7870425 -6.9683733 L 3.6687035 -6.8841407 L 3.5627668 -6.802492 L 3.4697492 -6.7244606 L 3.389134 -6.6500465 L 3.3209211 -6.5823504 L 3.2635603 -6.5198219 L 3.2165347 -6.4645281 L 3.180878 -6.4185361 L 3.1354027 -6.3544573 L 3.1167992 -6.3312029 L 3.0987125 -6.3115659 L 3.0816592 -6.2955462 L 3.0651228 -6.2826271 L 3.0491031 -6.2733253 L 3.0346337 -6.2676409 L 3.020681 -6.2650571 L 3.0087955 -6.2655738 L 3.0031111 -6.2671241 L 2.974689 -6.28056 L 2.8263777 -6.3487729 L 2.6770328 -6.4128517 L 2.648094 -6.425254 L 2.6429263 -6.4283546 L 2.6341413 -6.4371396 L 2.6274234 -6.4490252 L 2.621739 -6.4634946 L 2.6181216 -6.4815813 L 2.6165713 -6.5022519 L 2.6170881 -6.5260231 L 2.6196719 -6.5528948 L 2.6243228 -6.5818336 L 2.641376 -6.6588315 L 2.6517113 -6.7156756 L 2.6615298 -6.7880226 L 2.6692813 -6.8722551 L 2.674449 -6.9683733 L 2.6754825 -7.0779273 L 2.6713484 -7.1998837 L 2.6615298 -7.3326922 L 2.6444766 -7.4768694 L 2.6331078 -7.5533505 A 7.9993396 7.9993396 0 0 0 2.3096133 -7.6587704 L 2.2553531 -7.6034767 L 2.1571679 -7.4965065 L 2.0708682 -7.3947039 L 1.9959374 -7.2985857 L 1.9323754 -7.2091855 L 1.8796654 -7.129087 L 1.836774 -7.0557065 L 1.8021508 -6.9921445 L 1.7768293 -6.9394345 L 1.7458235 -6.8676043 L 1.7323876 -6.8407325 L 1.7189517 -6.8179949 L 1.7055158 -6.7983579 L 1.6915632 -6.7828549 L 1.6781273 -6.7704526 L 1.6652082 -6.7616676 L 1.6522891 -6.7559832 L 1.6404035 -6.7544329 L 1.6342024 -6.7549496 L 1.6037133 -6.7616676 L 1.4450666 -6.7973243 L 1.2853865 -6.8293637 L 1.2543806 -6.8355649 L 1.2486962 -6.8376319 L 1.2383609 -6.8438331 L 1.2290591 -6.8541684 L 1.2207909 -6.8676043 L 1.2130394 -6.8841407 L 1.207355 -6.9042945 L 1.2027042 -6.9275489 L 1.1996036 -6.9539039 L 1.19857 -6.9838762 L 1.1996036 -7.0624244 L 1.1975365 -7.120302 L 1.1918521 -7.1931658 L 1.1820336 -7.2773984 L 1.1670474 -7.3719662 L 1.1453433 -7.4794532 L 1.1158878 -7.5977923 L 1.0786807 -7.7259498 L 1.0321719 -7.8634091 L 1.0053002 -7.9357561 A 7.9993396 7.9993396 0 0 0 0.66681956 -7.9714129 L 0.62496165 -7.9063006 L 0.55106435 -7.7812436 L 0.4880191 -7.6639381 L 0.43479238 -7.5543841 L 0.39138417 -7.453615 L 0.35676096 -7.363698 L 0.32937246 -7.2835996 L 0.30921865 -7.2138364 L 0.29526601 -7.1575091 L 0.27976308 -7.0805112 L 0.27201162 -7.0515724 L 0.26374339 -7.0262509 L 0.25444163 -7.0045468 L 0.24462311 -6.9859433 L 0.23377106 -6.9714739 L 0.222919 -6.9601051 L 0.21155019 -6.9518369 L 0.20018137 -6.9477027 L 0.19449697 -6.9466692 L 0.16297434 -6.9477027 L 0.00019358141 -6.949253 L -0.16258718 -6.9477027 L -0.1941098 -6.9466692 L -0.19979421 -6.9477027 L -0.21167979 -6.9518369 L -0.22304861 -6.9595883 L -0.23390066 -6.9709571 L -0.24475271 -6.9859433 L -0.25457123 -7.0045468 L -0.26387299 -7.0262509 L -0.27214122 -7.0515724 L -0.27989268 -7.0805112 L -0.29539561 -7.1575091 L -0.30934825 -7.2138364 L -0.32950206 -7.2835996 L -0.35689057 -7.363698 L -0.39099701 -7.453615 L -0.43492198 -7.5543841 L -0.4881487 -7.6639381 L -0.55119395 -7.7812436 L -0.62509125 -7.9063006 L -0.66694916 -7.9714129 z M 0.00019358141 -1.3501116 A 1.35 1.35 0 0 1 1.349982 0.00019358141 A 1.35 1.35 0 0 1 0.00019358141 1.349982 A 1.35 1.35 0 0 1 -1.3501116 0.00019358141 A 1.35 1.35 0 0 1 0.00019358141 -1.3501116 z " />
</svg>
