<?xml version="1.0" encoding="UTF-8" standalone="no"?>
<svg
   viewBox="-4.2000989481951185 -4.2000989481951185 13.200310980041802 8.400197896390237"
   height="8.400197896390237mm"
   width="13.200310980041802mm"
   version="1.1"
   id="SvgjsSvg1195"
   sodipodi:docname="involute_gear_10_to_8.svg"
   inkscape:version="1.2.1 (9c6d41e410, 2022-07-14)"
   xmlns:inkscape="http://www.inkscape.org/namespaces/inkscape"
   xmlns:sodipodi="http://sodipodi.sourceforge.net/DTD/sodipodi-0.dtd"
   xmlns="http://www.w3.org/2000/svg"
   xmlns:svg="http://www.w3.org/2000/svg">
  <sodipodi:namedview
     id="namedview18"
     pagecolor="#ffffff"
     bordercolor="#000000"
     borderopacity="0.25"
     inkscape:showpageshadow="2"
     inkscape:pageopacity="0.0"
     inkscape:pagecheckerboard="0"
     inkscape:deskcolor="#d1d1d1"
     inkscape:document-units="mm"
     showgrid="false"
     inkscape:zoom="17.594829"
     inkscape:cx="5.1719741"
     inkscape:cy="12.361586"
     inkscape:window-width="1920"
     inkscape:window-height="1001"
     inkscape:window-x="-9"
     inkscape:window-y="-9"
     inkscape:window-maximized="1"
     inkscape:current-layer="SvgjsSvg1195" />
  <desc
     id="desc2">Created with svg.js [http://svgjs.com]</desc>
  <defs
     id="SvgjsDefs1196" />
  <defs
     id="defs5" />
  <path
     id="SvgjsPath1206"
     style="fill:#800000;stroke:none;stroke-width:0.1"
     d="M -0.95895311 -3.469911 A 3.6000848 3.6000848 0 0 0 -1.2638441 -3.371209 L -1.2891655 -3.2874932 L -1.3103529 -3.2048109 L -1.3274061 -3.1247124 L -1.3403252 -3.0492648 L -1.3496269 -2.9774346 L -1.3547946 -2.9112887 L -1.3578952 -2.849277 L -1.3578952 -2.7919162 L -1.3558281 -2.7402397 L -1.3465264 -2.6529066 L -1.334124 -2.5841769 L -1.3150037 -2.5200981 L -1.2777967 -2.4710055 L -1.2411064 -2.4167453 L -1.2111341 -2.3640353 L -1.1873629 -2.3128756 L -1.1703097 -2.2642998 L -1.1589409 -2.2183078 L -1.1532565 -2.1754163 L -1.1532565 -2.1361422 L -1.1584241 -2.1010023 L -1.1682427 -2.0699964 L -1.1827121 -2.0441582 L -1.2013156 -2.0229709 L -1.2147515 -2.0121188 L -1.2752129 -1.9738782 L -1.3811496 -1.9010145 L -1.4834689 -1.8224663 L -1.5382459 -1.776991 L -1.5527153 -1.7671725 L -1.5785535 -1.7563205 L -1.6080091 -1.7511528 L -1.6400485 -1.7511528 L -1.6751885 -1.757354 L -1.7123955 -1.7692396 L -1.7516696 -1.7878431 L -1.7914604 -1.8126478 L -1.8328016 -1.8441704 L -1.8741427 -1.882411 L -1.9149671 -1.9273695 L -1.9552747 -1.9790459 L -1.9904147 -2.0296888 L -2.0457085 -2.0668958 L -2.1066867 -2.1004855 L -2.1873019 -2.1361422 L -2.2358778 -2.154229 L -2.290138 -2.171799 L -2.3500827 -2.1883354 L -2.4146782 -2.2033216 L -2.4859917 -2.2167575 L -2.561956 -2.2281263 L -2.643088 -2.2363945 L -2.7283542 -2.2415622 L -2.8156873 -2.2436292 A 3.6000848 3.6000848 0 0 0 -3.0037895 -1.9842135 L -2.9753675 -1.902048 L -2.9438449 -1.8224663 L -2.910772 -1.7480522 L -2.8766655 -1.6793226 L -2.8420423 -1.6157606 L -2.8074191 -1.5589165 L -2.7727959 -1.5067233 L -2.739723 -1.4607313 L -2.7076836 -1.4204237 L -2.6487725 -1.3547946 L -2.5981295 -1.3067355 L -2.5449028 -1.2659111 L -2.4865085 -1.2483411 L -2.4244967 -1.2256035 L -2.369203 -1.2002821 L -2.3201103 -1.1728935 L -2.2777357 -1.1439547 L -2.2415622 -1.1134656 L -2.2121066 -1.081943 L -2.1888522 -1.0504204 L -2.1723157 -1.0188978 L -2.1619805 -0.98789192 L -2.1583631 -0.95843635 L -2.1604302 -0.93053108 L -2.165081 -0.91399462 L -2.1919528 -0.84784879 L -2.2348442 -0.72640917 L -2.2715345 -0.60238573 L -2.2891045 -0.53313931 L -2.2947889 -0.51711962 L -2.3092583 -0.49334846 L -2.3299289 -0.47164436 L -2.3562838 -0.45252408 L -2.3883232 -0.43702115 L -2.4255303 -0.4246188 L -2.4679049 -0.41686734 L -2.5149305 -0.41324999 L -2.5666069 -0.41480028 L -2.6224175 -0.42151822 L -2.6818454 -0.4334038 L -2.7448906 -0.45149055 L -2.8027682 -0.47216112 L -2.8699476 -0.47009407 L -2.939194 -0.46079231 L -3.0249769 -0.44270556 L -3.075103 -0.42875292 L -3.1293633 -0.41066617 L -3.1872409 -0.38896207 L -3.2487358 -0.36312385 L -3.3143649 -0.33211799 L -3.382061 -0.29697802 L -3.4528577 -0.25563687 L -3.524688 -0.21016161 L -3.5965182 -0.16003547 A 3.6000848 3.6000848 0 0 0 -3.5965182 0.16035841 L -3.524688 0.20996778 L -3.4528577 0.25595981 L -3.382061 0.29678419 L -3.3143649 0.33244093 L -3.2487358 0.36344679 L -3.1872409 0.389285 L -3.1293633 0.41098911 L -3.075103 0.42855909 L -3.0249769 0.44251173 L -2.939194 0.46111524 L -2.8699476 0.46990024 L -2.8027682 0.4719673 L -2.7448906 0.45181349 L -2.6818454 0.43372674 L -2.6224175 0.42132439 L -2.5666069 0.41460646 L -2.5149305 0.41357293 L -2.4679049 0.41667351 L -2.4255303 0.42494174 L -2.3883232 0.43682732 L -2.3562838 0.45233025 L -2.3299289 0.47145053 L -2.3092583 0.49315463 L -2.2947889 0.51744256 L -2.2891045 0.53346225 L -2.2715345 0.60270867 L -2.2348442 0.72621534 L -2.1919528 0.84765496 L -2.165081 0.91380079 L -2.1604302 0.93033725 L -2.1583631 0.95824252 L -2.1619805 0.98821485 L -2.1723157 1.0187039 L -2.1888522 1.0502266 L -2.2121066 1.0817492 L -2.2415622 1.1132718 L -2.2777357 1.1437609 L -2.3201103 1.1732165 L -2.369203 1.200605 L -2.4244967 1.2259264 L -2.4865085 1.2481473 L -2.5449028 1.2657173 L -2.5981295 1.3065417 L -2.6487725 1.3546008 L -2.7076836 1.4202298 L -2.739723 1.4605374 L -2.7727959 1.5070462 L -2.8074191 1.5587227 L -2.8420423 1.6155667 L -2.8766655 1.6791288 L -2.910772 1.7478584 L -2.9438449 1.8227892 L -2.9753675 1.9018542 L -3.0037895 1.9845365 A 3.6000848 3.6000848 0 0 0 -2.8156873 2.2434354 L -2.7283542 2.2418851 L -2.643088 2.2367175 L -2.561956 2.2279325 L -2.4859917 2.2170804 L -2.4146782 2.2036445 L -2.3500827 2.1881416 L -2.290138 2.1716052 L -2.2358778 2.1540352 L -2.1873019 2.1359484 L -2.1066867 2.1002917 L -2.0457085 2.0672188 L -1.9904147 2.029495 L -1.9552747 1.9788521 L -1.9149671 1.9271756 L -1.8741427 1.8822171 L -1.8328016 1.8439766 L -1.7914604 1.8124539 L -1.7516696 1.7876493 L -1.7123955 1.7690457 L -1.6751885 1.7571602 L -1.6400485 1.750959 L -1.6080091 1.750959 L -1.5785535 1.7566434 L -1.5527153 1.7674955 L -1.5382459 1.7767972 L -1.4834689 1.8227892 L -1.3811496 1.9013374 L -1.2752129 1.9742012 L -1.2147515 2.011925 L -1.2013156 2.022777 L -1.1827121 2.0439644 L -1.1682427 2.0703193 L -1.1584241 2.1008084 L -1.1532565 2.1364652 L -1.1532565 2.1752225 L -1.1589409 2.2181139 L -1.1703097 2.264106 L -1.1873629 2.3126818 L -1.2111341 2.3638415 L -1.2411064 2.4165514 L -1.2777967 2.4713285 L -1.3150037 2.5199043 L -1.334124 2.5839831 L -1.3465264 2.6527127 L -1.3558281 2.7405627 L -1.3578952 2.7922391 L -1.3578952 2.8490832 L -1.3547946 2.9110949 L -1.3496269 2.9777575 L -1.3403252 3.0495877 L -1.3274061 3.1250353 L -1.3103529 3.2051338 L -1.2891655 3.2872993 L -1.2638441 3.3710151 A 3.6000848 3.6000848 0 0 0 -0.95895311 3.4702339 L -0.8897067 3.4170072 L -0.82356086 3.3627469 L -0.76309944 3.3084867 L -0.70832242 3.2547432 L -0.65871304 3.2020332 L -0.61478808 3.1513903 L -0.57603075 3.1028145 L -0.54244107 3.0568224 L -0.51401903 3.013931 L -0.4695773 2.9374499 L -0.43960497 2.8749214 L -0.4173841 2.8118761 L -0.4189344 2.7503812 L -0.41635058 2.6847521 L -0.40963264 2.6242907 L -0.39878059 2.5689969 L -0.38379442 2.5193875 L -0.36622444 2.4759793 L -0.34555386 2.4377388 L -0.32229947 2.4062162 L -0.29749478 2.3808947 L -0.27165657 2.3617744 L -0.24478482 2.3488553 L -0.21739631 2.3426541 L -0.20034309 2.3416206 L -0.12902961 2.3467883 L 0.00016146847 2.3498888 L 0.12883578 2.3467883 L 0.20014926 2.3416206 L 0.21720248 2.3426541 L 0.24459099 2.3488553 L 0.27146274 2.3617744 L 0.29781772 2.3808947 L 0.32262241 2.4062162 L 0.34536004 2.4377388 L 0.36603061 2.4759793 L 0.38411736 2.5193875 L 0.39858676 2.5689969 L 0.40943881 2.6242907 L 0.41667351 2.6847521 L 0.41874057 2.7503812 L 0.41719028 2.8118761 L 0.43992791 2.8749214 L 0.46990024 2.9374499 L 0.51382521 3.013931 L 0.54276401 3.0568224 L 0.57635369 3.1028145 L 0.61511101 3.1513903 L 0.65851922 3.2020332 L 0.70812859 3.2547432 L 0.76290561 3.3084867 L 0.8238838 3.3627469 L 0.88951287 3.4170072 L 0.95875929 3.4702339 A 3.6000848 3.6000848 0 0 0 1.2636502 3.3710151 L 1.2889717 3.2872993 L 1.310159 3.2051338 L 1.3272122 3.1250353 L 1.3401314 3.0495877 L 1.3494331 2.9777575 L 1.3551175 2.9110949 L 1.3577013 2.8490832 L 1.3577013 2.7922391 L 1.3556343 2.7405627 L 1.3468493 2.6527127 L 1.3339302 2.5839831 L 1.3153267 2.5199043 L 1.2776029 2.4713285 L 1.2409126 2.4165514 L 1.2109403 2.3638415 L 1.1876859 2.3126818 L 1.1701159 2.264106 L 1.1587471 2.2181139 L 1.1535794 2.1752225 L 1.1535794 2.1364652 L 1.1587471 2.1008084 L 1.1685656 2.0703193 L 1.1825182 2.0439644 L 1.2011218 2.022777 L 1.2145576 2.011925 L 1.2750191 1.9742012 L 1.3814725 1.9013374 L 1.4832751 1.8227892 L 1.5380521 1.7767972 L 1.5525215 1.7674955 L 1.5783597 1.7566434 L 1.6078153 1.750959 L 1.6403714 1.750959 L 1.6755114 1.7571602 L 1.7127184 1.7690457 L 1.7514758 1.7876493 L 1.7917834 1.8124539 L 1.8326078 1.8439766 L 1.8739489 1.8822171 L 1.9147733 1.9271756 L 1.9555977 1.9788521 L 1.9902209 2.029495 L 2.0455147 2.0672188 L 2.1064928 2.1002917 L 2.1871081 2.1359484 L 2.2356839 2.1540352 L 2.2899442 2.1716052 L 2.3498888 2.1881416 L 2.4150011 2.2036445 L 2.4863146 2.2170804 L 2.5617622 2.2279325 L 2.6428942 2.2367175 L 2.7281603 2.2418851 L 2.8154935 2.2434354 A 3.6000848 3.6000848 0 0 0 3.0035957 1.9845365 L 2.9751737 1.9018542 L 2.9436511 1.8227892 L 2.9105781 1.7478584 L 2.8764717 1.6791288 L 2.8418485 1.6155667 L 2.8072253 1.5587227 L 2.7731188 1.5070462 L 2.7395291 1.4605374 L 2.7074898 1.4202298 L 2.6485786 1.3546008 L 2.5979357 1.3065417 L 2.5452258 1.2657173 L 2.4863146 1.2481473 L 2.4248197 1.2259264 L 2.3690091 1.200605 L 2.3199165 1.1732165 L 2.2775418 1.1437609 L 2.2413683 1.1132718 L 2.2119128 1.0817492 L 2.1886584 1.0502266 L 2.1721219 1.0187039 L 2.1623034 0.98821485 L 2.1581693 0.95824252 L 2.1607531 0.93033725 L 2.165404 0.91380079 L 2.191759 0.84765496 L 2.2351672 0.72621534 L 2.2713407 0.60270867 L 2.2889107 0.53346225 L 2.2951118 0.51744256 L 2.3095812 0.49315463 L 2.329735 0.47145053 L 2.35609 0.45233025 L 2.3881294 0.43682732 L 2.4253364 0.42494174 L 2.4677111 0.41667351 L 2.5147367 0.41357293 L 2.5664131 0.41460646 L 2.6222236 0.42132439 L 2.6821683 0.43372674 L 2.7452136 0.45181349 L 2.8030912 0.4719673 L 2.8697538 0.46990024 L 2.9390002 0.46111524 L 3.0252998 0.44251173 L 3.0749092 0.42855909 L 3.1291694 0.41098911 L 3.1875638 0.389285 L 3.2490588 0.36344679 L 3.3141711 0.33244093 L 3.3818672 0.29678419 L 3.4531807 0.25595981 L 3.5250109 0.20996778 L 3.5963244 0.16035841 A 3.6000848 3.6000848 0 0 0 3.5963244 -0.16003547 L 3.5250109 -0.21016161 L 3.4531807 -0.25563687 L 3.3818672 -0.29697802 L 3.3141711 -0.33211799 L 3.2490588 -0.36312385 L 3.1875638 -0.38896207 L 3.1291694 -0.41066617 L 3.0749092 -0.42875292 L 3.0252998 -0.44270556 L 2.9390002 -0.46079231 L 2.8697538 -0.47009407 L 2.8030912 -0.47216112 L 2.7452136 -0.45149055 L 2.6821683 -0.4334038 L 2.6222236 -0.42151822 L 2.5664131 -0.41480028 L 2.5147367 -0.41324999 L 2.4677111 -0.41686734 L 2.4253364 -0.4246188 L 2.3881294 -0.43702115 L 2.35609 -0.45252408 L 2.329735 -0.47164436 L 2.3095812 -0.49334846 L 2.2951118 -0.51711962 L 2.2889107 -0.53313931 L 2.2713407 -0.60238573 L 2.2351672 -0.72640917 L 2.191759 -0.84784879 L 2.165404 -0.91399462 L 2.1607531 -0.93053108 L 2.1581693 -0.95843635 L 2.1623034 -0.98789192 L 2.1721219 -1.0188978 L 2.1886584 -1.0504204 L 2.2119128 -1.081943 L 2.2413683 -1.1134656 L 2.2775418 -1.1439547 L 2.3199165 -1.1728935 L 2.3690091 -1.2002821 L 2.4248197 -1.2256035 L 2.4863146 -1.2483411 L 2.5452258 -1.2659111 L 2.5979357 -1.3067355 L 2.6485786 -1.3547946 L 2.7074898 -1.4204237 L 2.7395291 -1.4607313 L 2.7731188 -1.5067233 L 2.8072253 -1.5589165 L 2.8418485 -1.6157606 L 2.8764717 -1.6793226 L 2.9105781 -1.7480522 L 2.9436511 -1.8224663 L 2.9751737 -1.902048 L 3.0035957 -1.9842135 A 3.6000848 3.6000848 0 0 0 2.8154935 -2.2436292 L 2.7281603 -2.2415622 L 2.6428942 -2.2363945 L 2.5617622 -2.2281263 L 2.4863146 -2.2167575 L 2.4150011 -2.2033216 L 2.3498888 -2.1883354 L 2.2899442 -2.171799 L 2.2356839 -2.154229 L 2.1871081 -2.1361422 L 2.1064928 -2.1004855 L 2.0455147 -2.0668958 L 1.9902209 -2.0296888 L 1.9555977 -1.9790459 L 1.9147733 -1.9273695 L 1.8739489 -1.882411 L 1.8326078 -1.8441704 L 1.7917834 -1.8126478 L 1.7514758 -1.7878431 L 1.7127184 -1.7692396 L 1.6755114 -1.757354 L 1.6403714 -1.7511528 L 1.6078153 -1.7511528 L 1.5783597 -1.7563205 L 1.5525215 -1.7671725 L 1.5380521 -1.776991 L 1.4832751 -1.8224663 L 1.3814725 -1.9010145 L 1.2750191 -1.9738782 L 1.2145576 -2.0121188 L 1.2011218 -2.0229709 L 1.1825182 -2.0441582 L 1.1685656 -2.0699964 L 1.1587471 -2.1010023 L 1.1535794 -2.1361422 L 1.1535794 -2.1754163 L 1.1587471 -2.2183078 L 1.1701159 -2.2642998 L 1.1876859 -2.3128756 L 1.2109403 -2.3640353 L 1.2409126 -2.4167453 L 1.2776029 -2.4710055 L 1.3153267 -2.5200981 L 1.3339302 -2.5841769 L 1.3468493 -2.6529066 L 1.3556343 -2.7402397 L 1.3577013 -2.7919162 L 1.3577013 -2.849277 L 1.3551175 -2.9112887 L 1.3494331 -2.9774346 L 1.3401314 -3.0492648 L 1.3272122 -3.1247124 L 1.310159 -3.2048109 L 1.2889717 -3.2874932 L 1.2636502 -3.371209 A 3.6000848 3.6000848 0 0 0 0.95875929 -3.469911 L 0.88951287 -3.417201 L 0.8238838 -3.3629407 L 0.76290561 -3.3081637 L 0.70812859 -3.254937 L 0.65851922 -3.202227 L 0.61511101 -3.1515841 L 0.57635369 -3.1030083 L 0.54276401 -3.0570163 L 0.51382521 -3.0136081 L 0.46990024 -2.9376437 L 0.43992791 -2.8745985 L 0.41719028 -2.8115532 L 0.41874057 -2.750575 L 0.41667351 -2.684946 L 0.40943881 -2.6244845 L 0.39858676 -2.5691907 L 0.38411736 -2.5195814 L 0.36603061 -2.4756564 L 0.34536004 -2.4379326 L 0.32262241 -2.40641 L 0.29781772 -2.3805718 L 0.27146274 -2.3614515 L 0.24459099 -2.3490491 L 0.21720248 -2.3423312 L 0.20014926 -2.3418144 L 0.12883578 -2.3464653 L 0.00016146847 -2.3500827 L -0.12902961 -2.3464653 L -0.20034309 -2.3418144 L -0.21739631 -2.3423312 L -0.24478482 -2.3490491 L -0.27165657 -2.3614515 L -0.29749478 -2.3805718 L -0.32229947 -2.40641 L -0.34555386 -2.4379326 L -0.36622444 -2.4756564 L -0.38379442 -2.5195814 L -0.39878059 -2.5691907 L -0.40963264 -2.6244845 L -0.41635058 -2.684946 L -0.4189344 -2.750575 L -0.4173841 -2.8115532 L -0.43960497 -2.8745985 L -0.4695773 -2.9376437 L -0.51401903 -3.0136081 L -0.54244107 -3.0570163 L -0.57603075 -3.1030083 L -0.61478808 -3.1515841 L -0.65871304 -3.202227 L -0.70832242 -3.254937 L -0.76309944 -3.3081637 L -0.82356086 -3.3629407 L -0.8897067 -3.417201 L -0.95895311 -3.469911 z M 0.00016146847 -1.3496269 A 1.3499307 1.3499307 0 0 1 1.3499499 0.00067823279 A 1.3499307 1.3499307 0 0 1 0.00016146847 1.3499499 A 1.3499307 1.3499307 0 0 1 -1.3501437 0.00067823279 A 1.3499307 1.3499307 0 0 1 0.00016146847 -1.3496269 z " />
</svg>
