<?xml version="1.0" encoding="UTF-8" standalone="no"?>
<svg
   viewBox="-19.696389084464546 -19.696389084464546 47.642574644097486 39.39277816892909"
   height="39.39277816892909mm"
   width="47.642574644097486mm"
   version="1.1"
   id="SvgjsSvg1047"
   sodipodi:docname="involute_gear_32_to_8.svg"
   inkscape:version="1.2.2 (732a01da63, 2022-12-09)"
   xmlns:inkscape="http://www.inkscape.org/namespaces/inkscape"
   xmlns:sodipodi="http://sodipodi.sourceforge.net/DTD/sodipodi-0.dtd"
   xmlns="http://www.w3.org/2000/svg"
   xmlns:svg="http://www.w3.org/2000/svg">
  <sodipodi:namedview
     id="namedview18"
     pagecolor="#ffffff"
     bordercolor="#000000"
     borderopacity="0.25"
     inkscape:showpageshadow="2"
     inkscape:pageopacity="0.0"
     inkscape:pagecheckerboard="0"
     inkscape:deskcolor="#d1d1d1"
     inkscape:document-units="mm"
     showgrid="false"
     inkscape:zoom="2.7336336"
     inkscape:cx="124.19367"
     inkscape:cy="78.101177"
     inkscape:window-width="1920"
     inkscape:window-height="1001"
     inkscape:window-x="-9"
     inkscape:window-y="-9"
     inkscape:window-maximized="1"
     inkscape:current-layer="SvgjsSvg1047" />
  <desc
     id="desc2">Created with svg.js [http://svgjs.com]</desc>
  <defs
     id="SvgjsDefs1048" />
  <defs
     id="defs5" />
  <path
     id="SvgjsPath1058"
     style="fill:#ff0000;stroke:none;stroke-width:0.1"
     d="M -0.36888664 -17.527012 L -0.49911125 -17.255194 L -0.61900058 -16.975108 L -0.7171858 -16.716726 L -0.79625074 -16.480048 L -0.85826246 -16.265074 L -0.90425448 -16.075938 L -0.9373274 -15.90954 L -0.9590315 -15.771564 L -0.98176913 -15.589146 L -0.99365471 -15.536953 L -1.0081241 -15.491995 L -1.0241438 -15.454271 L -1.0427473 -15.423782 L -1.0623844 -15.401044 L -1.0835717 -15.386058 L -1.1057926 -15.378823 L -1.1507511 -15.375723 L -1.5114526 -15.3442 L -1.8706038 -15.304409 L -1.9155623 -15.299241 L -1.9388167 -15.302342 L -1.9625878 -15.312677 L -1.986359 -15.330764 L -2.0101301 -15.357119 L -2.0339013 -15.390709 L -2.0566389 -15.43205 L -2.078343 -15.481659 L -2.1362206 -15.655292 L -2.1842797 -15.78655 L -2.249392 -15.94313 L -2.3315575 -16.12038 L -2.4338769 -16.318817 L -2.5579003 -16.535858 L -2.7041446 -16.769436 L -2.8767439 -17.0211 L -3.0576114 -17.262429 A 17.530818 17.530818 0 0 0 -3.7810815 -17.118252 L -3.8554955 -16.82628 L -3.9190575 -16.528107 L -3.9650496 -16.255772 L -3.9960554 -16.007725 L -4.0151757 -15.785517 L -4.0229272 -15.590697 L -4.0229272 -15.420681 L -4.0172428 -15.281155 L -4.0043237 -15.09822 L -4.0058739 -15.044477 L -4.0110416 -14.997451 L -4.0198266 -14.957143 L -4.0317122 -14.924071 L -4.0466983 -14.898232 L -4.0647851 -14.879112 L -4.0849389 -14.867743 L -4.1283471 -14.855341 L -4.4756127 -14.754572 L -4.8208113 -14.645535 L -4.8637027 -14.631582 L -4.8869571 -14.629515 L -4.9122786 -14.635716 L -4.9391503 -14.648635 L -4.9675724 -14.669823 L -4.9970279 -14.698245 L -5.027517 -14.734418 L -5.0585229 -14.778343 L -5.1494734 -14.938023 L -5.2223372 -15.056879 L -5.3163883 -15.197956 L -5.4316267 -15.355569 L -5.5706363 -15.530235 L -5.7344506 -15.718854 L -5.9241031 -15.919875 L -6.1421777 -16.132782 L -6.3664534 -16.333804 A 17.530818 17.530818 0 0 0 -7.0480655 -16.05165 L -7.0640852 -15.750893 L -7.0682193 -15.446003 L -7.0599511 -15.17005 L -7.0423811 -14.92097 L -7.0175764 -14.698761 L -6.9870873 -14.506008 L -6.9540144 -14.33961 L -6.9214583 -14.204218 L -6.8728824 -14.026968 L -6.8635807 -13.974258 L -6.8594465 -13.926715 L -6.8604801 -13.885891 L -6.8656477 -13.850751 L -6.8754662 -13.822329 L -6.8894189 -13.800625 L -6.9069889 -13.785122 L -6.9472965 -13.764451 L -7.2682071 -13.598053 L -7.5849836 -13.423904 L -7.6247745 -13.401683 L -7.6469954 -13.395482 L -7.6728336 -13.395998 L -7.7022891 -13.40375 L -7.7343285 -13.418736 L -7.7689517 -13.440957 L -7.805642 -13.470413 L -7.8443993 -13.50762 L -7.9648054 -13.646112 L -8.0593733 -13.748948 L -8.1792626 -13.868838 L -8.3229231 -14.000613 L -8.4934553 -14.145307 L -8.6908593 -14.298269 L -8.9156518 -14.457949 L -9.1714501 -14.624347 L -9.4308658 -14.778343 A 17.530818 17.530818 0 0 0 -10.044265 -14.368032 L -10.001374 -14.069859 L -9.9455631 -13.770136 L -9.8840681 -13.500902 L -9.8179223 -13.260089 L -9.7502262 -13.047183 L -9.6830468 -12.864248 L -9.6179345 -12.707152 L -9.5595401 -12.580544 L -9.4773746 -12.41673 L -9.4582543 -12.366604 L -9.4448184 -12.321129 L -9.4375837 -12.280304 L -9.4360335 -12.245164 L -9.4401676 -12.215192 L -9.4489526 -12.191421 L -9.463422 -12.172817 L -9.4990787 -12.144912 L -9.781232 -11.918569 L -10.058218 -11.686025 L -10.092841 -11.65657 L -10.113511 -11.646234 L -10.138833 -11.641584 L -10.169322 -11.643651 L -10.203428 -11.651919 L -10.241669 -11.666905 L -10.283527 -11.689126 L -10.329002 -11.717548 L -10.474213 -11.830203 L -10.586868 -11.912368 L -10.727944 -12.006936 L -10.894342 -12.108222 L -11.089679 -12.216226 L -11.313438 -12.327847 L -11.565102 -12.441018 L -11.848289 -12.554189 L -12.13251 -12.654442 A 17.530818 17.530818 0 0 0 -12.654442 -12.13251 L -12.554189 -11.848289 L -12.441018 -11.565102 L -12.327847 -11.313438 L -12.216226 -11.090196 L -12.108222 -10.894342 L -12.006419 -10.727944 L -11.912368 -10.586868 L -11.830203 -10.474213 L -11.717548 -10.329002 L -11.688609 -10.283527 L -11.666905 -10.241669 L -11.651919 -10.203428 L -11.643651 -10.169322 L -11.641584 -10.138833 L -11.646234 -10.113511 L -11.65657 -10.092841 L -11.686025 -10.058218 L -11.918569 -9.781232 L -12.144912 -9.4990787 L -12.172817 -9.463422 L -12.191421 -9.4494693 L -12.215192 -9.4401676 L -12.245164 -9.4360335 L -12.280304 -9.4375837 L -12.321129 -9.4448184 L -12.366604 -9.4582543 L -12.41673 -9.4773746 L -12.580544 -9.5595401 L -12.707152 -9.6179345 L -12.864248 -9.6830468 L -13.047183 -9.7502262 L -13.260089 -9.8179223 L -13.500902 -9.8840681 L -13.770136 -9.9455631 L -14.069859 -10.001374 L -14.368032 -10.044265 A 17.530818 17.530818 0 0 0 -14.778343 -9.4308658 L -14.624347 -9.1714501 L -14.457949 -8.9161685 L -14.298269 -8.6908593 L -14.145307 -8.4934553 L -14.000613 -8.3229231 L -13.868838 -8.1792626 L -13.748948 -8.0593733 L -13.646112 -7.9648054 L -13.50762 -7.8449161 L -13.470413 -7.805642 L -13.440957 -7.7689517 L -13.418736 -7.7343285 L -13.40375 -7.7022891 L -13.395998 -7.6728336 L -13.394965 -7.6469954 L -13.401166 -7.6247745 L -13.423387 -7.5849836 L -13.598053 -7.2682071 L -13.764451 -6.9472965 L -13.785122 -6.9069889 L -13.800625 -6.8894189 L -13.822329 -6.8754662 L -13.850751 -6.8656477 L -13.885891 -6.8604801 L -13.926715 -6.8594465 L -13.973741 -6.8635807 L -14.026968 -6.8728824 L -14.203701 -6.9214583 L -14.33961 -6.9545312 L -14.506008 -6.9876041 L -14.698761 -7.0175764 L -14.920453 -7.0423811 L -15.17005 -7.0599511 L -15.446003 -7.0682193 L -15.750893 -7.0640852 L -16.05165 -7.0480655 A 17.530818 17.530818 0 0 0 -16.333804 -6.3664534 L -16.132266 -6.1421777 L -15.919875 -5.9241031 L -15.718854 -5.7344506 L -15.530235 -5.5706363 L -15.355569 -5.4316267 L -15.197956 -5.3163883 L -15.056879 -5.2223372 L -14.938023 -5.1494734 L -14.778343 -5.0585229 L -14.734418 -5.027517 L -14.698245 -4.9975447 L -14.669823 -4.9675724 L -14.648635 -4.9391503 L -14.635716 -4.9122786 L -14.629515 -4.8869571 L -14.631582 -4.8637027 L -14.645535 -4.8208113 L -14.754572 -4.4756127 L -14.855341 -4.1283471 L -14.867743 -4.0849389 L -14.879112 -4.0647851 L -14.898232 -4.0466983 L -14.924071 -4.0317122 L -14.957143 -4.0198266 L -14.997451 -4.0110416 L -15.044477 -4.0058739 L -15.09822 -4.0043237 L -15.281155 -4.0172428 L -15.420681 -4.0229272 L -15.59018 -4.0229272 L -15.785 -4.0151757 L -16.007725 -3.9960554 L -16.255772 -3.9650496 L -16.528107 -3.9190575 L -16.82628 -3.8554955 L -17.118252 -3.7810815 A 17.530818 17.530818 0 0 0 -17.261912 -3.0576114 L -17.020583 -2.8772607 L -16.769436 -2.7041446 L -16.535858 -2.5579003 L -16.318817 -2.4338769 L -16.119863 -2.3315575 L -15.94313 -2.249392 L -15.78655 -2.1842797 L -15.655292 -2.1362206 L -15.481143 -2.078343 L -15.43205 -2.0566389 L -15.390709 -2.0339013 L -15.357119 -2.0101301 L -15.330764 -1.986359 L -15.312677 -1.9625878 L -15.301825 -1.9388167 L -15.299241 -1.916079 L -15.304409 -1.8706038 L -15.3442 -1.5114526 L -15.375206 -1.1507511 L -15.378823 -1.1057926 L -15.386058 -1.0835717 L -15.401044 -1.0623844 L -15.423782 -1.0427473 L -15.454271 -1.0241438 L -15.491478 -1.0081241 L -15.536953 -0.99365471 L -15.589146 -0.98176913 L -15.771564 -0.9590315 L -15.90954 -0.9373274 L -16.075938 -0.90425448 L -16.265074 -0.85826246 L -16.480048 -0.7967675 L -16.716726 -0.71770256 L -16.974591 -0.61900058 L -17.255194 -0.49911125 L -17.527012 -0.36888664 A 17.530818 17.530818 0 0 0 -17.527012 0.36905281 L -17.255194 0.49876066 L -16.974591 0.61916674 L -16.716726 0.71735196 L -16.480048 0.79641691 L -16.265074 0.85842862 L -16.075938 0.90442065 L -15.90954 0.93749357 L -15.771564 0.9586809 L -15.589146 0.9819353 L -15.536953 0.99382088 L -15.491478 1.0077735 L -15.454271 1.02431 L -15.423782 1.0423967 L -15.401044 1.0625505 L -15.386058 1.0837379 L -15.378823 1.105442 L -15.375206 1.1509172 L -15.3442 1.511102 L -15.304409 1.8707699 L -15.299241 1.9157284 L -15.301825 1.9389828 L -15.312677 1.962754 L -15.330764 1.9865251 L -15.357119 2.0102963 L -15.390709 2.0335507 L -15.43205 2.0562883 L -15.481143 2.0785092 L -15.655292 2.1363868 L -15.78655 2.1844459 L -15.94313 2.2490414 L -16.119863 2.3312069 L -16.318817 2.434043 L -16.535858 2.5575497 L -16.769436 2.7043108 L -17.020583 2.8769101 L -17.261912 3.0572608 A 17.530818 17.530818 0 0 0 -17.118252 3.7812476 L -16.82628 3.8556617 L -16.528107 3.9187069 L -16.255772 3.964699 L -16.007725 3.9962216 L -15.785 4.0148251 L -15.59018 4.0230933 L -15.420681 4.0230933 L -15.281155 4.0174089 L -15.09822 4.0044898 L -15.044477 4.0055234 L -14.997451 4.010691 L -14.957143 4.019476 L -14.924071 4.0313616 L -14.898232 4.0468645 L -14.879112 4.0644345 L -14.867743 4.0845883 L -14.855341 4.1285133 L -14.754572 4.4757789 L -14.645535 4.8204607 L -14.631582 4.8638689 L -14.629515 4.8871233 L -14.635716 4.911928 L -14.648635 4.9393165 L -14.669823 4.9677385 L -14.698245 4.9971941 L -14.734418 5.0276832 L -14.778343 5.058689 L -14.938023 5.1496396 L -15.056879 5.2219866 L -15.197956 5.3165544 L -15.355569 5.4312761 L -15.530235 5.5708025 L -15.718854 5.7346168 L -15.919875 5.9237525 L -16.132266 6.1423438 L -16.333804 6.3666195 A 17.530818 17.530818 0 0 0 -16.05165 7.0482317 L -15.750893 7.0642514 L -15.446003 7.0678687 L -15.17005 7.0601173 L -14.920453 7.0425473 L -14.698761 7.0172258 L -14.506008 6.9872535 L -14.33961 6.9541806 L -14.203701 6.9211077 L -14.026968 6.8730486 L -13.973741 6.8637468 L -13.926715 6.8596127 L -13.885891 6.8601295 L -13.850751 6.8658139 L -13.822329 6.8756324 L -13.800625 6.8890683 L -13.785122 6.9066383 L -13.764451 6.9474626 L -13.598053 7.2683733 L -13.423387 7.5851498 L -13.401166 7.6244239 L -13.394965 7.6471615 L -13.395998 7.6729998 L -13.40375 7.7019386 L -13.418736 7.7339779 L -13.440957 7.7686011 L -13.470413 7.8058082 L -13.50762 7.8445655 L -13.646112 7.9649716 L -13.748948 8.0595395 L -13.868838 8.1794288 L -14.000613 8.3225725 L -14.145307 8.4936215 L -14.298269 8.6910255 L -14.457949 8.9158179 L -14.624347 9.1716163 L -14.778343 9.4305152 A 17.530818 17.530818 0 0 0 -14.368032 10.043914 L -14.069859 10.001023 L -13.770136 9.9457292 L -13.500902 9.8837175 L -13.260089 9.8180885 L -13.047183 9.7498756 L -12.864248 9.683213 L -12.707152 9.6181007 L -12.580544 9.5591895 L -12.41673 9.4775408 L -12.366604 9.4579037 L -12.321129 9.4449846 L -12.280304 9.4372331 L -12.245164 9.4361996 L -12.215192 9.439817 L -12.191421 9.4491187 L -12.172817 9.4635881 L -12.144912 9.4992449 L -11.918569 9.7813982 L -11.686025 10.058384 L -11.65657 10.09249 L -11.646234 10.113678 L -11.641584 10.138999 L -11.643651 10.168971 L -11.651919 10.203595 L -11.666905 10.241835 L -11.688609 10.283693 L -11.717548 10.329168 L -11.830203 10.473862 L -11.912368 10.586517 L -12.006419 10.727594 L -12.108222 10.894509 L -12.216226 11.089845 L -12.327847 11.313088 L -12.441018 11.565269 L -12.554189 11.848455 L -12.654442 12.132676 A 17.530818 17.530818 0 0 0 -12.13251 12.654091 L -11.848289 12.553839 L -11.565102 12.440667 L -11.313438 12.328013 L -11.089679 12.216392 L -10.894342 12.107871 L -10.727944 12.006585 L -10.586868 11.912534 L -10.474213 11.829852 L -10.329002 11.717714 L -10.283527 11.688775 L -10.241669 11.667071 L -10.203428 11.652085 L -10.169322 11.6433 L -10.138833 11.64175 L -10.113511 11.645884 L -10.092841 11.656219 L -10.058218 11.685675 L -9.781232 11.918735 L -9.4990787 12.144561 L -9.463422 12.172983 L -9.4489526 12.19107 L -9.4401676 12.215358 L -9.4360335 12.24533 L -9.4375837 12.28047 L -9.4448184 12.320778 L -9.4582543 12.366253 L -9.4773746 12.416379 L -9.5595401 12.580711 L -9.6179345 12.707318 L -9.6830468 12.863897 L -9.7502262 13.047349 L -9.8179223 13.260256 L -9.8840681 13.501068 L -9.9455631 13.769785 L -10.001374 14.070025 L -10.044265 14.368198 A 17.530818 17.530818 0 0 0 -9.4308658 14.777992 L -9.1714501 14.623997 L -8.9156518 14.458115 L -8.6908593 14.297918 L -8.4934553 14.144956 L -8.3229231 14.000779 L -8.1792626 13.869004 L -8.0593733 13.748598 L -7.9648054 13.646279 L -7.8443993 13.507269 L -7.805642 13.470579 L -7.7689517 13.440606 L -7.7343285 13.418385 L -7.7022891 13.403916 L -7.6728336 13.396165 L -7.6469954 13.395131 L -7.6247745 13.401332 L -7.5849836 13.423553 L -7.2682071 13.597703 L -6.9472965 13.764618 L -6.9069889 13.785288 L -6.8894189 13.800274 L -6.8754662 13.822495 L -6.8656477 13.850917 L -6.8604801 13.88554 L -6.8594465 13.926882 L -6.8635807 13.973907 L -6.8728824 14.027134 L -6.9214583 14.203867 L -6.9540144 14.339776 L -6.9870873 14.506174 L -7.0175764 14.698411 L -7.0423811 14.920619 L -7.0599511 15.1697 L -7.0682193 15.445652 L -7.0640852 15.750543 L -7.0480655 16.051816 A 17.530818 17.530818 0 0 0 -6.3664534 16.33397 L -6.1421777 16.132432 L -5.9241031 15.919525 L -5.7344506 15.71902 L -5.5706363 15.530401 L -5.4316267 15.355218 L -5.3163883 15.198122 L -5.2223372 15.057045 L -5.1494734 14.937673 L -5.0585229 14.778509 L -5.027517 14.734584 L -4.9970279 14.698411 L -4.9675724 14.669472 L -4.9391503 14.648801 L -4.9122786 14.635365 L -4.8869571 14.629681 L -4.8637027 14.631231 L -4.8208113 14.645701 L -4.4756127 14.754221 L -4.1283471 14.855507 L -4.0849389 14.867909 L -4.0647851 14.879278 L -4.0466983 14.897882 L -4.0317122 14.924237 L -4.0198266 14.95731 L -4.0110416 14.997617 L -4.0058739 15.044643 L -4.0043237 15.098386 L -4.0172428 15.281321 L -4.0229272 15.420847 L -4.0229272 15.590346 L -4.0151757 15.785166 L -3.9960554 16.007892 L -3.9650496 16.255422 L -3.9190575 16.527756 L -3.8554955 16.825929 L -3.7810815 17.118418 A 17.530818 17.530818 0 0 0 -3.0576114 17.262079 L -2.8767439 17.02075 L -2.7041446 16.769602 L -2.5579003 16.535508 L -2.4338769 16.318467 L -2.3315575 16.120029 L -2.249392 15.943296 L -2.1842797 15.7862 L -2.1362206 15.655458 L -2.078343 15.481309 L -2.0566389 15.432216 L -2.0339013 15.390875 L -2.0101301 15.356768 L -1.986359 15.33093 L -1.9625878 15.312844 L -1.9388167 15.301991 L -1.9155623 15.298891 L -1.8706038 15.304575 L -1.5114526 15.344366 L -1.1507511 15.375372 L -1.1057926 15.378989 L -1.0835717 15.386224 L -1.0623844 15.40121 L -1.0427473 15.423948 L -1.0241438 15.45392 L -1.0081241 15.491644 L -0.99365471 15.536602 L -0.98176913 15.589312 L -0.9590315 15.771213 L -0.9373274 15.90919 L -0.90425448 16.075588 L -0.85826246 16.26524 L -0.79625074 16.479697 L -0.7171858 16.716892 L -0.61900058 16.974758 L -0.49911125 17.254844 L -0.36888664 17.526662 A 17.530818 17.530818 0 0 0 0.36905281 17.526662 L 0.49876066 17.254844 L 0.61916674 16.974758 L 0.71735196 16.716892 L 0.79641691 16.479697 L 0.85842862 16.26524 L 0.90442065 16.075588 L 0.93749357 15.90919 L 0.9586809 15.771213 L 0.9819353 15.589312 L 0.99382088 15.536602 L 1.0077735 15.491644 L 1.02431 15.45392 L 1.0423967 15.423948 L 1.0625505 15.40121 L 1.0837379 15.386224 L 1.1059587 15.378989 L 1.1509172 15.375372 L 1.511102 15.344366 L 1.8707699 15.304575 L 1.9157284 15.298891 L 1.9389828 15.301991 L 1.962754 15.312844 L 1.9865251 15.33093 L 2.0102963 15.356768 L 2.0335507 15.390875 L 2.0568051 15.432216 L 2.0785092 15.481309 L 2.1363868 15.655458 L 2.1844459 15.7862 L 2.2495582 15.943296 L 2.3312069 16.120029 L 2.434043 16.318467 L 2.5575497 16.535508 L 2.7043108 16.769602 L 2.8769101 17.02075 L 3.0577776 17.262079 A 17.530818 17.530818 0 0 0 3.7812476 17.118418 L 3.8556617 16.825929 L 3.9187069 16.527756 L 3.964699 16.255422 L 3.9962216 16.007892 L 4.0148251 15.785166 L 4.0230933 15.590346 L 4.0230933 15.420847 L 4.0174089 15.281321 L 4.0044898 15.098386 L 4.0055234 15.044643 L 4.010691 14.997617 L 4.019476 14.95731 L 4.0318783 14.924237 L 4.0468645 14.897882 L 4.0644345 14.879278 L 4.0845883 14.867909 L 4.1285133 14.855507 L 4.4757789 14.754221 L 4.8204607 14.645701 L 4.8638689 14.631231 L 4.8871233 14.629681 L 4.911928 14.635365 L 4.9393165 14.648801 L 4.9677385 14.669472 L 4.9971941 14.698411 L 5.0276832 14.734584 L 5.058689 14.778509 L 5.1496396 14.937673 L 5.2219866 15.057045 L 5.3165544 15.198122 L 5.4312761 15.355735 L 5.5708025 15.530401 L 5.7346168 15.71902 L 5.9237525 15.919525 L 6.1423438 16.132432 L 6.3666195 16.33397 A 17.530818 17.530818 0 0 0 7.0482317 16.051816 L 7.0642514 15.750543 L 7.0678687 15.445652 L 7.0601173 15.1697 L 7.0425473 14.920619 L 7.0172258 14.698411 L 6.9872535 14.506174 L 6.9541806 14.339776 L 6.9211077 14.203867 L 6.8730486 14.027134 L 6.8637468 13.973907 L 6.8596127 13.926882 L 6.8601295 13.88554 L 6.8658139 13.850917 L 6.8756324 13.822495 L 6.8890683 13.800274 L 6.9066383 13.785288 L 6.9474626 13.764618 L 7.2683733 13.597703 L 7.5851498 13.423553 L 7.6249407 13.401332 L 7.6471615 13.395131 L 7.6729998 13.396165 L 7.7019386 13.403916 L 7.7339779 13.418385 L 7.7686011 13.440606 L 7.8058082 13.470579 L 7.8445655 13.507786 L 7.9649716 13.646279 L 8.0595395 13.748598 L 8.1794288 13.869004 L 8.3225725 14.000779 L 8.4936215 14.144956 L 8.6910255 14.297918 L 8.9158179 14.458115 L 9.1716163 14.623997 L 9.4305152 14.777992 A 17.530818 17.530818 0 0 0 10.043914 14.368198 L 10.001023 14.070025 L 9.9457292 13.770302 L 9.8837175 13.501068 L 9.8180885 13.260256 L 9.7498756 13.047349 L 9.683213 12.863897 L 9.6181007 12.707318 L 9.5591895 12.580711 L 9.4775408 12.416379 L 9.4579037 12.366253 L 9.4449846 12.320778 L 9.4372331 12.28047 L 9.4361996 12.24533 L 9.439817 12.215358 L 9.4491187 12.19107 L 9.4635881 12.172983 L 9.4992449 12.144561 L 9.7813982 11.918735 L 10.058384 11.685675 L 10.09249 11.656219 L 10.113678 11.645884 L 10.138999 11.64175 L 10.168971 11.643817 L 10.203595 11.652085 L 10.241835 11.667071 L 10.283693 11.688775 L 10.329168 11.717714 L 10.473862 11.829852 L 10.586517 11.912534 L 10.727594 12.006585 L 10.894509 12.107871 L 11.089845 12.216392 L 11.313088 12.328013 L 11.565269 12.440667 L 11.848455 12.553839 L 12.132676 12.654091 A 17.530818 17.530818 0 0 0 12.654091 12.132676 L 12.553839 11.848455 L 12.440667 11.565269 L 12.328013 11.313088 L 12.216392 11.089845 L 12.107871 10.894509 L 12.006585 10.72811 L 11.912534 10.587034 L 11.829852 10.473862 L 11.717714 10.329168 L 11.688775 10.283693 L 11.667071 10.241835 L 11.652085 10.203595 L 11.6433 10.168971 L 11.64175 10.138999 L 11.645884 10.113678 L 11.656219 10.09249 L 11.685675 10.058384 L 11.918735 9.7813982 L 12.144561 9.4992449 L 12.172983 9.4635881 L 12.19107 9.4491187 L 12.215358 9.439817 L 12.24533 9.4361996 L 12.28047 9.4377499 L 12.320778 9.4449846 L 12.366253 9.4579037 L 12.416379 9.4775408 L 12.580711 9.5591895 L 12.707318 9.6181007 L 12.863897 9.683213 L 13.047349 9.7498756 L 13.260256 9.8180885 L 13.501068 9.8837175 L 13.769785 9.9457292 L 14.070025 10.001023 L 14.368198 10.044431 A 17.530818 17.530818 0 0 0 14.777992 9.4305152 L 14.623997 9.1716163 L 14.458115 8.9158179 L 14.297918 8.6910255 L 14.144956 8.4936215 L 14.000779 8.3230893 L 13.869004 8.1794288 L 13.748598 8.0595395 L 13.646279 7.9649716 L 13.507269 7.8445655 L 13.470579 7.8058082 L 13.440606 7.7686011 L 13.418385 7.7339779 L 13.403916 7.7019386 L 13.396165 7.6729998 L 13.395131 7.6471615 L 13.401332 7.6249407 L 13.423553 7.5851498 L 13.597703 7.2683733 L 13.764618 6.9474626 L 13.785288 6.9066383 L 13.800274 6.8890683 L 13.822495 6.8756324 L 13.850917 6.8658139 L 13.88554 6.8601295 L 13.926882 6.8596127 L 13.973907 6.8637468 L 14.027134 6.8730486 L 14.203867 6.9211077 L 14.339776 6.9541806 L 14.506174 6.9872535 L 14.698411 7.0172258 L 14.920619 7.0425473 L 15.1697 7.0601173 L 15.445652 7.0678687 L 15.750543 7.0642514 L 16.051816 7.0482317 A 17.530818 17.530818 0 0 0 16.33397 6.3666195 L 16.132432 6.1423438 L 15.919525 5.9237525 L 15.71902 5.7346168 L 15.530401 5.5708025 L 15.355218 5.4312761 L 15.198122 5.3165544 L 15.057045 5.2219866 L 14.937673 5.1496396 L 14.778509 5.058689 L 14.734584 5.0276832 L 14.698411 4.9971941 L 14.669472 4.9677385 L 14.648801 4.9393165 L 14.635365 4.911928 L 14.629681 4.8871233 L 14.631231 4.8638689 L 14.645701 4.8204607 L 14.754221 4.4757789 L 14.855507 4.1285133 L 14.867909 4.0845883 L 14.879278 4.0644345 L 14.897882 4.0468645 L 14.924237 4.0318783 L 14.95731 4.019476 L 14.997617 4.010691 L 15.044643 4.0055234 L 15.098386 4.0044898 L 15.281321 4.0174089 L 15.420847 4.0230933 L 15.590346 4.0230933 L 15.785166 4.0148251 L 16.007892 3.9962216 L 16.255422 3.964699 L 16.527756 3.9187069 L 16.825929 3.8556617 L 17.118418 3.7812476 A 17.530818 17.530818 0 0 0 17.262079 3.0577776 L 17.02075 2.8769101 L 16.769602 2.7043108 L 16.535508 2.5575497 L 16.318467 2.434043 L 16.120029 2.3312069 L 15.943296 2.2495582 L 15.7862 2.1844459 L 15.655458 2.1363868 L 15.481309 2.0785092 L 15.432216 2.0568051 L 15.390875 2.0335507 L 15.356768 2.0102963 L 15.33093 1.9865251 L 15.312844 1.962754 L 15.301991 1.9389828 L 15.298891 1.9157284 L 15.304575 1.8707699 L 15.344366 1.511102 L 15.375372 1.1509172 L 15.378989 1.1059587 L 15.386224 1.0837379 L 15.40121 1.0625505 L 15.423948 1.0423967 L 15.45392 1.02431 L 15.491644 1.0077735 L 15.536602 0.99382088 L 15.589312 0.9819353 L 15.771213 0.9586809 L 15.90919 0.93749357 L 16.075588 0.90442065 L 16.26524 0.85842862 L 16.479697 0.79641691 L 16.716892 0.71735196 L 16.974758 0.61916674 L 17.254844 0.49876066 L 17.526662 0.36905281 A 17.530818 17.530818 0 0 0 17.526662 -0.36888664 L 17.254844 -0.49911125 L 16.974758 -0.61900058 L 16.716892 -0.7171858 L 16.479697 -0.79625074 L 16.26524 -0.85826246 L 16.075588 -0.90425448 L 15.90919 -0.9373274 L 15.771213 -0.9590315 L 15.589312 -0.98176913 L 15.536602 -0.99365471 L 15.491644 -1.0081241 L 15.45392 -1.0241438 L 15.423948 -1.0427473 L 15.40121 -1.0623844 L 15.386224 -1.0835717 L 15.378989 -1.1057926 L 15.375372 -1.1507511 L 15.344366 -1.5114526 L 15.304575 -1.8706038 L 15.298891 -1.9155623 L 15.301991 -1.9388167 L 15.312844 -1.9625878 L 15.33093 -1.986359 L 15.356768 -2.0101301 L 15.390875 -2.0339013 L 15.432216 -2.0566389 L 15.481309 -2.078343 L 15.655458 -2.1362206 L 15.7862 -2.1842797 L 15.943296 -2.249392 L 16.120029 -2.3315575 L 16.318467 -2.4338769 L 16.535508 -2.5579003 L 16.769602 -2.7041446 L 17.02075 -2.8767439 L 17.262079 -3.0576114 A 17.530818 17.530818 0 0 0 17.118418 -3.7810815 L 16.825929 -3.8554955 L 16.527756 -3.9190575 L 16.255938 -3.9650496 L 16.007892 -3.9960554 L 15.785166 -4.0151757 L 15.590346 -4.0229272 L 15.420847 -4.0229272 L 15.281321 -4.0172428 L 15.098386 -4.0043237 L 15.044643 -4.0058739 L 14.997617 -4.0110416 L 14.95731 -4.0198266 L 14.924237 -4.0317122 L 14.897882 -4.0466983 L 14.879278 -4.0647851 L 14.867909 -4.0849389 L 14.855507 -4.1283471 L 14.754738 -4.4756127 L 14.645701 -4.8208113 L 14.631231 -4.8637027 L 14.629681 -4.8869571 L 14.635365 -4.9122786 L 14.648801 -4.9391503 L 14.669472 -4.9675724 L 14.698411 -4.9975447 L 14.734584 -5.027517 L 14.778509 -5.0585229 L 14.937673 -5.1494734 L 15.057045 -5.2223372 L 15.198122 -5.3163883 L 15.355735 -5.4316267 L 15.530401 -5.5706363 L 15.71902 -5.7344506 L 15.919525 -5.9241031 L 16.132432 -6.1421777 L 16.33397 -6.3664534 A 17.530818 17.530818 0 0 0 16.051816 -7.0480655 L 15.750543 -7.0640852 L 15.445652 -7.0682193 L 15.1697 -7.0599511 L 14.920619 -7.0423811 L 14.698411 -7.0175764 L 14.506174 -6.9876041 L 14.339776 -6.9545312 L 14.203867 -6.9214583 L 14.027134 -6.8728824 L 13.973907 -6.8635807 L 13.926882 -6.8594465 L 13.88554 -6.8604801 L 13.850917 -6.8656477 L 13.822495 -6.8754662 L 13.800274 -6.8894189 L 13.785288 -6.9069889 L 13.764618 -6.9472965 L 13.597703 -7.2682071 L 13.423553 -7.5849836 L 13.401332 -7.6247745 L 13.395131 -7.6469954 L 13.396165 -7.6728336 L 13.403916 -7.7022891 L 13.418902 -7.7343285 L 13.441123 -7.7689517 L 13.470579 -7.805642 L 13.507786 -7.8449161 L 13.646279 -7.9648054 L 13.749115 -8.0593733 L 13.869004 -8.1792626 L 14.000779 -8.3229231 L 14.144956 -8.4934553 L 14.297918 -8.6908593 L 14.458115 -8.9161685 L 14.623997 -9.1714501 L 14.777992 -9.4308658 A 17.530818 17.530818 0 0 0 14.368198 -10.044265 L 14.070025 -10.001374 L 13.770302 -9.9455631 L 13.501068 -9.8840681 L 13.260256 -9.8179223 L 13.047349 -9.7502262 L 12.863897 -9.6830468 L 12.707318 -9.6179345 L 12.580711 -9.5595401 L 12.416379 -9.4773746 L 12.366253 -9.4582543 L 12.320778 -9.4448184 L 12.28047 -9.4375837 L 12.24533 -9.4360335 L 12.215358 -9.4401676 L 12.19107 -9.4494693 L 12.172983 -9.463422 L 12.144561 -9.4990787 L 11.918735 -9.781232 L 11.685675 -10.058218 L 11.656219 -10.092841 L 11.645884 -10.113511 L 11.64175 -10.138833 L 11.643817 -10.169322 L 11.652085 -10.203428 L 11.667071 -10.241669 L 11.688775 -10.283527 L 11.717714 -10.329002 L 11.829852 -10.474213 L 11.912534 -10.586868 L 12.006585 -10.727944 L 12.107871 -10.894342 L 12.216392 -11.090196 L 12.328013 -11.313438 L 12.440667 -11.565102 L 12.553839 -11.848289 L 12.654091 -12.13251 A 17.530818 17.530818 0 0 0 12.132676 -12.654442 L 11.848455 -12.554189 L 11.565269 -12.441018 L 11.313088 -12.327847 L 11.089845 -12.216226 L 10.894509 -12.108222 L 10.72811 -12.006936 L 10.587034 -11.912368 L 10.473862 -11.830203 L 10.329168 -11.717548 L 10.283693 -11.689126 L 10.241835 -11.666905 L 10.203595 -11.651919 L 10.168971 -11.643651 L 10.138999 -11.641584 L 10.113678 -11.646234 L 10.09249 -11.65657 L 10.058384 -11.686025 L 9.7813982 -11.918569 L 9.4992449 -12.144912 L 9.4635881 -12.172817 L 9.4491187 -12.191421 L 9.439817 -12.215192 L 9.4361996 -12.245164 L 9.4377499 -12.280304 L 9.4449846 -12.321129 L 9.4579037 -12.366604 L 9.4775408 -12.41673 L 9.5591895 -12.580544 L 9.6181007 -12.707152 L 9.683213 -12.864248 L 9.7498756 -13.047183 L 9.8180885 -13.260089 L 9.8837175 -13.500902 L 9.9457292 -13.770136 L 10.001023 -14.069859 L 10.044431 -14.368032 A 17.530818 17.530818 0 0 0 9.4305152 -14.778343 L 9.1716163 -14.624347 L 8.9158179 -14.457949 L 8.6910255 -14.298269 L 8.4936215 -14.145307 L 8.3230893 -14.000613 L 8.1794288 -13.868838 L 8.0595395 -13.748948 L 7.9649716 -13.646112 L 7.8445655 -13.50762 L 7.8058082 -13.470413 L 7.7686011 -13.440957 L 7.7339779 -13.418736 L 7.7019386 -13.40375 L 7.6729998 -13.395998 L 7.6471615 -13.395482 L 7.6249407 -13.401683 L 7.5851498 -13.423904 L 7.2683733 -13.598053 L 6.9474626 -13.764451 L 6.9066383 -13.785122 L 6.8890683 -13.800625 L 6.8756324 -13.822329 L 6.8658139 -13.850751 L 6.8601295 -13.885891 L 6.8596127 -13.926715 L 6.8637468 -13.974258 L 6.8730486 -14.026968 L 6.9211077 -14.204218 L 6.9541806 -14.33961 L 6.9872535 -14.506008 L 7.0172258 -14.698761 L 7.0425473 -14.92097 L 7.0601173 -15.17005 L 7.0678687 -15.446003 L 7.0642514 -15.750893 L 7.0482317 -16.05165 A 17.530818 17.530818 0 0 0 6.3666195 -16.333804 L 6.1423438 -16.132782 L 5.9237525 -15.919875 L 5.7346168 -15.718854 L 5.5708025 -15.530235 L 5.4312761 -15.355569 L 5.3165544 -15.197956 L 5.2219866 -15.056879 L 5.1496396 -14.938023 L 5.058689 -14.778343 L 5.0276832 -14.734418 L 4.9971941 -14.698245 L 4.9677385 -14.669823 L 4.9393165 -14.648635 L 4.911928 -14.635716 L 4.8871233 -14.629515 L 4.8638689 -14.631582 L 4.8204607 -14.645535 L 4.4757789 -14.754572 L 4.1285133 -14.855341 L 4.0845883 -14.867743 L 4.0644345 -14.879112 L 4.0468645 -14.898232 L 4.0318783 -14.924071 L 4.019476 -14.957143 L 4.010691 -14.997451 L 4.0055234 -15.044477 L 4.0044898 -15.09822 L 4.0174089 -15.281155 L 4.0230933 -15.420681 L 4.0230933 -15.590697 L 4.0148251 -15.785517 L 3.9962216 -16.007725 L 3.964699 -16.255772 L 3.9187069 -16.528107 L 3.8556617 -16.82628 L 3.7812476 -17.118252 A 17.530818 17.530818 0 0 0 3.0577776 -17.262429 L 2.8769101 -17.0211 L 2.7043108 -16.769436 L 2.5575497 -16.535858 L 2.434043 -16.318817 L 2.3312069 -16.12038 L 2.2495582 -15.94313 L 2.1844459 -15.78655 L 2.1363868 -15.655292 L 2.0785092 -15.481659 L 2.0568051 -15.43205 L 2.0335507 -15.390709 L 2.0102963 -15.357119 L 1.9865251 -15.330764 L 1.962754 -15.312677 L 1.9389828 -15.302342 L 1.9157284 -15.299241 L 1.8707699 -15.304409 L 1.511102 -15.3442 L 1.1509172 -15.375723 L 1.1059587 -15.378823 L 1.0837379 -15.386058 L 1.0625505 -15.401044 L 1.0423967 -15.423782 L 1.02431 -15.454271 L 1.0077735 -15.491995 L 0.99382088 -15.536953 L 0.9819353 -15.589146 L 0.9586809 -15.771564 L 0.93749357 -15.90954 L 0.90442065 -16.075938 L 0.85842862 -16.265074 L 0.79641691 -16.480048 L 0.71735196 -16.716726 L 0.61916674 -16.975108 L 0.49876066 -17.255194 L 0.36905281 -17.527012 A 17.530818 17.530818 0 0 0 -0.36888664 -17.527012 z M 8.3083504e-05 -2.5000227 A 2.5 2.5 0 0 1 2.5001889 8.3083504e-05 A 2.5 2.5 0 0 1 8.3083504e-05 2.5001889 A 2.5 2.5 0 0 1 -2.5000227 8.3083504e-05 A 2.5 2.5 0 0 1 8.3083504e-05 -2.5000227 z " />
</svg>
